SplineFontDB: 3.2
FontName: D-DIN-PRO-Medium-Italic
FullName: D-DIN-PRO-Medium-Italic
FamilyName: D-DIN-PRO
Weight: Medium
Copyright: Copyright (c) CyberFei. All rights reserved
Version: 1.1.0
ItalicAngle: -13
UnderlinePosition: -150
UnderlineWidth: 50
Ascent: 831
Descent: 169
InvalidEm: 0
sfntRevision: 0x00010000
LayerCount: 2
Layer: 0 0 "Back" 1
Layer: 1 0 "Fore" 0
XUID: [1021 868 -1451673819 13196]
StyleMap: 0x0040
FSType: 4
OS2Version: 3
OS2_WeightWidthSlopeOnly: 0
OS2_UseTypoMetrics: 0
CreationTime: 1462909513
ModificationTime: 1778060079
PfmFamily: 17
TTFWeight: 500
TTFWidth: 5
LineGap: 86
VLineGap: 0
Panose: 2 11 5 4 3 2 2 3 2 4
OS2TypoAscent: 831
OS2TypoAOffset: 0
OS2TypoDescent: -169
OS2TypoDOffset: 0
OS2TypoLinegap: 86
OS2WinAscent: 902
OS2WinAOffset: 0
OS2WinDescent: 184
OS2WinDOffset: 0
HheadAscent: 831
HheadAOffset: 0
HheadDescent: -169
HheadDOffset: 0
OS2SubXSize: 650
OS2SubYSize: 600
OS2SubXOff: 0
OS2SubYOff: 75
OS2SupXSize: 650
OS2SupYSize: 600
OS2SupXOff: 0
OS2SupYOff: 350
OS2StrikeYSize: 50
OS2StrikeYPos: 304
OS2CapHeight: 690
OS2XHeight: 507
OS2Vendor: 'MONO'
OS2CodePages: 20000001.00000000
OS2UnicodeRanges: 8000006f.4000000a.00000000.00000000
Lookup: 1 0 0 "'rtla' Right to Left Alternates lookup 0" { "'rtla' Right to Left Alternates lookup 0 subtable"  } ['rtla' ('DFLT' <'dflt' > ) ]
Lookup: 1 0 0 "'sups' Superscript lookup 1" { "'sups' Superscript lookup 1 subtable" ("superior") } ['sups' ('DFLT' <'dflt' > ) ]
Lookup: 4 0 0 "'frac' Diagonal Fractions lookup 2" { "'frac' Diagonal Fractions lookup 2 subtable"  } ['frac' ('DFLT' <'dflt' > ) ]
Lookup: 4 0 0 "'dlig' Discretionary Ligatures in Latin lookup 3" { "'dlig' Discretionary Ligatures in Latin lookup 3 subtable"  } ['dlig' ('latn' <'dflt' > ) ]
Lookup: 4 0 1 "'liga' Standard Ligatures in Latin lookup 4" { "'liga' Standard Ligatures in Latin lookup 4 subtable"  } ['liga' ('latn' <'dflt' > ) ]

StartChar: .notdef
Encoding: 65536 -1 0
Width: 600
GlyphClass: 1
Flags: MW
HStem: 0.645508 53.3496<84.8018 383.562 84.8018 424.595> 636.965 53.3506<219.391 518.15 219.391 219.391>
VStem: 102.329 53.3506 454.439 53.3496
LayerCount: 2
Fore
SplineSet
178.357421875 690.315429688 m 1
 583.817382812 690.315429688 l 1
 424.594726562 0.6455078125 l 1
 19.134765625 0.6455078125 l 1
 178.357421875 690.315429688 l 1
84.8017578125 53.9951171875 m 1
 383.561523438 53.9951171875 l 1
 518.150390625 636.96484375 l 1
 219.390625 636.96484375 l 1
 84.8017578125 53.9951171875 l 1
EndSplineSet
EndChar

StartChar: exclam
Encoding: 33 33 3
Width: 248
GlyphClass: 2
Flags: MW
HStem: 0.645508 110.579<19.4443 100.615 -6.08496 126.145> 670.315 20G<155.755 258.19 258.19 258.19>
VStem: 77.1094 106.7 93.8838 74.1211
LayerCount: 2
Fore
SplineSet
258.190429688 690.315429688 m 1xd0
 128.703125 190.764648438 l 1
 54.58203125 190.764648438 l 1
 155.754882812 690.315429688 l 1
 258.190429688 690.315429688 l 1xd0
19.4443359375 111.224609375 m 1xe0
 126.14453125 111.224609375 l 1
 100.615234375 0.6455078125 l 1
 -6.0849609375 0.6455078125 l 1
 19.4443359375 111.224609375 l 1xe0
EndSplineSet
EndChar

StartChar: quotedbl
Encoding: 34 34 4
Width: 315
GlyphClass: 2
Flags: MW
HStem: 446.845 243.471<131.798 159.978 75.5879 216.188 207.508 207.508 207.508 216.188 263.718 291.897>
VStem: 55.7695 84.3896 187.689 84.3896
LayerCount: 2
Fore
SplineSet
131.797851562 690.315429688 m 1
 216.1875 690.315429688 l 1
 159.977539062 446.844726562 l 1
 75.587890625 446.844726562 l 1
 131.797851562 690.315429688 l 1
263.717773438 690.315429688 m 1
 348.107421875 690.315429688 l 1
 291.897460938 446.844726562 l 1
 207.5078125 446.844726562 l 1
 263.717773438 690.315429688 l 1
EndSplineSet
EndChar

StartChar: numbersign
Encoding: 35 35 5
Width: 514
GlyphClass: 2
Flags: MW
HStem: 0.645508 21G<-4.59961 74.1465 -4.59961 -4.59961 187.46 266.207 187.46 187.46> 215.015 74.6904<12.1494 73.0215 -5.09375 100.693 178.469 265.081 12.1494 151.768 370.528 439.166> 417.745 73.7197<82.0098 146.991 64.9902 173.472 82.0098 224.767 251.25 338.081 443.31 509.25> 670.315 20G<245.57 323.348 323.348 323.348 436.66 515.408 515.408 515.408>
LayerCount: 2
Fore
SplineSet
526.26953125 491.46484375 m 1
 509.25 417.745117188 l 1
 416.826171875 417.745117188 l 1
 370.528320312 289.705078125 l 1
 456.409179688 289.705078125 l 1
 439.166015625 215.014648438 l 1
 343.828125 215.014648438 l 1
 266.20703125 0.6455078125 l 1
 187.459960938 0.6455078125 l 1
 265.081054688 215.014648438 l 1
 151.767578125 215.014648438 l 1
 74.146484375 0.6455078125 l 1
 -4.599609375 0.6455078125 l 1
 73.021484375 215.014648438 l 1
 -5.09375 215.014648438 l 1
 12.1494140625 289.705078125 l 1
 100.693359375 289.705078125 l 1
 146.991210938 417.745117188 l 1
 64.990234375 417.745117188 l 1
 82.009765625 491.46484375 l 1
 173.471679688 491.46484375 l 1
 245.5703125 690.315429688 l 1
 323.34765625 690.315429688 l 1
 251.25 491.46484375 l 1
 364.561523438 491.46484375 l 1
 436.66015625 690.315429688 l 1
 515.408203125 690.315429688 l 1
 443.309570312 491.46484375 l 1
 526.26953125 491.46484375 l 1
291.783203125 289.705078125 m 1
 338.081054688 417.745117188 l 1
 224.766601562 417.745117188 l 1
 178.46875 289.705078125 l 1
 291.783203125 289.705078125 l 1
EndSplineSet
EndChar

StartChar: dollar
Encoding: 36 36 6
Width: 460
GlyphClass: 2
Flags: MW
HStem: 29.041 83.8008<114.932 134.277> 298.266 87.7695<253.717 273.979> 576.092 82.8418<241.228 260.353>
VStem: 47.0391 88.2715 191.569 76.6309 328.092 87.5078 335.129 88.2705
LayerCount: 2
Fore
SplineSet
388.688476562 210.650390625 m 0xfa
 376.7578125 158.975585938 352.533203125 116.3984375 315.620117188 84.431640625 c 0
 281.083984375 54.5244140625 239.424804688 36.4921875 191.7734375 29.9599609375 c 1
 171.79296875 -56.5849609375 l 1
 95.1630859375 -56.5849609375 l 1
 114.931640625 29.041015625 l 1
 72.19140625 35.625 -21.3388671875 62.78125 2.18359375 212.798828125 c 2
 3.8994140625 223.745117188 l 1
 91.06640625 223.745117188 l 1
 86.5146484375 190.403320312 78.2880859375 130.145507812 134.27734375 112.841796875 c 1
 180.818359375 314.43359375 l 1
 137.029296875 323.831054688 105.119140625 341.453125 86.345703125 368.112304688 c 0
 67.083984375 395.465820312 63.9052734375 434.056640625 75.03125 482.25 c 0
 86.51171875 531.974609375 109.794921875 573.333007812 145.215820312 604.931640625 c 0
 178.131835938 634.294921875 216.891601562 652.28125 260.352539062 658.93359375 c 1
 279.018554688 739.783203125 l 1
 355.6484375 739.783203125 l 1
 337.1953125 659.85546875 l 1
 375.645507812 653.287109375 404.961914062 636.3515625 424.088867188 608.973632812 c 0
 454.67578125 565.185546875 446.171875 505.869140625 441.46484375 473.034179688 c 1
 353.95703125 473.034179688 l 1xfc
 358.955078125 504.831054688 367.499023438 559.1953125 318.009765625 576.75390625 c 1
 273.978515625 386.03515625 l 1
 296.600585938 381.873046875 349.563476562 372.12890625 378.022460938 328.966796875 c 0
 397.087890625 300.052734375 400.111328125 260.127929688 388.688476562 210.650390625 c 0xfa
241.227539062 576.091796875 m 1
 215.495117188 568.8828125 178.455078125 547.880859375 164.422851562 487.099609375 c 0
 154.083007812 442.313476562 165.70703125 416.234375 201.212890625 402.768554688 c 1
 241.227539062 576.091796875 l 1
210.533203125 111.216796875 m 1
 238.677734375 117.125 282.897460938 134.76171875 299.297851562 205.799804688 c 0xfa
 311.26953125 257.655273438 298.34765625 283.67578125 253.716796875 298.265625 c 1
 210.533203125 111.216796875 l 1
207.083007812 678.190429688 m 1024
EndSplineSet
EndChar

StartChar: percent
Encoding: 37 37 7
Width: 825
GlyphClass: 2
Flags: MW
HStem: -5.17578 76.6299<585.271 602.564 585.271 619.114> 259.635 76.6299<158.496 175.79 158.496 192.34> 354.693 77.6006<650.615 667.602> 619.504 77.6016<223.841 240.827>
VStem: 45.0996 86.3301 213.879 87.3008 533.009 86.3301 701.789 87.2998
LayerCount: 2
Fore
SplineSet
149.251953125 259.634765625 m 0
 72.638671875 259.634765625 30.9765625 299.827148438 57.1923828125 413.379882812 c 2
 88.3203125 548.209960938 l 2
 96.3232421875 582.874023438 125.837890625 697.10546875 250.25 697.10546875 c 0
 340.861328125 697.10546875 366.240234375 642.810546875 344.400390625 548.209960938 c 2
 313.272460938 413.379882812 l 2
 289.58984375 310.801757812 235.427734375 259.634765625 149.251953125 259.634765625 c 0
637.400390625 690.315429688 m 1
 721.666992188 690.315429688 l 1
 189.623046875 0.6455078125 l 1
 105.35546875 0.6455078125 l 1
 637.400390625 690.315429688 l 1
226.643554688 416.2890625 m 2
 255.755859375 542.388671875 l 2
 262.75390625 572.701171875 263.614257812 593.568359375 260.171875 604.4375 c 0
 257.091796875 614.16015625 249.3203125 619.50390625 232.333984375 619.50390625 c 0
 215.34765625 619.50390625 205.109375 614.16015625 197.541015625 604.4375 c 0
 189.079101562 593.568359375 180.3046875 572.701171875 173.306640625 542.388671875 c 2
 144.194335938 416.2890625 l 2
 136.890625 384.65625 135.845703125 362.912109375 139.24609375 351.728515625 c 0
 142.305664062 341.666015625 150.048828125 336.264648438 166.943359375 336.264648438 c 0
 184.635742188 336.264648438 194.875976562 341.77734375 202.142578125 351.563476562 c 0
 210.486328125 362.801757812 219.334960938 384.635742188 226.643554688 416.2890625 c 2
576.026367188 -5.17578125 m 0
 499.413085938 -5.17578125 457.749023438 35.015625 483.96484375 148.569335938 c 2
 515.092773438 283.399414062 l 2
 523.095703125 318.063476562 552.610351562 432.293945312 677.0234375 432.293945312 c 0
 767.634765625 432.293945312 793.013671875 378 771.172851562 283.399414062 c 2
 740.044921875 148.569335938 l 2
 716.36328125 45.9912109375 662.202148438 -5.17578125 576.026367188 -5.17578125 c 0
653.416992188 151.478515625 m 2
 682.529296875 277.578125 l 2
 689.52734375 307.889648438 690.387695312 328.7578125 686.9453125 339.626953125 c 0
 683.865234375 349.348632812 676.094726562 354.693359375 659.108398438 354.693359375 c 0
 642.122070312 354.693359375 631.8828125 349.348632812 624.314453125 339.626953125 c 0
 615.8515625 328.7578125 607.077148438 307.889648438 600.079101562 277.578125 c 2
 570.966796875 151.478515625 l 2
 563.6640625 119.845703125 562.619140625 98.1005859375 566.01953125 86.91796875 c 0
 569.078125 76.8544921875 576.823242188 71.4541015625 593.717773438 71.4541015625 c 0
 611.41015625 71.4541015625 621.649414062 76.966796875 628.916015625 86.7529296875 c 0
 637.258789062 97.9892578125 646.109375 119.82421875 653.416992188 151.478515625 c 2
EndSplineSet
EndChar

StartChar: ampersand
Encoding: 38 38 8
Width: 597
GlyphClass: 2
Flags: MW
HStem: -9.05469 81.4795<156.611 182.138> 0.645508 83.4199<400.95 482.654 450.159 463.396> 621.445 78.5693<315.747 328.934>
VStem: 61.5889 86.332 108.149 86.3311 322.519 85.3604
LayerCount: 2
Fore
SplineSet
451.995117188 552.08984375 m 0xac
 437.200195312 488.00390625 395.25390625 441.52734375 300.076171875 371.04296875 c 1
 371.8203125 218.297851562 l 1
 460.739257812 308.951171875 l 1
 509.413085938 255.783203125 l 1
 404.815429688 148.392578125 l 1
 424.739257812 105.921875 l 2
 432.424804688 89.66796875 441.37890625 84.0654296875 450.159179688 84.0654296875 c 2
 482.654296875 84.0654296875 l 1
 463.395507812 0.6455078125 l 1
 420.228515625 0.6455078125 l 2x6c
 381.670898438 0.6455078125 364.688476562 13.0732421875 348.290039062 48.607421875 c 0
 348.264648438 48.662109375 340.12890625 65.73828125 334.52734375 77.494140625 c 1
 273.568359375 21.177734375 215.9453125 -9.0546875 148.331054688 -9.0546875 c 0
 95.1826171875 -9.0546875 55.9892578125 7.142578125 32.9384765625 40.287109375 c 0
 10.064453125 73.1806640625 5.15625 116.564453125 17.248046875 168.940429688 c 0xb4
 32.2724609375 234.017578125 75.5498046875 295.481445312 191.465820312 382.958984375 c 1
 171.838867188 426.59765625 159.12890625 458.736328125 153.225585938 480.076171875 c 0
 146.892578125 502.977539062 146.338867188 526.416992188 151.818359375 550.150390625 c 0
 161.754882812 593.19140625 184.42578125 629.603515625 219.467773438 657.790039062 c 0
 254.471679688 685.946289062 294.2421875 700.014648438 337.251953125 700.014648438 c 0
 380.2578125 700.014648438 413.267578125 685.938476562 434.637695312 657.700195312 c 0
 455.932617188 629.5625 461.639648438 593.862304688 451.995117188 552.08984375 c 0xac
238.596679688 552.08984375 m 0
 232.764648438 526.828125 237.840820312 505.8984375 268.208007812 439.3515625 c 1
 303.44140625 465.811523438 327.547851562 486.814453125 339.965820312 501.24609375 c 0
 353.643554688 517.140625 362.510742188 534.2265625 366.858398438 553.059570312 c 0
 371.767578125 574.321289062 369.458984375 590.424804688 360.724609375 602.859375 c 0
 352.030273438 615.235351562 338.755859375 621.4453125 319.111328125 621.4453125 c 0
 299.469726562 621.4453125 283.10546875 615.2265625 268.329101562 602.771484375 c 0
 253.629882812 590.381835938 243.658203125 574.014648438 238.596679688 552.08984375 c 0
223.4609375 315.627929688 m 1
 144.896484375 256.19921875 114.056640625 214.317382812 104.251953125 171.849609375 c 0
 96.900390625 140.006835938 99.69921875 116.092773438 111.40625 98.640625 c 0
 123.03125 81.3095703125 142.198242188 72.4248046875 171.0234375 72.4248046875 c 0xb4
 209.076171875 72.4248046875 242.98046875 89.5341796875 301.69140625 146.982421875 c 1
 223.4609375 315.627929688 l 1
EndSplineSet
EndChar

StartChar: quotesingle
Encoding: 39 39 9
Width: 182
GlyphClass: 2
Flags: MW
HStem: 446.845 243.471<131.798 159.978 75.5879 216.188>
VStem: 55.7695 84.3896
LayerCount: 2
Fore
SplineSet
131.797851562 690.315429688 m 1
 216.1875 690.315429688 l 1
 159.977539062 446.844726562 l 1
 75.587890625 446.844726562 l 1
 131.797851562 690.315429688 l 1
EndSplineSet
EndChar

StartChar: parenleft
Encoding: 40 40 10
Width: 295
GlyphClass: 2
Flags: MW
VStem: 61.5889 87.3008
LayerCount: 2
Fore
SplineSet
54.1982421875 328.990234375 m 0
 100.821289062 530.935546875 211.869140625 671.467773438 268.729492188 738.815429688 c 1
 340.53125 738.815429688 l 1
 329.560546875 724.01171875 l 2
 264.393554688 636.075195312 180.452148438 497.713867188 141.499023438 328.990234375 c 0
 121.91015625 244.138671875 100.78515625 93.921875 147.143554688 -65.955078125 c 2
 151.45703125 -80.8349609375 l 1
 78.4716796875 -80.8349609375 l 1
 53.162109375 -12.6455078125 8.0263671875 128.997070312 54.1982421875 328.990234375 c 0
EndSplineSet
Substitution2: "'rtla' Right to Left Alternates lookup 0 subtable" parenright
EndChar

StartChar: parenright
Encoding: 41 41 11
Width: 295
GlyphClass: 2
Flags: MW
VStem: 160.529 86.3311
LayerCount: 2
Fore
SplineSet
153.138671875 328.990234375 m 0
 167.415039062 390.825195312 196.444335938 545.23046875 146.50390625 724.01171875 c 2
 142.369140625 738.815429688 l 1
 214.140625 738.815429688 l 1
 239.981445312 672.37109375 286.557617188 532.94921875 239.469726562 328.990234375 c 0
 193.234375 128.720703125 82.42578125 -13.0478515625 25.9658203125 -80.8349609375 c 1
 -47.01953125 -80.8349609375 l 1
 -35.8349609375 -65.955078125 l 2
 21.5888671875 10.4365234375 112.307617188 152.12890625 153.138671875 328.990234375 c 0
EndSplineSet
Substitution2: "'rtla' Right to Left Alternates lookup 0 subtable" parenleft
EndChar

StartChar: asterisk
Encoding: 42 42 12
Width: 383
GlyphClass: 2
Flags: MW
HStem: 403.195 287.12<175.12 305.428 175.12 305.428>
VStem: 165.379 64.0205
LayerCount: 2
Fore
SplineSet
239.140625 403.1953125 m 1
 175.120117188 403.1953125 l 1
 196.674804688 496.556640625 l 1
 109.443359375 451.842773438 l 1
 90.9296875 504.37109375 l 1
 180.319335938 550.0625 l 1
 111.782226562 594.883789062 l 1
 154.611328125 647.487304688 l 1
 221.196289062 602.7734375 l 1
 241.407226562 690.315429688 l 1
 305.427734375 690.315429688 l 1
 285.193359375 602.670898438 l 1
 373.64453125 647.549804688 l 1
 390.778320312 594.778320312 l 1
 301.755859375 550.0625 l 1
 369.889648438 504.4765625 l 1
 328.447265625 451.780273438 l 1
 260.71875 496.659179688 l 1
 239.140625 403.1953125 l 1
EndSplineSet
EndChar

StartChar: plus
Encoding: 43 43 13
Width: 515
GlyphClass: 2
Flags: MW
HStem: 236.355 84.3896<50.3555 191.893 30.873 211.375 295.766 437.303 50.3555 276.283>
VStem: 220.669 84.3906
LayerCount: 2
Fore
SplineSet
276.283203125 236.35546875 m 1
 239.108398438 75.3349609375 l 1
 154.717773438 75.3349609375 l 1
 191.892578125 236.35546875 l 1
 30.873046875 236.35546875 l 1
 50.35546875 320.745117188 l 1
 211.375 320.745117188 l 1
 248.549804688 481.764648438 l 1
 332.940429688 481.764648438 l 1
 295.765625 320.745117188 l 1
 456.78515625 320.745117188 l 1
 437.302734375 236.35546875 l 1
 276.283203125 236.35546875 l 1
EndSplineSet
EndChar

StartChar: comma
Encoding: 44 44 14
Width: 182
GlyphClass: 2
Flags: MW
HStem: -145.599 256.823<-61.1885 82.4941>
VStem: 55.7695 84.3896
LayerCount: 2
Fore
SplineSet
-1.8955078125 111.224609375 m 1
 82.494140625 111.224609375 l 1
 41.50390625 -66.3232421875 l 1
 -61.1884765625 -145.598632812 l 1
 -1.8955078125 111.224609375 l 1
EndSplineSet
EndChar

StartChar: hyphen
Encoding: 45 45 15
Width: 398
GlyphClass: 2
Flags: MW
HStem: 305.225 84.3906<68.1953 335.832 48.7119 355.315>
VStem: 61.5889 287.12
LayerCount: 2
Fore
SplineSet
68.1953125 389.615234375 m 1
 355.315429688 389.615234375 l 1
 335.83203125 305.224609375 l 1
 48.7119140625 305.224609375 l 1
 68.1953125 389.615234375 l 1
EndSplineSet
EndChar

StartChar: period
Encoding: 46 46 16
Width: 203
GlyphClass: 2
Flags: MW
HStem: 0.645508 109.609<-2.12012 78.3047 -27.4248 103.609>
VStem: 55.7695 105.729
LayerCount: 2
Fore
SplineSet
-2.1201171875 110.254882812 m 1
 103.609375 110.254882812 l 1
 78.3046875 0.6455078125 l 1
 -27.4248046875 0.6455078125 l 1
 -2.1201171875 110.254882812 l 1
EndSplineSet
EndChar

StartChar: slash
Encoding: 47 47 17
Width: 397
GlyphClass: 2
Flags: MW
HStem: 670.315 20G<347.844 427.349 427.349 427.349>
VStem: 58.0078 293.312
LayerCount: 2
Fore
SplineSet
347.84375 690.315429688 m 1
 427.348632812 690.315429688 l 1
 52.0791015625 -9.0546875 l 1
 -27.42578125 -9.0546875 l 1
 347.84375 690.315429688 l 1
EndSplineSet
EndChar

StartChar: zero
Encoding: 48 48 18
Width: 495
GlyphClass: 2
Flags: MW
HStem: -9.05469 84.3896<169.607 204.813 169.607 253.441> 615.625 84.3896<294.342 329.548>
VStem: 68.3789 91.1797 347.738 91.1807
LayerCount: 2
Fore
SplineSet
167.73046875 -9.0546875 m 0
 68.8203125 -9.0546875 -5.46484375 41.1474609375 34.787109375 215.5 c 2
 95.69921875 479.33984375 l 2
 112.89453125 553.8203125 161.088867188 700.014648438 331.431640625 700.014648438 c 0
 430.674804688 700.014648438 505.831054688 650.831054688 466.239257812 479.33984375 c 2
 405.327148438 215.5 l 2
 387.8984375 140.004882812 339.15234375 -9.0546875 167.73046875 -9.0546875 c 0
317.282226562 229.080078125 m 2
 371.028320312 461.879882812 l 2
 384.430664062 519.931640625 385.3828125 560.17578125 376.228515625 582.494140625 c 0
 367.3046875 604.249023438 347.149414062 615.625 311.947265625 615.625 c 0
 276.737304688 615.625 251.549804688 604.255859375 232.923828125 582.573242188 c 0
 213.736328125 560.23828125 196.252929688 519.943359375 182.848632812 461.879882812 c 2
 129.102539062 229.080078125 l 2
 115.697265625 171.016601562 114.575195312 130.721679688 123.44921875 108.38671875 c 0
 132.063476562 86.7041015625 152.001953125 75.3349609375 187.211914062 75.3349609375 c 0
 222.415039062 75.3349609375 247.822265625 86.7109375 266.791015625 108.465820312 c 0
 286.250976562 130.784179688 303.879882812 171.028320312 317.282226562 229.080078125 c 2
EndSplineSet
EndChar

StartChar: one
Encoding: 49 49 19
Width: 335
GlyphClass: 2
Flags: MW
HStem: 0.645508 21G<85.0947 175.305 85.0947 85.0947> 670.315 20G<250.063 334.527 334.527 334.527>
VStem: 168.289 90.21
LayerCount: 2
Fore
SplineSet
83.099609375 491.985351562 m 1
 107.3125 596.865234375 l 1
 250.063476562 690.315429688 l 1
 334.52734375 690.315429688 l 1
 175.3046875 0.6455078125 l 1
 85.0947265625 0.6455078125 l 1
 218.459960938 578.315429688 l 1
 83.099609375 491.985351562 l 1
EndSplineSet
Substitution2: "'sups' Superscript lookup 1 subtable" uni00B9
EndChar

StartChar: two
Encoding: 50 50 20
Width: 471
GlyphClass: 2
Flags: MW
HStem: 0.645508 83.4199<114.61 338.265> 616.594 83.4199<292.9 312.714>
VStem: 61.5879 90.21 329.309 92.1504
LayerCount: 2
Fore
SplineSet
319.791015625 700.013671875 m 0
 428.764648438 700.013671875 482.069335938 623.532226562 459.081054688 523.958984375 c 2
 455.2734375 507.46875 l 2
 445.618164062 465.646484375 422.82421875 417.15625 358.219726562 347.336914062 c 2
 114.610351562 84.0654296875 l 1
 357.5234375 84.0654296875 l 1
 338.264648438 0.6455078125 l 1
 -21.60546875 0.6455078125 l 1
 -5.3017578125 71.2646484375 l 1
 296.462890625 395.861328125 l 2
 333.607421875 436.79296875 355.400390625 474.018554688 363.124023438 507.469726562 c 2
 366.482421875 522.020507812 l 2
 373.5078125 552.44921875 370.358398438 575.080078125 358.239257812 591.577148438 c 0
 346.090820312 608.112304688 326.837890625 616.59375 298.590820312 616.59375 c 0
 262.674804688 616.59375 207.452148438 602.065429688 188.076171875 518.138671875 c 2
 181.693359375 490.494140625 l 1
 91.4833984375 490.494140625 l 1
 98.76171875 522.01953125 l 2
 110.895507812 574.576171875 137.166992188 618.114257812 177.588867188 650.954101562 c 0
 218.080078125 683.850585938 266.009765625 700.013671875 319.791015625 700.013671875 c 0
EndSplineSet
Substitution2: "'sups' Superscript lookup 1 subtable" uni00B2
EndChar

StartChar: three
Encoding: 51 51 21
Width: 497
GlyphClass: 2
Flags: MW
HStem: -9.05469 83.417<168.848 192.079> 315.894 84.3896<209.369 234.991 189.886 253.505> 616.593 83.4199<301.391 321.756>
VStem: 63.5303 91.1797 71.29 88.2705 339.01 90.21 349.681 91.1787
LayerCount: 2
Fore
SplineSet
358.572265625 365.765625 m 1xec
 384.228515625 350.241210938 428.614257812 307.961914062 405.4765625 207.739257812 c 2
 400.1015625 184.458984375 l 2
 386.784179688 126.774414062 358.358398438 79.34765625 314.708007812 43.884765625 c 0
 271.120117188 8.47265625 220.306640625 -9.0546875 163.850585938 -9.0546875 c 0
 108.36328125 -9.0546875 66.3671875 5.9306640625 39.54296875 36.75390625 c 0
 12.658203125 67.6474609375 5.529296875 109.770507812 17.3974609375 161.176757812 c 2
 23.33203125 186.881835938 l 1
 114.51171875 186.881835938 l 1
 109.249023438 164.086914062 l 2
 102.573242188 135.172851562 106.307617188 113.892578125 119.43359375 98.302734375 c 0
 132.645507812 82.6083984375 153.616210938 74.3623046875 184.079101562 74.3623046875 c 0
 216.236328125 74.3623046875 242.135742188 83.9833984375 263.625 102.606445312 c 0
 285.2890625 121.380859375 300.243164062 146.86328125 308.026367188 180.578125 c 2
 313.849609375 205.797851562 l 2xf2
 321.92578125 240.779296875 318.491210938 267.190429688 304.71484375 286.609375 c 0
 291.008789062 305.9296875 268.456054688 315.893554688 234.991210938 315.893554688 c 2
 189.885742188 315.893554688 l 1
 209.369140625 400.283203125 l 1
 253.504882812 400.283203125 l 2
 283.64453125 400.283203125 308.170898438 409.515625 328.934570312 427.547851562 c 0
 349.916015625 445.768554688 364.094726562 469.655273438 371.256835938 500.677734375 c 2
 375.735351562 520.078125 l 2
 382.758789062 550.497070312 379.706054688 573.536132812 367.626953125 590.732421875 c 0
 355.619140625 607.82421875 336.188476562 616.592773438 307.323242188 616.592773438 c 0
 278.271484375 616.592773438 255.184570312 608.306640625 236.353515625 592.55078125 c 0
 217.341796875 576.642578125 204.416015625 555.291015625 197.854492188 526.868164062 c 2
 191.919921875 501.163085938 l 1
 103.649414062 501.163085938 l 1
 110.03125 528.80859375 l 2
 121.868164062 580.078125 147.512695312 622.240234375 187.02734375 653.49609375 c 0
 226.602539062 684.80078125 274.259765625 700.012695312 328.521484375 700.012695312 c 0
 382.249023438 700.012695312 422.623046875 684.219726562 447.779296875 651.961914062 c 0
 472.916015625 619.731445312 478.967773438 576.484375 466.841796875 523.958007812 c 2
 461.915039062 502.618164062 l 2
 454.067382812 468.625976562 438.872070312 438.428710938 416.240234375 412.696289062 c 0
 399.251953125 393.379882812 379.936523438 377.657226562 358.572265625 365.765625 c 1xec
EndSplineSet
Substitution2: "'sups' Superscript lookup 1 subtable" uni00B3
EndChar

StartChar: four
Encoding: 52 52 22
Width: 501
GlyphClass: 2
Flags: MW
HStem: 0.645508 21G<217.015 308.195 217.015 217.015> 131.595 84.3906<111.868 247.246 357.91 411.177 111.868 338.427> 670.315 20G<329.232 422.166 422.166 422.166>
VStem: 300.209 91.1807
LayerCount: 2
Fore
SplineSet
357.91015625 215.985351562 m 1
 430.66015625 215.985351562 l 1
 411.176757812 131.594726562 l 1
 338.426757812 131.594726562 l 1
 308.1953125 0.6455078125 l 1
 217.014648438 0.6455078125 l 1
 247.24609375 131.594726562 l 1
 -3.9833984375 131.594726562 l 1
 13.626953125 207.87109375 l 1
 329.232421875 690.315429688 l 1
 422.166015625 690.315429688 l 1
 111.868164062 215.985351562 l 1
 266.729492188 215.985351562 l 1
 308.830078125 398.344726562 l 1
 400.010742188 398.344726562 l 1
 357.91015625 215.985351562 l 1
EndSplineSet
EndChar

StartChar: five
Encoding: 53 53 23
Width: 487
GlyphClass: 2
Flags: MW
HStem: -9.05469 84.3896<137.682 190.752> 371.185 84.3906<257.868 272.863> 604.955 85.3604<220.729 475.84 220.729 220.729>
VStem: 68.3779 88.2705 79.0479 85.3604 339.009 91.1797
LayerCount: 2
Fore
SplineSet
179.145507812 424.833984375 m 1xec
 200.791015625 438.822265625 235.888671875 455.575195312 279.84765625 455.575195312 c 0
 335.551757812 455.575195312 375.465820312 438.559570312 396.861328125 403.434570312 c 0
 418.0703125 368.6171875 420.670898438 319.776367188 406.450195312 258.1796875 c 2
 389.654296875 185.4296875 l 2
 375.817382812 125.493164062 348.970703125 77.359375 308.33984375 42.6572265625 c 0
 267.708007812 7.955078125 218.624023438 -9.0546875 162.880859375 -9.0546875 c 0
 108.099609375 -9.0546875 67.0625 5.3974609375 41.578125 35.361328125 c 0
 16.0966796875 65.3212890625 9.5732421875 106.2890625 21.1259765625 156.330078125 c 2
 26.388671875 179.125 l 1
 114.659179688 179.125 l 1
 110.740234375 162.150390625 l 2xf4
 105.78515625 140.689453125 93.9716796875 75.3349609375 181.392578125 75.3349609375 c 0
 222.19921875 75.3349609375 276.421875 89.90625 299.818359375 191.25 c 2
 314.375 254.299804688 l 2
 337.470703125 354.337890625 295.061523438 371.184570312 250.6640625 371.184570312 c 0
 226.388671875 371.184570312 179.366210938 363.609375 149.26171875 310.250976562 c 2
 145.331054688 303.28515625 l 1
 65.72265625 303.28515625 l 1
 155.076171875 690.315429688 l 1
 495.546875 690.315429688 l 1
 475.83984375 604.955078125 l 1
 220.729492188 604.955078125 l 1
 179.145507812 424.833984375 l 1xec
EndSplineSet
EndChar

StartChar: six
Encoding: 54 54 24
Width: 496
GlyphClass: 2
Flags: MW
HStem: -9.05469 83.4199<171.964 203.952 171.964 219.577> 332.385 84.3906<231.846 308.599> 670.315 20G<337.42 433.821 433.821 433.821>
VStem: 61.5879 92.1514 355.5 91.1787
LayerCount: 2
Fore
SplineSet
230.221679688 408.563476562 m 1
 243.265625 412.630859375 261.0625 416.775390625 282.530273438 416.775390625 c 0
 334.66796875 416.775390625 373.94921875 399.216796875 398.578125 364.05859375 c 0
 423.243164062 328.84765625 428.375976562 281.723632812 415.102539062 224.23046875 c 2
 407.48828125 191.25 l 2
 398.064453125 150.428710938 381.596679688 114.682617188 357.787109375 84.4560546875 c 0
 332.037109375 51.763671875 270.454101562 -9.0546875 168.700195312 -9.0546875 c 0
 110.970703125 -9.0546875 67.76171875 8.7900390625 40.9755859375 44.9609375 c 0
 14.193359375 81.1259765625 8.2099609375 129.794921875 21.9501953125 189.309570312 c 2
 29.5634765625 222.290039062 l 2
 37.0283203125 254.622070312 51.6806640625 297.328125 104.348632812 369.391601562 c 0
 104.372070312 369.424804688 333.299804688 684.641601562 333.299804688 684.641601562 c 1
 337.419921875 690.315429688 l 1
 433.821289062 690.315429688 l 1
 230.221679688 408.563476562 l 1
315.4140625 187.369140625 m 2
 323.028320312 220.348632812 l 2
 331.270507812 256.049804688 328.063476562 283.01171875 314.635742188 302.731445312 c 0
 301.25 322.390625 279.555664062 332.384765625 247.528320312 332.384765625 c 0
 216.163085938 332.384765625 190.174804688 322.557617188 167.747070312 303.161132812 c 0
 145.348632812 283.790039062 129.734375 257.026367188 121.491210938 221.3203125 c 2
 113.876953125 188.33984375 l 2
 105.469726562 151.923828125 108.448242188 124.41015625 121.52734375 104.385742188 c 0
 134.53125 84.4775390625 155.96875 74.365234375 187.958984375 74.365234375 c 0
 219.9453125 74.365234375 246.256835938 84.482421875 268.806640625 104.448242188 c 0
 291.471679688 124.516601562 307.172851562 151.673828125 315.4140625 187.369140625 c 2
EndSplineSet
EndChar

StartChar: seven
Encoding: 55 55 25
Width: 435
GlyphClass: 2
Flags: MW
HStem: 0.645508 21G<6.99316 99.5264 6.99316 6.99316> 605.925 84.3906<119.188 367.893 99.7041 480.027>
LayerCount: 2
Fore
SplineSet
480.02734375 690.315429688 m 1
 462.483398438 614.32421875 l 1
 99.5263671875 0.6455078125 l 1
 6.9931640625 0.6455078125 l 1
 367.892578125 605.924804688 l 1
 99.7041015625 605.924804688 l 1
 119.1875 690.315429688 l 1
 480.02734375 690.315429688 l 1
EndSplineSet
EndChar

StartChar: eight
Encoding: 56 56 26
Width: 515
GlyphClass: 2
Flags: MW
HStem: -9.05469 83.4189<180.716 212.677 180.716 234.355> 320.744 83.4209<258.794 269.912> 616.594 83.4209<308.171 335.568>
VStem: 68.377 91.1816 81.957 91.1807 353.558 91.1816 366.167 91.1836
LayerCount: 2
Fore
SplineSet
176.461914062 -9.0546875 m 0xe2
 63.09375 -9.0546875 0.7783203125 68.201171875 27.619140625 184.4609375 c 2
 33.2177734375 208.7109375 l 2xf2
 41.658203125 245.26953125 57.998046875 278.397460938 82.216796875 307.544921875 c 0
 101.905273438 331.2421875 125.135742188 350.249023438 151.4921875 364.263671875 c 1
 128.46484375 382.26171875 96.2021484375 422.704101562 114.428710938 501.651367188 c 2
 118.907226562 521.05078125 l 2
 142.182617188 621.866210938 232.788085938 700.014648438 341.131835938 700.014648438 c 0
 450.546875 700.014648438 505.41015625 623.795898438 481.689453125 521.049804688 c 2
 477.2109375 501.650390625 l 2xec
 469.388671875 467.768554688 454.807617188 437.82421875 433.274414062 412.412109375 c 0
 416.586914062 392.716796875 397.26953125 376.560546875 375.626953125 364.184570312 c 1
 395.966796875 349.719726562 410.57421875 330.404296875 419.1171875 306.499023438 c 0
 429.509765625 277.423828125 430.565429688 244.981445312 422.416015625 209.680664062 c 2
 416.817382812 185.430664062 l 2
 390.073242188 69.5908203125 292.248046875 -9.0546875 176.461914062 -9.0546875 c 0xe2
386.029296875 501.650390625 m 2xec
 390.731445312 522.020507812 l 2
 397.249023438 550.25 393.8828125 572.479492188 381.141601562 590.178710938 c 0
 368.458007812 607.794921875 349.266601562 616.59375 321.870117188 616.59375 c 0
 294.471679688 616.59375 271.424804688 607.801757812 250.963867188 590.243164062 c 0
 230.3515625 572.5546875 216.838867188 550.291992188 210.311523438 522.020507812 c 2
 205.609375 501.650390625 l 2
 198.749023438 471.9375 201.741210938 448.811523438 213.802734375 430.873046875 c 0
 225.739257812 413.120117188 244.76171875 404.165039062 272.827148438 404.165039062 c 0
 300.890625 404.165039062 324.255859375 413.125976562 344.745117188 430.939453125 c 0
 365.389648438 448.888671875 379.178710938 471.978515625 386.029296875 501.650390625 c 2xec
325.6328125 185.428710938 m 2xf2
 331.231445312 209.678710938 l 2
 339.145507812 243.959960938 335.768554688 270.44921875 322.022460938 290.600585938 c 0
 308.393554688 310.577148438 286.254882812 320.744140625 253.568359375 320.744140625 c 0
 221.627929688 320.744140625 194.908203125 310.494140625 171.564453125 290.110351562 c 0
 148.038085938 269.56640625 132.369140625 243.228515625 124.623046875 209.678710938 c 2
 119.024414062 185.428710938 l 2
 111.279296875 151.879882812 114.787109375 125.541992188 128.828125 104.998046875 c 0
 142.758789062 84.61328125 164.74609375 74.3642578125 196.686523438 74.3642578125 c 0
 228.66796875 74.3642578125 255.385742188 84.490234375 278.642578125 104.56640625 c 0
 301.995117188 124.7265625 317.7265625 151.18359375 325.6328125 185.428710938 c 2xf2
EndSplineSet
EndChar

StartChar: nine
Encoding: 57 57 27
Width: 496
GlyphClass: 2
Flags: MW
HStem: 0.645508 21G<68.2988 164.669 68.2988 68.2988> 274.185 84.3906<192.49 269.613> 616.595 83.4199<297.151 329.14>
VStem: 61.5898 91.1816 354.53 92.1494
LayerCount: 2
Fore
SplineSet
270.9921875 282.431640625 m 1
 257.919921875 278.345703125 240.081054688 274.184570312 218.572265625 274.184570312 c 0
 166.407226562 274.184570312 127.15234375 291.931640625 102.611328125 327.422851562 c 0
 78.068359375 362.916015625 72.8671875 409.850585938 85.9990234375 466.73046875 c 2
 93.61328125 499.709960938 l 2
 103.038085938 540.53125 119.504882812 576.27734375 143.314453125 606.50390625 c 0
 169.065429688 639.196289062 230.6484375 700.014648438 332.401367188 700.014648438 c 0
 390.131835938 700.014648438 433.33984375 682.169921875 460.125976562 646 c 0
 486.908203125 609.833984375 492.891601562 561.165039062 479.151367188 501.650390625 c 2
 471.537109375 468.669921875 l 2
 463.505859375 433.883789062 450.447265625 395.81640625 396.76953125 321.590820312 c 2
 164.668945312 0.6455078125 l 1
 68.298828125 0.6455078125 l 1
 270.9921875 282.431640625 l 1
379.611328125 469.639648438 m 2
 387.225585938 502.620117188 l 2
 395.6328125 539.036132812 392.655273438 566.549804688 379.576171875 586.57421875 c 0
 366.571289062 606.482421875 345.134765625 616.594726562 313.14453125 616.594726562 c 0
 281.158203125 616.594726562 254.846679688 606.477539062 232.296875 586.51171875 c 0
 209.631835938 566.444335938 193.931640625 539.286132812 185.690429688 503.58984375 c 2
 178.077148438 470.610351562 l 2
 169.834960938 434.909179688 173.041992188 407.947265625 186.469726562 388.228515625 c 0
 199.854492188 368.5703125 221.548828125 358.575195312 253.576171875 358.575195312 c 0
 285.649414062 358.575195312 311.751953125 368.444335938 333.771484375 387.73828125 c 0
 355.870117188 407.100585938 371.360351562 433.899414062 379.611328125 469.639648438 c 2
EndSplineSet
EndChar

StartChar: colon
Encoding: 58 58 28
Width: 203
GlyphClass: 2
Flags: MW
HStem: 0.645508 109.609<-2.12012 78.3047 -27.4248 103.609> 328.505 109.61<73.5732 153.997 48.2676 179.303>
VStem: 55.7695 105.729
LayerCount: 2
Fore
SplineSet
-2.1201171875 110.254882812 m 1
 103.609375 110.254882812 l 1
 78.3046875 0.6455078125 l 1
 -27.4248046875 0.6455078125 l 1
 -2.1201171875 110.254882812 l 1
73.5732421875 438.115234375 m 1
 179.302734375 438.115234375 l 1
 153.997070312 328.504882812 l 1
 48.267578125 328.504882812 l 1
 73.5732421875 438.115234375 l 1
EndSplineSet
EndChar

StartChar: semicolon
Encoding: 59 59 29
Width: 203
GlyphClass: 2
Flags: MW
HStem: 328.505 109.61<73.5732 153.997 48.2676 179.303>
VStem: 55.7695 105.729 77.1094 84.3896
LayerCount: 2
Fore
SplineSet
73.5732421875 438.115234375 m 1xc0
 179.302734375 438.115234375 l 1
 153.997070312 328.504882812 l 1
 48.267578125 328.504882812 l 1
 73.5732421875 438.115234375 l 1xc0
19.4443359375 111.224609375 m 1xa0
 103.833984375 111.224609375 l 1
 62.84375 -66.3232421875 l 1
 -39.8486328125 -145.598632812 l 1
 19.4443359375 111.224609375 l 1xa0
EndSplineSet
EndChar

StartChar: less
Encoding: 60 60 30
Width: 515
GlyphClass: 2
Flags: W
LayerCount: 2
Fore
SplineSet
32.541015625 243.583007812 m 1
 48.9140625 314.502929688 l 1
 493.537109375 479.93359375 l 1
 472.543945312 389.001953125 l 1
 168.6328125 278.549804688 l 1
 421.543945312 168.098632812 l 1
 400.54296875 77.130859375 l 1
 32.541015625 243.583007812 l 1
EndSplineSet
Substitution2: "'rtla' Right to Left Alternates lookup 0 subtable" greater
EndChar

StartChar: equal
Encoding: 61 61 31
Width: 515
GlyphClass: 2
Flags: MW
HStem: 143.235 84.3896<28.8574 415.804 9.37402 435.287> 328.505 85.3604<71.8545 458.577 52.1475 478.284>
LayerCount: 2
Fore
SplineSet
71.8544921875 413.865234375 m 1
 478.284179688 413.865234375 l 1
 458.577148438 328.504882812 l 1
 52.1474609375 328.504882812 l 1
 71.8544921875 413.865234375 l 1
28.857421875 227.625 m 1
 435.287109375 227.625 l 1
 415.803710938 143.235351562 l 1
 9.3740234375 143.235351562 l 1
 28.857421875 227.625 l 1
EndSplineSet
EndChar

StartChar: greater
Encoding: 62 62 32
Width: 515
GlyphClass: 2
Flags: W
LayerCount: 2
Fore
SplineSet
66.1142578125 389.001953125 m 1
 87.107421875 479.93359375 l 1
 455.34375 314.502929688 l 1
 438.970703125 243.583007812 l 1
 -5.88671875 77.130859375 l 1
 15.1142578125 168.098632812 l 1
 319.025390625 278.549804688 l 1
 66.1142578125 389.001953125 l 1
EndSplineSet
Substitution2: "'rtla' Right to Left Alternates lookup 0 subtable" less
EndChar

StartChar: question
Encoding: 63 63 33
Width: 433
GlyphClass: 2
Flags: MW
HStem: 0.644531 110.579<105.774 186.945 80.2451 212.475> 509.896 21G<75.3496 165.62 75.3496 75.3496> 615.625 84.3896<269.734 313.072>
VStem: 40.9746 90.2705 163.44 106.7 171.199 91.1797 304.09 91.1797
LayerCount: 2
Fore
SplineSet
342.607421875 527.83984375 m 0xf6
 350.889648438 563.713867188 350.084960938 615.625 276.059570312 615.625 c 0
 192.55078125 615.625 175.294921875 548.71875 165.620117188 509.895507812 c 1
 75.349609375 509.895507812 l 1
 83.666015625 542.55078125 99.767578125 605.77734375 156.063476562 652.772460938 c 0
 194.286132812 684.680664062 241.987304688 700.014648438 297.48046875 700.014648438 c 0
 350.563476562 700.014648438 390.353515625 684.37890625 414.942382812 652.41015625 c 0
 439.442382812 620.555664062 445.477539062 578.477539062 433.787109375 527.83984375 c 0
 423.755859375 484.390625 404.008789062 448.202148438 351.0625 391.958984375 c 2
 277.877929688 314.3828125 l 2
 249.8125 284.499023438 241 268.397460938 234.385742188 239.75 c 2
 219.045898438 173.3046875 l 1
 127.866210938 173.3046875 l 1
 143.4296875 240.719726562 l 2
 155.241210938 291.879882812 169.817382812 316.37109375 207.791015625 355.407226562 c 0
 207.801757812 355.418945312 276.571289062 426.271484375 276.571289062 426.271484375 c 2
 320.133789062 470.684570312 334.91796875 494.534179688 342.607421875 527.83984375 c 0xf6
105.774414062 111.223632812 m 1
 212.474609375 111.223632812 l 1
 186.9453125 0.64453125 l 1
 80.2451171875 0.64453125 l 1
 105.774414062 111.223632812 l 1
EndSplineSet
EndChar

StartChar: at
Encoding: 64 64 34
Width: 866
GlyphClass: 2
Flags: MW
HStem: -123.515 83.4209<252.729 388.197> 54.9678 76.6299<365.58 384.51> 428.418 76.6299<432.952 465.286 387.98 465.396> 607.865 82.4521<477.188 580.854>
VStem: 61.5889 89.2393 265.289 87.2998 513.609 86.3291 724.099 89.2402
LayerCount: 2
Fore
SplineSet
325.603515625 -123.514648438 m 0
 107.631835938 -123.514648438 -16.08984375 24.5380859375 36.5078125 252.36328125 c 2
 51.736328125 318.323242188 l 2
 68.505859375 390.963867188 99.3388671875 455.686523438 144.333984375 512.0078125 c 0
 189.251953125 568.229492188 244.064453125 612.213867188 308.147460938 643.473632812 c 0
 372.301757812 674.767578125 440.883789062 690.317382812 513.4921875 690.317382812 c 0
 732.703125 690.317382812 854.595703125 539.705078125 803.93359375 320.262695312 c 2
 788.9296875 255.272460938 l 2
 773.990234375 190.564453125 748.641601562 140.388671875 711.291992188 106.060546875 c 0
 674.41015625 72.1611328125 632.002929688 54.9677734375 586.03125 54.9677734375 c 0
 555.9453125 54.9677734375 506.663085938 63.021484375 486.793945312 112.30859375 c 1
 462.069335938 83.814453125 419.669921875 54.9677734375 349.350585938 54.9677734375 c 0
 297.493164062 54.9677734375 261.022460938 71.24609375 243.189453125 105.083984375 c 0
 225.721679688 138.229492188 224.369140625 183.755859375 237.520507812 240.72265625 c 2
 255.436523438 318.323242188 l 2
 274.91015625 402.674804688 324.640625 505.047851562 451.3203125 505.047851562 c 0
 479.250976562 505.047851562 517.44140625 498.9296875 541.671875 469.953125 c 1
 547.53515625 495.34765625 l 1
 630.955078125 495.34765625 l 1
 563.883789062 204.833007812 l 2
 557.795898438 178.462890625 559.60546875 160.1796875 567.240234375 148.533203125 c 0
 575.13671875 136.484375 586.970703125 130.626953125 604.467773438 130.626953125 c 0
 642.454101562 130.626953125 676.529296875 154.954101562 699.46484375 254.30078125 c 2
 714.46875 319.291015625 l 2
 756.231445312 500.182617188 667.251953125 607.865234375 494.456054688 607.865234375 c 0
 318.564453125 607.865234375 182.153320312 496.685546875 141.422851562 320.260742188 c 2
 125.522460938 251.390625 l 2
 86.654296875 83.0341796875 160.595703125 -40.09375 344.86328125 -40.09375 c 0
 449.177734375 -40.09375 509.797851562 -15.44140625 570.831054688 13.408203125 c 1
 584.877929688 -60.4482421875 l 1
 523.955078125 -91.330078125 450.791015625 -123.514648438 325.603515625 -123.514648438 c 0
380.622070312 131.59765625 m 0
 412.780273438 131.59765625 463.026367188 141.90234375 485.840820312 240.72265625 c 2
 504.204101562 320.262695312 l 2
 526.749023438 417.9140625 481.64453125 428.41796875 449.1484375 428.41796875 c 0
 416.755859375 428.41796875 365.756835938 418.037109375 342.51171875 317.352539062 c 2
 325.940429688 245.573242188 l 2
 316.944335938 206.607421875 317.376953125 177.9375 325.603515625 159.0625 c 0
 333.427734375 141.109375 350.538085938 131.59765625 380.622070312 131.59765625 c 0
EndSplineSet
EndChar

StartChar: A
Encoding: 65 65 35
Width: 578
GlyphClass: 2
Flags: MW
HStem: 0.645508 21G<-76.4053 -76.4053 -76.4053 20.0625 402.328 402.328 402.328 498.795> 161.665 80.5098<159.541 374.333 159.541 383.241 113.496 374.333> 670.315 20G<333.697 407.138 407.138 407.138>
LayerCount: 2
Fore
SplineSet
-76.4052734375 0.6455078125 m 1
 333.697265625 690.315429688 l 1
 407.137695312 690.315429688 l 1
 498.794921875 0.6455078125 l 1
 402.328125 0.6455078125 l 1
 383.241210938 161.665039062 l 1
 113.49609375 161.665039062 l 1
 20.0625 0.6455078125 l 1
 -76.4052734375 0.6455078125 l 1
159.541015625 242.174804688 m 1
 374.333007812 242.174804688 l 1
 337.6328125 550.244140625 l 1
 159.541015625 242.174804688 l 1
EndSplineSet
EndChar

StartChar: B
Encoding: 66 66 36
Width: 614
GlyphClass: 2
Flags: MW
HStem: 0.645508 83.4189<109.202 260.178> 311.044 83.4199<180.863 324.079 161.604 337.518> 606.895 83.4209<229.906 387.531 229.906 229.906>
VStem: 81.957 91.1807 454.438 91.1807 465.107 91.1797
LayerCount: 2
Fore
SplineSet
459.06640625 355.547851562 m 1xf8
 494.166992188 337.669921875 540.928710938 294.475585938 517.768554688 194.159179688 c 0xf4
 503.977539062 134.422851562 473.794921875 86.2529296875 427.161132812 51.7314453125 c 0
 380.696289062 17.3359375 324.631835938 0.6455078125 260.177734375 0.6455078125 c 2
 -1.2373046875 0.6455078125 l 1
 157.985351562 690.315429688 l 1
 413.581054688 690.315429688 l 2
 477.916992188 690.315429688 525.670898438 674.532226562 555.09375 641.672851562 c 0
 584.610351562 608.709960938 592.013671875 561.962890625 578.537109375 503.58984375 c 0
 570.19921875 467.471679688 552.990234375 434.650390625 527.096679688 405.80078125 c 0
 507.5859375 384.0625 484.747070312 367.240234375 459.06640625 355.547851562 c 1xf8
486.4609375 499.708984375 m 0xf8
 491.697265625 522.388671875 510.484375 606.89453125 387.53125 606.89453125 c 2
 229.90625 606.89453125 l 1
 180.86328125 394.463867188 l 1
 337.517578125 394.463867188 l 2
 378.060546875 394.463867188 410.680664062 403.670898438 436.2109375 420.861328125 c 0
 461.075195312 437.604492188 477.984375 462.993164062 486.4609375 499.708984375 c 0xf8
270.70703125 84.064453125 m 2
 327.33203125 84.064453125 405.440429688 102.556640625 427.708984375 199.009765625 c 0xf4
 432.995117188 221.905273438 452.889648438 311.043945312 324.079101562 311.043945312 c 2
 161.604492188 311.043945312 l 1
 109.202148438 84.064453125 l 1
 270.70703125 84.064453125 l 2
EndSplineSet
EndChar

StartChar: C
Encoding: 67 67 37
Width: 610
GlyphClass: 2
Flags: MW
HStem: -7.11523 85.3594<209.478 264.785> 614.653 84.3896<355.446 396.212>
VStem: 68.3779 91.1816 461.229 89.2402
LayerCount: 2
Fore
SplineSet
135.149414062 255.26953125 m 2
 102.012695312 111.73828125 168.990234375 78.244140625 249.96484375 78.244140625 c 0
 296.75 78.244140625 334.907226562 90.1767578125 365.658203125 112.993164062 c 0
 396.326171875 135.749023438 416.361328125 166.65625 425.846679688 207.740234375 c 2
 429.09375 221.8046875 l 1
 518.333984375 221.8046875 l 1
 515.086914062 207.740234375 l 2
 500.078125 142.732421875 466.451171875 89.7705078125 414.388671875 50.806640625 c 0
 362.405273438 11.900390625 300.28125 -7.115234375 229.288085938 -7.115234375 c 0
 155.547851562 -7.115234375 100.331054688 14.1416015625 65.4169921875 57.326171875 c 0
 30.0302734375 101.09375 24.068359375 169.07421875 44.86328125 259.149414062 c 2
 84.94921875 432.779296875 l 2
 105.744140625 522.853515625 143.094726562 590.833984375 198.690429688 634.602539062 c 0
 253.544921875 677.786132812 318.576171875 699.04296875 392.31640625 699.04296875 c 0
 536.458984375 699.04296875 610.721679688 613.578125 580.849609375 484.188476562 c 2
 577.826171875 471.092773438 l 1
 486.646484375 471.092773438 l 1
 489.669921875 484.188476562 l 2
 499.146484375 525.237304688 493.2890625 556.317382812 472.8515625 579.422851562 c 0
 452.366210938 602.583007812 419.588867188 614.653320312 372.834960938 614.653320312 c 0
 321.052734375 614.653320312 280.001953125 600.149414062 247.834960938 572.333007812 c 0
 216.053710938 544.8515625 191.163085938 497.889648438 175.458984375 429.869140625 c 2
 135.149414062 255.26953125 l 2
EndSplineSet
EndChar

StartChar: D
Encoding: 68 68 38
Width: 620
GlyphClass: 2
Flags: MW
HStem: 0.645508 84.3887<110.397 237.87> 605.924 84.3916<230.654 378.579 230.654 230.654>
VStem: 81.959 92.1504 470.93 92.1494
LayerCount: 2
Fore
SplineSet
577.634765625 424.048828125 m 2
 541.356445312 266.909179688 l 2
 520.5703125 176.875976562 483.76171875 108.956054688 429.173828125 65.16796875 c 0
 375.260742188 21.9208984375 310.98046875 0.6455078125 237.870117188 0.6455078125 c 2
 -1.2353515625 0.6455078125 l 1
 157.987304688 690.315429688 l 1
 397.092773438 690.315429688 l 2
 470.203125 690.315429688 524.66015625 669.038085938 558.604492188 625.791015625 c 0
 592.973632812 582.001953125 598.420898438 514.08203125 577.634765625 424.048828125 c 2
258.322265625 85.0341796875 m 2
 331.393554688 85.0341796875 414.040039062 114.586914062 448.311523438 263.029296875 c 2
 484.813476562 421.138671875 l 2
 500.212890625 487.841796875 497.311523438 534.598632812 478.8515625 562.801757812 c 0
 460.216796875 591.272460938 427.58984375 605.923828125 378.579101562 605.923828125 c 2
 230.654296875 605.923828125 l 1
 110.397460938 85.0341796875 l 1
 258.322265625 85.0341796875 l 2
EndSplineSet
EndChar

StartChar: E
Encoding: 69 69 39
Width: 549
GlyphClass: 2
Flags: MW
HStem: 0.645508 84.3896<109.428 425.564> 309.105 84.3896<180.642 448.277 161.158 467.761> 605.925 84.3906<229.685 565.304 229.685 229.685>
VStem: 81.959 91.1807
LayerCount: 2
Fore
SplineSet
109.427734375 85.03515625 m 1
 445.046875 85.03515625 l 1
 425.564453125 0.6455078125 l 1
 -1.2353515625 0.6455078125 l 1
 157.987304688 690.315429688 l 1
 584.787109375 690.315429688 l 1
 565.303710938 605.924804688 l 1
 229.684570312 605.924804688 l 1
 180.641601562 393.495117188 l 1
 467.760742188 393.495117188 l 1
 448.27734375 309.10546875 l 1
 161.158203125 309.10546875 l 1
 109.427734375 85.03515625 l 1
EndSplineSet
EndChar

StartChar: F
Encoding: 70 70 40
Width: 541
GlyphClass: 2
Flags: MW
HStem: 0.645508 21G<-1.23535 89.9453 -1.23535 -1.23535> 307.165 84.3896<160.711 467.312 180.193 447.83> 605.925 84.3906<229.685 565.304 229.685 229.685>
VStem: 81.959 91.1807
LayerCount: 2
Fore
SplineSet
160.7109375 307.165039062 m 1
 89.9453125 0.6455078125 l 1
 -1.2353515625 0.6455078125 l 1
 157.987304688 690.315429688 l 1
 584.787109375 690.315429688 l 1
 565.303710938 605.924804688 l 1
 229.684570312 605.924804688 l 1
 180.193359375 391.5546875 l 1
 467.3125 391.5546875 l 1
 447.830078125 307.165039062 l 1
 160.7109375 307.165039062 l 1
EndSplineSet
EndChar

StartChar: G
Encoding: 71 71 41
Width: 610
GlyphClass: 2
Flags: MW
HStem: -7.11523 85.3594<209.048 263.562> 283.885 81.4805<302.188 443.426 283.376 553.417> 614.655 84.3896<353.82 394.915>
VStem: 68.3779 91.1807 461.229 91.1797
LayerCount: 2
Fore
SplineSet
135.1484375 255.26953125 m 2
 101.888671875 111.206054688 169.1015625 78.244140625 248.994140625 78.244140625 c 0
 298.280273438 78.244140625 337.205078125 91.541015625 367.461914062 116.83984375 c 0
 397.37890625 141.853515625 420.1796875 183.196289062 433.908203125 242.66015625 c 2
 443.42578125 283.884765625 l 1
 283.375976562 283.884765625 l 1
 302.1875 365.365234375 l 1
 553.416992188 365.365234375 l 1
 527.999023438 255.270507812 l 2
 507.365234375 165.895507812 470.90625 98.73828125 416.7890625 55.8955078125 c 0
 363.420898438 13.64453125 299.77734375 -7.115234375 227.34765625 -7.115234375 c 0
 154.233398438 -7.115234375 99.4912109375 14.1611328125 64.9091796875 57.3525390625 c 0
 29.8623046875 101.127929688 24.072265625 169.090820312 44.8642578125 259.151367188 c 2
 84.9501953125 432.78125 l 2
 105.7421875 522.841796875 142.911132812 590.802734375 198.171875 634.577148438 c 0
 252.696289062 677.76953125 317.262695312 699.044921875 390.376953125 699.044921875 c 0
 540.130859375 699.044921875 607.657226562 608.712890625 579.357421875 486.129882812 c 2
 576.110351562 472.065429688 l 1
 484.9296875 472.065429688 l 1
 488.176757812 486.129882812 l 2
 497.494140625 526.48828125 491.561523438 557.063476562 471.0625 579.866210938 c 0
 450.489257812 602.750976562 417.96484375 614.655273438 371.864257812 614.655273438 c 0
 320.1015625 614.655273438 279.236328125 600.014648438 247.33203125 571.93359375 c 0
 215.700195312 544.090820312 191.009765625 497.231445312 175.458007812 429.869140625 c 2
 135.1484375 255.26953125 l 2
EndSplineSet
EndChar

StartChar: H
Encoding: 72 72 42
Width: 628
GlyphClass: 2
Flags: MW
HStem: 0.645508 21G<-1.23535 89.9453 -1.23535 -1.23535 382.885 474.064 382.885 382.885> 311.045 84.3896<181.089 454.546 161.606 474.028> 670.315 20G<157.987 249.168 249.168 249.168 542.107 633.287 633.287 633.287>
VStem: 81.959 91.1807 466.079 91.1797
LayerCount: 2
Fore
SplineSet
633.287109375 690.315429688 m 1
 474.064453125 0.6455078125 l 1
 382.884765625 0.6455078125 l 1
 454.545898438 311.044921875 l 1
 161.606445312 311.044921875 l 1
 89.9453125 0.6455078125 l 1
 -1.2353515625 0.6455078125 l 1
 157.987304688 690.315429688 l 1
 249.16796875 690.315429688 l 1
 181.088867188 395.434570312 l 1
 474.028320312 395.434570312 l 1
 542.107421875 690.315429688 l 1
 633.287109375 690.315429688 l 1
EndSplineSet
EndChar

StartChar: I
Encoding: 73 73 43
Width: 258
GlyphClass: 2
Flags: MW
HStem: 0.645508 21G<6.52539 97.7051 6.52539 6.52539> 670.315 20G<165.748 256.928 256.928 256.928>
VStem: 89.7197 91.1797
LayerCount: 2
Fore
SplineSet
165.748046875 690.315429688 m 1
 256.927734375 690.315429688 l 1
 97.705078125 0.6455078125 l 1
 6.525390625 0.6455078125 l 1
 165.748046875 690.315429688 l 1
EndSplineSet
EndChar

StartChar: J
Encoding: 74 74 44
Width: 320
GlyphClass: 2
Flags: MW
HStem: 0.645508 84.3896<-28.3125 28.3496 -47.7949 37.1611> 670.315 20G<227.827 319.008 319.008 319.008>
VStem: 151.799 91.1807
LayerCount: 2
Fore
SplineSet
191.920898438 139.83984375 m 2
 179.860351562 87.6015625 142.623046875 0.6455078125 28.349609375 0.6455078125 c 2
 -47.794921875 0.6455078125 l 1
 -28.3125 85.03515625 l 1
 37.1611328125 85.03515625 l 2
 57.5283203125 85.03515625 70.8056640625 90.3759765625 79.42578125 98.6923828125 c 0
 88.498046875 107.446289062 97.0263671875 123.756835938 102.754882812 148.5703125 c 2
 227.827148438 690.315429688 l 1
 319.0078125 690.315429688 l 1
 191.920898438 139.83984375 l 2
EndSplineSet
EndChar

StartChar: K
Encoding: 75 75 45
Width: 598
GlyphClass: 2
Flags: MW
HStem: 0.645508 21G<-1.23535 89.9453 -1.23535 -1.23535 415.331 521.507 415.331 415.331> 670.315 20G<157.987 249.168 249.168 249.168 543.494 654.164 654.164 654.164>
VStem: 81.959 91.1807
LayerCount: 2
Fore
SplineSet
415.331054688 0.6455078125 m 1
 294.866210938 346.010742188 l 1
 134.012695312 191.5234375 l 1
 89.9453125 0.6455078125 l 1
 -1.2353515625 0.6455078125 l 1
 157.987304688 690.315429688 l 1
 249.16796875 690.315429688 l 1
 163.537109375 319.408203125 l 1
 543.494140625 690.315429688 l 1
 654.1640625 690.315429688 l 1
 370.912109375 418.291015625 l 1
 521.506835938 0.6455078125 l 1
 415.331054688 0.6455078125 l 1
EndSplineSet
EndChar

StartChar: L
Encoding: 76 76 46
Width: 531
GlyphClass: 2
Flags: MW
HStem: 0.645508 84.3896<109.428 423.625> 670.315 20G<157.987 249.168 249.168 249.168>
VStem: 81.959 91.1807
LayerCount: 2
Fore
SplineSet
157.987304688 690.315429688 m 1
 249.16796875 690.315429688 l 1
 109.427734375 85.03515625 l 1
 443.107421875 85.03515625 l 1
 423.625 0.6455078125 l 1
 -1.2353515625 0.6455078125 l 1
 157.987304688 690.315429688 l 1
EndSplineSet
EndChar

StartChar: M
Encoding: 77 77 47
Width: 749
GlyphClass: 2
Flags: MW
HStem: 0.645508 21G<-1.23535 89.9453 -1.23535 -1.23535 503.165 594.345 503.165 503.165> 670.315 20G<157.987 245.383 245.383 245.383 666.16 753.567 753.567 753.567>
VStem: 81.959 91.1807 586.359 91.1797
LayerCount: 2
Fore
SplineSet
753.567382812 690.315429688 m 1
 594.344726562 0.6455078125 l 1
 503.165039062 0.6455078125 l 1
 616.208984375 490.293945312 l 1
 361.484375 134.504882812 l 1
 294.416992188 134.504882812 l 1
 203.036132812 490.498046875 l 1
 89.9453125 0.6455078125 l 1
 -1.2353515625 0.6455078125 l 1
 157.987304688 690.315429688 l 1
 245.3828125 690.315429688 l 1
 355.186523438 252.59375 l 1
 666.16015625 690.315429688 l 1
 753.567382812 690.315429688 l 1
EndSplineSet
EndChar

StartChar: N
Encoding: 78 78 48
Width: 662
GlyphClass: 2
Flags: MW
HStem: 0.645508 21G<-1.23535 89.9453 -1.23535 -1.23535 420.486 507.045 420.486 420.486> 670.315 20G<157.987 244.535 244.535 244.535 575.088 666.268 666.268 666.268>
VStem: 81.959 91.1807 499.06 91.1797
LayerCount: 2
Fore
SplineSet
666.267578125 690.315429688 m 1
 507.044921875 0.6455078125 l 1
 420.486328125 0.6455078125 l 1
 208.793945312 515.4375 l 1
 89.9453125 0.6455078125 l 1
 -1.2353515625 0.6455078125 l 1
 157.987304688 690.315429688 l 1
 244.53515625 690.315429688 l 1
 456.662109375 177.357421875 l 1
 575.087890625 690.315429688 l 1
 666.267578125 690.315429688 l 1
EndSplineSet
EndChar

StartChar: O
Encoding: 79 79 49
Width: 610
GlyphClass: 2
Flags: MW
HStem: -7.11523 85.3613<220.504 261.653> 614.657 84.3867<352.851 405.594>
VStem: 68.3799 91.1807 461.23 91.1787
LayerCount: 2
Fore
SplineSet
44.8662109375 259.150390625 m 2
 84.951171875 432.780273438 l 2
 105.740234375 522.827148438 142.73046875 590.767578125 197.653320312 634.548828125 c 0
 251.872070312 677.768554688 316.294921875 699.043945312 389.407226562 699.043945312 c 0
 461.895507812 699.043945312 516.021484375 677.748046875 549.94921875 634.520507812 c 0
 584.319335938 590.732421875 589.765625 522.811523438 568.98046875 432.779296875 c 2
 528.89453125 259.149414062 l 2
 508.10546875 169.102539062 471.1171875 101.162109375 416.193359375 57.3798828125 c 0
 362 14.1806640625 297.8984375 -7.115234375 225.408203125 -7.115234375 c 0
 152.297851562 -7.115234375 97.83984375 14.1611328125 63.8955078125 57.408203125 c 0
 29.52734375 101.196289062 24.080078125 169.1171875 44.8662109375 259.150390625 c 2
246.0859375 78.24609375 m 0
 320.58984375 78.24609375 402.9375 108.504882812 436.8203125 255.270507812 c 2
 477.130859375 429.872070312 l 2
 513.172851562 585.98828125 441.260742188 614.657226562 369.926757812 614.657226562 c 0
 318.154296875 614.657226562 277.674804688 600.013671875 246.465820312 572.025390625 c 0
 215.428710938 544.190429688 191.01953125 497.263671875 175.4609375 429.87109375 c 2
 135.150390625 255.270507812 l 2
 120.360351562 191.206054688 123.692382812 146.5078125 142.34765625 119.588867188 c 0
 161.15625 92.44921875 194.922851562 78.24609375 246.0859375 78.24609375 c 0
EndSplineSet
EndChar

StartChar: P
Encoding: 80 80 50
Width: 578
GlyphClass: 2
Flags: MW
HStem: 0.645508 21G<-1.23535 89.9453 -1.23535 -1.23535> 277.095 84.3906<173.252 313.333 153.769 326.996> 605.925 84.3906<229.685 383.429 229.685 229.685>
VStem: 81.959 91.1807 462.199 91.1797
LayerCount: 2
Fore
SplineSet
580.923828125 480.309570312 m 0
 566.534179688 417.984375 535.033203125 367.586914062 486.389648438 331.140625 c 0
 437.896484375 294.807617188 379.788085938 277.094726562 313.333007812 277.094726562 c 2
 153.768554688 277.094726562 l 1
 89.9453125 0.6455078125 l 1
 -1.2353515625 0.6455078125 l 1
 157.987304688 690.315429688 l 1
 408.732421875 690.315429688 l 2
 475.825195312 690.315429688 525.92578125 672.446289062 557.259765625 635.721679688 c 0
 588.752929688 598.813476562 596.162109375 546.315429688 580.923828125 480.309570312 c 0
489.744140625 480.309570312 m 0
 498.208984375 516.974609375 513.244140625 605.924804688 383.428710938 605.924804688 c 2
 229.684570312 605.924804688 l 1
 173.251953125 361.485351562 l 1
 326.99609375 361.485351562 l 2
 372.072265625 361.485351562 407.728515625 371.834960938 434.927734375 391.087890625 c 0
 461.659179688 410.010742188 480.186523438 438.9140625 489.744140625 480.309570312 c 0
EndSplineSet
EndChar

StartChar: Q
Encoding: 81 81 51
Width: 610
GlyphClass: 2
Flags: MW
HStem: -7.11328 85.3604<220.504 235.33> 614.658 84.3867<352.852 405.594>
VStem: 68.3799 91.1807 461.23 91.1787
LayerCount: 2
Fore
SplineSet
225.409179688 -7.11328125 m 0
 152.298828125 -7.11328125 97.8408203125 14.1630859375 63.896484375 57.41015625 c 0
 29.5283203125 101.198242188 24.080078125 169.118164062 44.8662109375 259.151367188 c 2
 84.9521484375 432.78125 l 2
 105.740234375 522.828125 142.73046875 590.768554688 197.653320312 634.549804688 c 0
 251.872070312 677.76953125 316.295898438 699.044921875 389.408203125 699.044921875 c 0
 461.896484375 699.044921875 516.021484375 677.749023438 549.950195312 634.521484375 c 0
 584.319335938 590.733398438 589.766601562 522.8125 568.98046875 432.780273438 c 2
 528.895507812 259.150390625 l 2
 503.083007812 147.34375 450.450195312 68.1904296875 370.025390625 26.240234375 c 1
 411.645507812 -108.576171875 l 1
 329.15234375 -149.57421875 l 1
 283.146484375 -2.4775390625 l 1
 264.498046875 -5.576171875 245.25 -7.11328125 225.409179688 -7.11328125 c 0
246.0859375 78.2470703125 m 0
 320.58984375 78.2470703125 402.9375 108.505859375 436.821289062 255.271484375 c 2
 477.130859375 429.872070312 l 2
 513.172851562 585.989257812 441.260742188 614.658203125 369.926757812 614.658203125 c 0
 318.154296875 614.658203125 277.674804688 600.014648438 246.465820312 572.026367188 c 0
 215.428710938 544.19140625 191.01953125 497.264648438 175.4609375 429.872070312 c 2
 135.151367188 255.271484375 l 2
 120.360351562 191.20703125 123.692382812 146.508789062 142.34765625 119.58984375 c 0
 161.15625 92.4501953125 194.922851562 78.2470703125 246.0859375 78.2470703125 c 0
EndSplineSet
EndChar

StartChar: R
Encoding: 82 82 52
Width: 599
GlyphClass: 2
Flags: MW
HStem: 0.645508 21G<-1.23535 89.9453 -1.23535 -1.23535 385.888 490.443 385.888 385.888> 294.555 81.4795<157.799 362.634> 605.925 84.3906<229.685 391.189 229.685 229.685>
VStem: 81.959 91.1807 461.229 91.1807
LayerCount: 2
Fore
SplineSet
385.887695312 0.6455078125 m 1
 302.420898438 294.5546875 l 1
 157.798828125 294.5546875 l 1
 89.9453125 0.6455078125 l 1
 -1.2353515625 0.6455078125 l 1
 157.987304688 690.315429688 l 1
 416.4921875 690.315429688 l 2
 480.961914062 690.315429688 529.163085938 673.448242188 559.34765625 638.6796875 c 0
 589.682617188 603.736328125 596.995117188 554.123046875 582.641601562 491.950195312 c 0
 571.17578125 442.2890625 548.297851562 400.323242188 513.732421875 367.194335938 c 0
 482.453125 337.21484375 444.483398438 316.459960938 400.720703125 304.8515625 c 1
 490.443359375 0.6455078125 l 1
 385.887695312 0.6455078125 l 1
491.236328125 490.979492188 m 0
 498.611328125 522.924804688 512.64453125 605.924804688 391.189453125 605.924804688 c 2
 229.684570312 605.924804688 l 1
 176.610351562 376.03515625 l 1
 230.444335938 376.03515625 284.278320312 376.034179688 338.11328125 376.034179688 c 0
 387.154296875 376.034179688 468.322265625 391.725585938 491.236328125 490.979492188 c 0
EndSplineSet
EndChar

StartChar: S
Encoding: 83 83 53
Width: 548
GlyphClass: 2
Flags: MW
HStem: -5.1748 82.4521<142.025 222.424> 617.565 81.4805<320.321 384.145 320.321 395.433>
VStem: 49.9473 89.2422 409.751 90.5283 419.517 90.2119
LayerCount: 2
Fore
SplineSet
209.96875 77.27734375 m 0xe8
 285.907226562 77.27734375 359.798828125 102.333984375 380.55078125 192.221679688 c 0xe8
 388.631835938 227.224609375 384.62109375 251.770507812 370.376953125 268.09375 c 0
 355.672851562 284.946289062 329.166992188 297.466796875 289.8203125 304.39453125 c 0
 289.795898438 304.399414062 217.071289062 317.004882812 217.071289062 317.004882812 c 2
 163.564453125 326.279296875 124.172851562 345.491210938 100.0546875 375.50390625 c 0
 75.5859375 405.950195312 70.1806640625 448.639648438 82.4189453125 501.651367188 c 0
 96.55078125 562.861328125 128.782226562 612.119140625 178.8515625 647.208007812 c 0
 228.551757812 682.037109375 287.125 699.045898438 353.517578125 699.045898438 c 0
 414.771484375 699.045898438 462.283203125 683.142578125 494.752929688 650.696289062 c 0
 543.493164062 601.990234375 534.915039062 528.966796875 530.623046875 492.434570312 c 1
 440.094726562 492.434570312 l 1xf0
 445.717773438 533.224609375 457.130859375 617.565429688 333.735351562 617.565429688 c 0
 289.369140625 617.565429688 253.85546875 607.106445312 226.189453125 587.484375 c 0
 198.551757812 567.883789062 180.881835938 541.590820312 172.780273438 506.5 c 0
 162.862304688 463.5390625 167.939453125 418.009765625 259.3359375 401.102539062 c 0
 259.358398438 401.098632812 333.77734375 387.526367188 333.77734375 387.526367188 c 2
 389.057617188 377.600585938 429.553710938 357.580078125 454.094726562 326.5703125 c 0
 478.971679688 295.134765625 484.3359375 251.014648438 471.658203125 196.099609375 c 0
 457.080078125 132.955078125 423.918945312 82.5068359375 372.397460938 47.076171875 c 0
 321.174804688 11.8515625 258.763671875 -5.1748046875 186.084960938 -5.1748046875 c 0
 93.673828125 -5.1748046875 -25.05078125 27.0654296875 -0.9814453125 199.049804688 c 2
 0.57421875 210.166992188 l 1
 90.7666015625 210.166992188 l 1
 85.279296875 167.52734375 74.0810546875 77.27734375 209.96875 77.27734375 c 0xe8
EndSplineSet
EndChar

StartChar: T
Encoding: 84 84 54
Width: 485
GlyphClass: 2
Flags: MW
HStem: 0.645508 21G<120.015 210.225 120.015 120.015> 605.925 84.3906<88.1475 259.754 68.6641 560.537 349.964 349.964 349.964 541.054>
VStem: 203.209 90.21
LayerCount: 2
Fore
SplineSet
259.75390625 605.924804688 m 1
 68.6640625 605.924804688 l 1
 88.1474609375 690.315429688 l 1
 560.537109375 690.315429688 l 1
 541.053710938 605.924804688 l 1
 349.963867188 605.924804688 l 1
 210.224609375 0.6455078125 l 1
 120.014648438 0.6455078125 l 1
 259.75390625 605.924804688 l 1
EndSplineSet
EndChar

StartChar: U
Encoding: 85 85 55
Width: 634
GlyphClass: 2
Flags: MW
HStem: -5.1748 83.4199<234.554 280.552 234.554 307.347> 670.315 20G<157.987 250.138 250.138 250.138 547.928 639.107 639.107 639.107>
VStem: 81.959 92.1504 471.899 91.1797
LayerCount: 2
Fore
SplineSet
238.465820312 -5.1748046875 m 0
 95.4765625 -5.1748046875 20.4814453125 94.7138671875 51.5029296875 229.080078125 c 2
 157.987304688 690.315429688 l 1
 250.137695312 690.315429688 l 1
 144.997070312 234.900390625 l 2
 133.645507812 185.734375 138.639648438 148.043945312 158.854492188 120.204101562 c 0
 179.065429688 92.3720703125 211.3828125 78.2451171875 257.724609375 78.2451171875 c 0
 303.379882812 78.2451171875 342.08984375 92.34375 375.533203125 120.245117188 c 0
 408.911132812 148.092773438 431.442382812 185.760742188 442.787109375 234.900390625 c 2
 547.927734375 690.315429688 l 1
 639.107421875 690.315429688 l 1
 532.623046875 229.080078125 l 2
 500.12109375 88.2978515625 376.228515625 -5.1748046875 238.465820312 -5.1748046875 c 0
EndSplineSet
EndChar

StartChar: V
Encoding: 86 86 56
Width: 525
GlyphClass: 2
Flags: MW
HStem: 0.645508 21G<148.016 221.014 148.016 148.016> 670.315 20G<83.3457 178.569 178.569 178.569 509.873 605.129 605.129 605.129>
LayerCount: 2
Fore
SplineSet
83.345703125 690.315429688 m 1
 178.569335938 690.315429688 l 1
 222.133789062 159.486328125 l 1
 509.873046875 690.315429688 l 1
 605.12890625 690.315429688 l 1
 221.013671875 0.6455078125 l 1
 148.015625 0.6455078125 l 1
 83.345703125 690.315429688 l 1
EndSplineSet
EndChar

StartChar: W
Encoding: 87 87 57
Width: 792
GlyphClass: 2
Flags: MW
HStem: 0.645508 21G<101.926 180.844 101.926 101.926 457.907 536.818 457.907 457.907> 670.315 20G<84.2334 174.228 174.228 174.228 424.92 531.188 531.188 531.188 781.88 868.958 868.958 868.958>
LayerCount: 2
Fore
SplineSet
457.907226562 0.6455078125 m 1
 444.412109375 550.185546875 l 1
 180.84375 0.6455078125 l 1
 101.92578125 0.6455078125 l 1
 84.2333984375 690.315429688 l 1
 174.227539062 690.315429688 l 1
 181.46875 168.875 l 1
 424.919921875 690.315429688 l 1
 531.1875 690.315429688 l 1
 538.428710938 168.875 l 1
 781.879882812 690.315429688 l 1
 868.958007812 690.315429688 l 1
 536.818359375 0.6455078125 l 1
 457.907226562 0.6455078125 l 1
EndSplineSet
EndChar

StartChar: X
Encoding: 88 88 58
Width: 567
GlyphClass: 2
Flags: MW
HStem: 0.645508 21G<-80.5684 -80.5684 -80.5684 26.2207 382.605 382.605 382.605 492.247> 670.315 20G<97.1279 206.804 206.804 206.804 523.361 630.124 630.124 630.124>
LayerCount: 2
Fore
SplineSet
-80.568359375 0.6455078125 m 1
 233.810546875 359.071289062 l 1
 97.1279296875 690.315429688 l 1
 206.803710938 690.315429688 l 1
 306.486328125 436.506835938 l 1
 523.361328125 690.315429688 l 1
 630.124023438 690.315429688 l 1
 343.098632812 361.971679688 l 1
 492.247070312 0.6455078125 l 1
 382.60546875 0.6455078125 l 1
 269.286132812 283.68359375 l 1
 26.220703125 0.6455078125 l 1
 -80.568359375 0.6455078125 l 1
EndSplineSet
EndChar

StartChar: Y
Encoding: 89 89 59
Width: 501
GlyphClass: 2
Flags: MW
HStem: 0.645508 21G<127.775 218.955 127.775 127.775> 670.315 20G<80.6602 180.331 180.331 180.331 484.861 584.496 584.496 584.496>
VStem: 210.97 91.1797
LayerCount: 2
Fore
SplineSet
584.49609375 690.315429688 m 1
 285.456054688 288.6953125 l 1
 218.955078125 0.6455078125 l 1
 127.775390625 0.6455078125 l 1
 194.499023438 289.66015625 l 1
 80.66015625 690.315429688 l 1
 180.331054688 690.315429688 l 1
 260.963867188 382.059570312 l 1
 484.861328125 690.315429688 l 1
 584.49609375 690.315429688 l 1
EndSplineSet
EndChar

StartChar: Z
Encoding: 90 90 60
Width: 519
GlyphClass: 2
Flags: MW
HStem: 0.645508 84.3896<88.665 407.135> 605.925 84.3906<131.798 434.746 112.314 563.447>
LayerCount: 2
Fore
SplineSet
426.6171875 85.03515625 m 1
 407.134765625 0.6455078125 l 1
 -40.03515625 0.6455078125 l 1
 -22.220703125 77.8076171875 l 1
 434.74609375 605.924804688 l 1
 112.314453125 605.924804688 l 1
 131.797851562 690.315429688 l 1
 563.447265625 690.315429688 l 1
 545.6328125 613.15234375 l 1
 88.6650390625 85.03515625 l 1
 426.6171875 85.03515625 l 1
EndSplineSet
EndChar

StartChar: bracketleft
Encoding: 91 91 61
Width: 302
GlyphClass: 2
Flags: MW
HStem: -80.835 84.3896<87.7061 151.644> 654.425 84.3906<237.972 321.392 237.972 237.972>
VStem: 81.959 88.2705 81.959 171.69
LayerCount: 2
Fore
SplineSet
169.184570312 738.815429688 m 1xd0
 340.875 738.815429688 l 1
 321.391601562 654.424804688 l 1xd0
 237.971679688 654.424804688 l 1
 87.7060546875 3.5546875 l 1xe0
 171.125976562 3.5546875 l 1
 151.643554688 -80.8349609375 l 1
 -20.046875 -80.8349609375 l 1
 169.184570312 738.815429688 l 1xd0
EndSplineSet
Substitution2: "'rtla' Right to Left Alternates lookup 0 subtable" bracketright
EndChar

StartChar: backslash
Encoding: 92 92 62
Width: 397
GlyphClass: 2
Flags: MW
HStem: 670.315 20G<134.036 213.541 213.541 213.541>
VStem: 58.0078 293.312
LayerCount: 2
Fore
SplineSet
134.036132812 690.315429688 m 1
 213.541015625 690.315429688 l 1
 265.88671875 -9.0546875 l 1
 186.381835938 -9.0546875 l 1
 134.036132812 690.315429688 l 1
EndSplineSet
EndChar

StartChar: bracketright
Encoding: 93 93 63
Width: 302
GlyphClass: 2
Flags: MW
HStem: -80.835 84.3896<-20.9346 62.4854 -20.9346 131.273 -40.417 62.4854> 654.425 84.3906<148.814 212.751 129.331 320.505>
VStem: 61.5889 171.69 145.009 88.2705
LayerCount: 2
Fore
SplineSet
212.750976562 654.424804688 m 1xd0
 129.331054688 654.424804688 l 1
 148.814453125 738.815429688 l 1
 320.504882812 738.815429688 l 1
 131.2734375 -80.8349609375 l 1
 -40.4169921875 -80.8349609375 l 1
 -20.9345703125 3.5546875 l 1xe0
 62.4853515625 3.5546875 l 1
 212.750976562 654.424804688 l 1xd0
EndSplineSet
Substitution2: "'rtla' Right to Left Alternates lookup 0 subtable" bracketleft
EndChar

StartChar: asciicircum
Encoding: 94 94 64
Width: 515
GlyphClass: 2
Flags: MW
HStem: 670.315 20G<304.036 374.719 374.719 374.719>
LayerCount: 2
Fore
SplineSet
304.036132812 690.315429688 m 1
 374.71875 690.315429688 l 1
 455.831054688 277.094726562 l 1
 375.428710938 277.094726562 l 1
 316.142578125 591.630859375 l 1
 112.546875 277.094726562 l 1
 32.1259765625 277.094726562 l 1
 304.036132812 690.315429688 l 1
EndSplineSet
EndChar

StartChar: underscore
Encoding: 95 95 65
Width: 460
GlyphClass: 2
Flags: MW
HStem: -100.235 68.8701<-86.2256 361.535 -102.125 377.435>
LayerCount: 2
Fore
SplineSet
-86.2255859375 -31.365234375 m 1
 377.434570312 -31.365234375 l 1
 361.53515625 -100.235351562 l 1
 -102.125 -100.235351562 l 1
 -86.2255859375 -31.365234375 l 1
EndSplineSet
EndChar

StartChar: grave
Encoding: 96 96 66
Width: 502
GlyphClass: 2
Flags: MW
HStem: 555.485 141.62<315.066 322.104 211.807 401.571 315.066 315.066>
VStem: 134.211 222.46
LayerCount: 2
Fore
SplineSet
211.806640625 697.10546875 m 1
 322.103515625 697.10546875 l 1
 401.571289062 555.485351562 l 1
 315.06640625 555.485351562 l 1
 211.806640625 697.10546875 l 1
EndSplineSet
EndChar

StartChar: a
Encoding: 97 97 67
Width: 499
GlyphClass: 2
Flags: MW
HStem: -5.17578 73.7207<124.67 170.528> 231.505 68.8691<162.34 333.743 211.038 317.844> 443.935 75.6602<254.719 298.317 254.719 314.555>
VStem: 49.9502 86.3301 64.499 84.3906 347.74 86.3301
LayerCount: 2
Fore
SplineSet
282.018554688 519.594726562 m 0xec
 314.616210938 519.594726562 470.518554688 518.876953125 430.487304688 345.48046875 c 2
 350.875976562 0.6455078125 l 1
 265.515625 0.6455078125 l 1
 273.791992188 36.4970703125 l 1
 243.407226562 13.134765625 202.499023438 -5.17578125 138.556640625 -5.17578125 c 0
 85.2705078125 -5.17578125 45.4296875 7.4892578125 20.705078125 34.158203125 c 0
 -4.2236328125 61.0498046875 -10.240234375 100.288085938 1.1298828125 149.5390625 c 0xf4
 11.8125 195.806640625 35.96875 233.51953125 73.4501953125 260.548828125 c 0
 110.890625 287.547851562 157.104492188 300.374023438 211.038085938 300.374023438 c 2
 333.743164062 300.374023438 l 1
 344.380859375 346.44921875 l 2
 350.264648438 371.93359375 363.587890625 443.934570312 265.521484375 443.934570312 c 0
 233.376953125 443.934570312 207.829101562 436.661132812 188.053710938 423.354492188 c 0
 168.422851562 410.146484375 156.204101562 392.684570312 150.680664062 368.759765625 c 2
 147.658203125 355.665039062 l 1
 63.267578125 355.665039062 l 1
 66.73828125 370.700195312 l 2
 77.0439453125 415.33984375 102.103515625 452.252929688 141.116210938 479.420898438 c 0
 180.127929688 506.588867188 227.418945312 519.594726562 282.018554688 519.594726562 c 0xec
166.247070312 68.544921875 m 0
 238.29296875 68.544921875 286.403320312 95.3203125 305.415039062 177.669921875 c 2
 317.84375 231.504882812 l 1
 204.838867188 231.504882812 l 2
 119.841796875 231.504882812 96.3701171875 188.130859375 87.6845703125 150.509765625 c 0
 78.6298828125 111.290039062 83.0927734375 68.544921875 166.247070312 68.544921875 c 0
EndSplineSet
EndChar

StartChar: b
Encoding: 98 98 68
Width: 513
GlyphClass: 2
Flags: MW
HStem: -5.1748 79.541<191.434 227.054> 439.085 80.5098<288.699 312.971> 670.316 20G<153.139 239.469 239.469 239.469>
VStem: 77.1104 86.3301 375.87 86.3291
LayerCount: 2
Fore
SplineSet
187.837890625 466.676757812 m 1
 216.540039062 493.48046875 259.490234375 519.594726562 317.908203125 519.594726562 c 0
 370.6328125 519.594726562 410.689453125 502.264648438 436.383789062 467.515625 c 0
 462.541015625 432.140625 466.180664062 378.247070312 449.881835938 307.650390625 c 2
 426.592773438 206.770507812 l 2
 410.301757812 136.20703125 382.14453125 82.369140625 340.33984375 46.9814453125 c 0
 299.310546875 12.2509765625 252.501953125 -5.1748046875 201.606445312 -5.1748046875 c 0
 149.79296875 -5.1748046875 112.09375 11.3349609375 90.310546875 44.2451171875 c 1
 87.7392578125 33.107421875 85.1689453125 21.96875 82.59765625 10.8310546875 c 2
 80.24609375 0.6455078125 l 1
 -6.083984375 0.6455078125 l 1
 153.138671875 690.31640625 l 1
 239.46875 690.31640625 l 1
 187.837890625 466.676757812 l 1
210.270507812 74.3662109375 m 0
 251.147460938 74.3662109375 312.981445312 88.599609375 341.159179688 210.651367188 c 2
 362.657226562 303.770507812 l 2
 390.158203125 422.889648438 335.348632812 439.084960938 290.59375 439.084960938 c 0
 253.612304688 439.084960938 224.651367188 426.643554688 201.036132812 402.051757812 c 0
 176.807617188 376.821289062 159.149414062 342.415039062 148.883789062 297.951171875 c 2
 128.953125 211.62109375 l 2
 119.330078125 169.9375 121.762695312 136.928710938 135.29296875 111.584960938 c 0
 148.483398438 86.8759765625 172.596679688 74.3662109375 210.270507812 74.3662109375 c 0
EndSplineSet
EndChar

StartChar: c
Encoding: 99 99 69
Width: 506
GlyphClass: 2
Flags: MW
HStem: -5.1748 79.54<179.489 207.701> 439.084 80.5098<269.432 300.733>
VStem: 61.5889 86.3311 371.021 84.3896
LayerCount: 2
Fore
SplineSet
25.9814453125 206.76953125 m 2
 49.271484375 307.649414062 l 2
 65.75 379.0234375 95.9541015625 433.337890625 141.500976562 468.350585938 c 0
 186.266601562 502.76171875 239.384765625 519.59375 299.478515625 519.59375 c 0
 357.518554688 519.59375 401.196289062 504.151367188 428.793945312 472.319335938 c 0
 456.3828125 440.497070312 463.85546875 397.583984375 451.826171875 345.479492188 c 2
 448.354492188 330.444335938 l 1
 363.96484375 330.444335938 l 1
 367.436523438 345.479492188 l 2
 374.548828125 376.290039062 370.29296875 398.55078125 355.799804688 414.442382812 c 0
 341.124023438 430.536132812 317.6640625 439.083984375 283.801757812 439.083984375 c 0
 245.5234375 439.083984375 214.702148438 428.857421875 189.903320312 409.416992188 c 0
 166.125 390.776367188 146.83203125 356.290039062 134.70703125 303.770507812 c 2
 113.208984375 210.650390625 l 2
 100.922851562 157.434570312 104.095703125 122.580078125 118.955078125 103.981445312 c 0
 134.4453125 84.5947265625 160.346679688 74.365234375 198.630859375 74.365234375 c 0
 233.181640625 74.365234375 260.916992188 82.947265625 282.9765625 99.0068359375 c 0
 304.807617188 114.8984375 319.342773438 137.159179688 326.456054688 167.969726562 c 2
 329.926757812 183.004882812 l 1
 414.31640625 183.004882812 l 1
 411.069335938 168.940429688 l 2
 399.033203125 116.807617188 371.552734375 73.876953125 328.940429688 42.0654296875 c 0
 286.409179688 10.314453125 236.104492188 -5.1748046875 179.296875 -5.1748046875 c 0
 118.606445312 -5.1748046875 72.90625 11.4541015625 43.927734375 45.548828125 c 0
 14.4150390625 80.271484375 9.361328125 134.779296875 25.9814453125 206.76953125 c 2
EndSplineSet
EndChar

StartChar: d
Encoding: 100 100 70
Width: 514
GlyphClass: 2
Flags: MW
HStem: -5.1748 79.54<161.147 183.097> 439.085 80.5098<249.478 287.743> 670.315 20G<436.378 523.678 523.678 523.678>
VStem: 61.5898 87.3008 360.35 87.2998
LayerCount: 2
Fore
SplineSet
287.125 43.8310546875 m 1
 256.352539062 16.3896484375 213.087890625 -5.1748046875 153.106445312 -5.1748046875 c 0
 102.2109375 -5.1748046875 63.4462890625 12.2509765625 38.455078125 46.9814453125 c 0
 12.9892578125 82.369140625 9.6923828125 136.20703125 25.9833984375 206.770507812 c 2
 49.2724609375 307.650390625 l 2
 65.5634765625 378.212890625 93.720703125 432.051757812 135.526367188 467.439453125 c 0
 176.590820312 502.19921875 223.725585938 519.594726562 275.229492188 519.594726562 c 0
 326.043945312 519.594726562 362.999023438 501.616210938 384.670898438 466.34765625 c 1
 436.377929688 690.315429688 l 1
 523.677734375 690.315429688 l 1
 364.455078125 0.6455078125 l 1
 277.155273438 0.6455078125 l 1
 287.125 43.8310546875 l 1
114.1796875 210.650390625 m 2
 85.908203125 88.1923828125 141.124023438 74.365234375 181.170898438 74.365234375 c 0
 219.5859375 74.365234375 249.577148438 86.7939453125 273.690429688 111.083984375 c 0
 298.477539062 136.05078125 316.076171875 169.229492188 325.86328125 211.620117188 c 2
 345.793945312 297.950195312 l 2
 356.059570312 342.415039062 354.288085938 376.821289062 341.708984375 402.051757812 c 0
 329.448242188 426.643554688 306.232421875 439.084960938 269.252929688 439.084960938 c 0
 225.44921875 439.084960938 163.29296875 423.3828125 135.677734375 303.770507812 c 2
 114.1796875 210.650390625 l 2
EndSplineSet
EndChar

StartChar: e
Encoding: 101 101 71
Width: 506
GlyphClass: 2
Flags: MW
HStem: -5.1748 79.54<180.492 205.335> 233.445 69.8398<118.471 355.754 134.594 355.754 134.594 425.961> 439.085 80.5098<266.421 294.833>
VStem: 61.5889 86.3301 367.139 84.3896
LayerCount: 2
Fore
SplineSet
118.470703125 233.4453125 m 1
 114.103515625 214.530273438 l 2
 101.517578125 160.014648438 104.625 124.14453125 119.706054688 104.897460938 c 0
 135.411132812 84.8564453125 161.384765625 74.365234375 199.598632812 74.365234375 c 0
 232.9296875 74.365234375 259.458984375 82.36328125 280.22265625 97.1533203125 c 0
 300.85546875 111.849609375 314.229492188 131.825195312 320.55859375 159.240234375 c 2
 323.58203125 172.334960938 l 1
 407.971679688 172.334960938 l 1
 404.5 157.299804688 l 2
 393.325195312 108.893554688 366.84765625 68.82421875 325.669921875 39.029296875 c 0
 284.416015625 9.1787109375 234.28515625 -5.1748046875 176.384765625 -5.1748046875 c 0
 116.775390625 -5.1748046875 72.03515625 12.7744140625 44.0029296875 49.2197265625 c 0
 15.5732421875 86.1826171875 11.162109375 142.580078125 28.2216796875 216.469726562 c 2
 47.927734375 301.830078125 l 2
 64.552734375 373.840820312 94.806640625 429.127929688 140.194335938 465.719726562 c 0
 184.922851562 501.780273438 237.244140625 519.594726562 295.598632812 519.594726562 c 0
 353.951171875 519.594726562 397.907226562 501.779296875 425.66796875 465.685546875 c 0
 453.817382812 429.0859375 458.369140625 373.823242188 441.748046875 301.830078125 c 2
 425.9609375 233.4453125 l 1
 118.470703125 233.4453125 l 1
134.706054688 303.770507812 m 2
 134.59375 303.28515625 l 1
 355.75390625 303.28515625 l 1
 357.43359375 310.559570312 l 2
 368.96484375 360.504882812 365.830078125 393.251953125 351.690429688 410.918945312 c 0
 336.91015625 429.385742188 312.655273438 439.084960938 277.01171875 439.084960938 c 0
 242.176757812 439.084960938 213.374023438 429.036132812 189.061523438 409.520507812 c 0
 165.872070312 390.90625 146.840820312 356.331054688 134.706054688 303.770507812 c 2
EndSplineSet
EndChar

StartChar: f
Encoding: 102 102 72
Width: 333
GlyphClass: 2
Flags: MW
HStem: 0.645508 21G<31.7451 119.045 31.7451 31.7451> 440.055 72.75<87.9062 133.19 71.1104 149.986 237.286 323.311 87.9062 220.49> 617.565 72.75<299.205 381.088 319.492 364.292>
VStem: 114.939 87.2998
LayerCount: 2
Fore
SplineSet
313.366210938 617.565429688 m 2
 285.04296875 617.565429688 259.045898438 607.05859375 248.37109375 560.8203125 c 2
 237.286132812 512.8046875 l 1
 340.106445312 512.8046875 l 1
 323.310546875 440.0546875 l 1
 220.490234375 440.0546875 l 1
 119.044921875 0.6455078125 l 1
 31.7451171875 0.6455078125 l 1
 133.190429688 440.0546875 l 1
 71.1103515625 440.0546875 l 1
 87.90625 512.8046875 l 1
 149.986328125 512.8046875 l 1
 160.399414062 557.91015625 l 2
 169.499023438 597.326171875 188.22265625 629.959960938 216.973632812 654.184570312 c 0
 245.833007812 678.502929688 280.584960938 690.315429688 319.4921875 690.315429688 c 2
 381.087890625 690.315429688 l 1
 364.291992188 617.565429688 l 1
 313.366210938 617.565429688 l 2
EndSplineSet
EndChar

StartChar: g
Encoding: 103 103 73
Width: 514
GlyphClass: 2
Flags: MW
HStem: -152.615 77.5996<139.635 166.321> -23.2363 20G<-14.6406 71.1328 71.1328 71.1328> 30.7139 80.5098<169.655 191.146> 442.964 79.54<250.163 288.637>
VStem: 61.5889 87.3008 69.4502 85.7734 360.35 87.2998
LayerCount: 2
Fore
SplineSet
295.616210938 80.611328125 m 1xf6
 264.353515625 52.5908203125 220.899414062 30.7138671875 161.391601562 30.7138671875 c 0
 110.49609375 30.7138671875 71.732421875 48.140625 46.740234375 82.8701171875 c 0
 21.2587890625 118.279296875 18.056640625 172.440429688 34.4912109375 243.62890625 c 2
 50.1669921875 311.529296875 l 2xfa
 66.45703125 382.0859375 94.576171875 435.7890625 136.352539062 470.870117188 c 0
 177.348632812 505.294921875 224.424804688 522.50390625 275.900390625 522.50390625 c 0
 326.991210938 522.50390625 364.0625 504.905273438 385.5703125 470.245117188 c 1
 396.291992188 516.68359375 l 1
 483.591796875 516.68359375 l 1
 375.763671875 49.62890625 l 2
 361.609375 -11.677734375 333.524414062 -61.4033203125 290.931640625 -97.96875 c 0
 248.189453125 -134.662109375 196.115234375 -152.615234375 136.526367188 -152.615234375 c 0
 83.298828125 -152.615234375 42.466796875 -140.635742188 15.2470703125 -115.631835938 c 0
 -25.7666015625 -77.9560546875 -18.802734375 -31.189453125 -14.640625 -3.236328125 c 1
 71.1328125 -3.236328125 l 1
 69.6669921875 -21.69921875 68.2490234375 -39.5712890625 89.240234375 -56.9462890625 c 0
 103.420898438 -68.6845703125 124.827148438 -75.015625 154.442382812 -75.015625 c 0
 209.005859375 -75.015625 264.680664062 -53.384765625 287.120117188 43.8095703125 c 2
 295.616210938 80.611328125 l 1xf6
122.6875 247.508789062 m 2
 94.416015625 125.051757812 149.631835938 111.223632812 189.678710938 111.223632812 c 0
 228.09375 111.223632812 258.0859375 123.653320312 282.19921875 147.943359375 c 0
 306.986328125 172.91015625 324.584960938 206.088867188 334.372070312 248.479492188 c 2
 346.688476562 301.829101562 l 2
 356.954101562 346.293945312 355.182617188 380.701171875 342.603515625 405.930664062 c 0
 330.34375 430.522460938 307.126953125 442.963867188 270.147460938 442.963867188 c 0
 226.653320312 442.963867188 164.224609375 427.422851562 136.348632812 306.678710938 c 2
 122.6875 247.508789062 l 2
EndSplineSet
EndChar

StartChar: h
Encoding: 104 104 74
Width: 524
GlyphClass: 2
Flags: MW
HStem: 0.645508 21G<-6.08496 80.2451 -6.08496 -6.08496> 439.084 79.5391<296.564 303.465> 670.315 20G<153.138 239.467 239.467 239.467>
VStem: 77.1094 86.3301 371.989 86.3301
LayerCount: 2
Fore
SplineSet
239.466796875 690.315429688 m 1
 188.875976562 471.18359375 l 1
 226.814453125 502.752929688 271.56640625 518.623046875 321.5625 518.623046875 c 0
 374.6875 518.623046875 414.03515625 502.61328125 437.494140625 469.84765625 c 0
 460.973632812 437.053710938 465.283203125 391.163085938 452.048828125 333.838867188 c 2
 375.124023438 0.64453125 l 1
 288.793945312 0.64453125 l 1
 363.478515625 324.138671875 l 2
 372.516601562 363.286132812 369.408203125 391.44921875 356.059570312 410.2890625 c 0
 342.626953125 429.247070312 320.21875 439.083984375 286.711914062 439.083984375 c 0
 253.954101562 439.083984375 226.717773438 429.159179688 203.328125 409.684570312 c 0
 180.205078125 390.431640625 163.78515625 362.5 154.9296875 324.139648438 c 2
 80.2451171875 0.6455078125 l 1
 -6.0849609375 0.6455078125 l 1
 153.137695312 690.315429688 l 1
 239.466796875 690.315429688 l 1
EndSplineSet
EndChar

StartChar: i
Encoding: 105 105 75
Width: 243
GlyphClass: 2
Flags: MW
HStem: 0.645508 21G<1.6748 88.0049 1.6748 1.6748> 492.805 20G<119.916 206.246 206.246 206.246> 572.945 107.67<156.719 222.071 131.861 246.929>
VStem: 84.8691 86.3301
LayerCount: 2
Fore
SplineSet
119.916015625 512.8046875 m 1
 206.24609375 512.8046875 l 1
 88.0048828125 0.6455078125 l 1
 1.6748046875 0.6455078125 l 1
 119.916015625 512.8046875 l 1
156.71875 680.615234375 m 1
 246.928710938 680.615234375 l 1
 222.071289062 572.9453125 l 1
 131.861328125 572.9453125 l 1
 156.71875 680.615234375 l 1
EndSplineSet
EndChar

StartChar: j
Encoding: 106 106 76
Width: 235
GlyphClass: 2
Flags: MW
HStem: -146.795 80.5098<-123.388 -85.2305 -141.976 -73.4326> 492.805 20G<112.156 198.486 198.486 198.486> 582.646 107.67<150.228 215.58 125.37 240.438>
VStem: 77.1094 86.3301
LayerCount: 2
Fore
SplineSet
150.227539062 690.315429688 m 1
 240.4375 690.315429688 l 1
 215.580078125 582.645507812 l 1
 125.370117188 582.645507812 l 1
 150.227539062 690.315429688 l 1
78.3408203125 -7.599609375 m 2
 66.28125 -59.837890625 29.04296875 -146.794921875 -85.23046875 -146.794921875 c 2
 -141.975585938 -146.794921875 l 1
 -123.387695312 -66.28515625 l 1
 -73.4326171875 -66.28515625 l 2
 -53.087890625 -66.28515625 -39.55078125 -60.95703125 -30.5458984375 -52.49609375 c 0
 -21.16796875 -43.68359375 -12.65234375 -27.80078125 -7.0927734375 -3.7197265625 c 2
 112.15625 512.8046875 l 1
 198.486328125 512.8046875 l 1
 78.3408203125 -7.599609375 l 2
EndSplineSet
EndChar

StartChar: k
Encoding: 107 107 77
Width: 496
GlyphClass: 2
Flags: MW
HStem: 0.645508 21G<-6.08496 80.2451 -6.08496 -6.08496 305.751 410.235 305.751 305.751> 492.805 20G<397.848 504.216 504.216 504.216> 670.315 20G<153.138 239.468 239.468 239.468>
VStem: 77.1094 86.3301
LayerCount: 2
Fore
SplineSet
305.750976562 0.6455078125 m 1
 217.877929688 248.39453125 l 1
 115.548828125 153.565429688 l 1
 80.2451171875 0.6455078125 l 1
 -6.0849609375 0.6455078125 l 1
 153.137695312 690.315429688 l 1
 239.467773438 690.315429688 l 1
 142.254882812 269.241210938 l 1
 397.84765625 512.8046875 l 1
 504.215820312 512.8046875 l 1
 291.051757812 315.399414062 l 1
 410.235351562 0.6455078125 l 1
 305.750976562 0.6455078125 l 1
EndSplineSet
EndChar

StartChar: l
Encoding: 108 108 78
Width: 281
GlyphClass: 2
Flags: MW
HStem: 0.645508 80.5098<114.264 200.682 150.727 182.095> 670.315 20G<153.138 239.468 239.468 239.468>
VStem: 77.1094 86.3301
LayerCount: 2
Fore
SplineSet
125.349609375 0.6455078125 m 2
 103.178710938 0.6455078125 -5.98828125 1.06640625 26.05078125 139.83984375 c 2
 153.137695312 690.315429688 l 1
 239.467773438 690.315429688 l 1
 113.276367188 143.719726562 l 2
 107.716796875 119.638671875 108.8984375 103.756835938 114.208007812 94.9443359375 c 0
 119.305664062 86.4833984375 130.381835938 81.1552734375 150.7265625 81.1552734375 c 2
 200.681640625 81.1552734375 l 1
 182.094726562 0.6455078125 l 1
 125.349609375 0.6455078125 l 2
EndSplineSet
EndChar

StartChar: m
Encoding: 109 109 79
Width: 820
GlyphClass: 2
Flags: MW
HStem: 0.644531 21G<287.824 375.124 287.824 287.824> 439.084 79.5391<289.445 336.937>
VStem: 77.1094 86.3301 371.02 87.2998 665.899 86.3301
CounterMasks: 1 38
LayerCount: 2
Fore
SplineSet
362.508789062 324.138671875 m 2
 368.202148438 348.795898438 387.162109375 439.083984375 286.711914062 439.083984375 c 0
 253.954101562 439.083984375 226.717773438 429.159179688 203.328125 409.684570312 c 0
 180.205078125 390.431640625 163.78515625 362.5 154.9296875 324.139648438 c 2
 80.2451171875 0.6455078125 l 1
 -6.0849609375 0.6455078125 l 1
 112.15625 512.805664062 l 1
 197.514648438 512.805664062 l 1
 187.883789062 471.088867188 l 1
 212.090820312 490.956054688 257.327148438 518.623046875 321.5625 518.623046875 c 0
 367.025390625 518.623046875 423.704101562 505.462890625 447.053710938 445.799804688 c 1
 492.455078125 494.115234375 548.44140625 518.623046875 612.563476562 518.623046875 c 0
 666.94140625 518.623046875 707.07421875 502.486328125 730.805664062 469.365234375 c 0
 754.499023438 436.296875 759.056640625 390.572265625 745.958007812 333.837890625 c 2
 669.034179688 0.6435546875 l 1
 582.704101562 0.6435546875 l 1
 657.388671875 324.137695312 l 2
 663.081054688 348.794921875 682.041015625 439.083007812 581.590820312 439.083007812 c 0
 547.428710938 439.083007812 519.954101562 429.077148438 497.375 409.798828125 c 0
 474.720703125 390.456054688 458.875976562 363.41015625 450.48046875 327.048828125 c 2
 375.124023438 0.64453125 l 1
 287.82421875 0.64453125 l 1
 362.508789062 324.138671875 l 2
EndSplineSet
EndChar

StartChar: n
Encoding: 110 110 80
Width: 524
GlyphClass: 2
Flags: MW
HStem: 0.645508 21G<-6.08496 80.2451 -6.08496 -6.08496> 439.084 79.54<288.926 303.465>
VStem: 77.1094 86.3301 371.989 86.3301
LayerCount: 2
Fore
SplineSet
188.00390625 471.603515625 m 1
 211.616210938 491.220703125 256.287109375 518.624023438 321.564453125 518.624023438 c 0
 375.9296875 518.624023438 415.66796875 502.487304688 438.440429688 469.239257812 c 0
 461.1015625 436.15234375 465.130859375 390.50390625 452.048828125 333.838867188 c 2
 375.124023438 0.64453125 l 1
 288.793945312 0.64453125 l 1
 363.478515625 324.138671875 l 2
 372.516601562 363.286132812 369.408203125 391.44921875 356.059570312 410.2890625 c 0
 342.626953125 429.247070312 320.21875 439.083984375 286.711914062 439.083984375 c 0
 253.954101562 439.083984375 226.717773438 429.159179688 203.328125 409.684570312 c 0
 180.205078125 390.431640625 163.78515625 362.5 154.9296875 324.139648438 c 2
 80.2451171875 0.6455078125 l 1
 -6.0849609375 0.6455078125 l 1
 112.15625 512.805664062 l 1
 197.516601562 512.805664062 l 1
 188.00390625 471.603515625 l 1
EndSplineSet
EndChar

StartChar: o
Encoding: 111 111 81
Width: 508
GlyphClass: 2
Flags: MW
HStem: -5.1748 79.54<176.639 205.502> 439.084 80.5107<267.801 296.371>
VStem: 61.5889 86.3301 371.02 86.3291
LayerCount: 2
Fore
SplineSet
25.982421875 206.770507812 m 2
 49.271484375 307.650390625 l 2
 65.74609375 379.005859375 95.765625 433.296875 140.974609375 468.318359375 c 0
 185.407226562 502.740234375 238.065429688 519.594726562 297.537109375 519.594726562 c 0
 355.772460938 519.594726562 399.842773438 502.693359375 428.028320312 468.28515625 c 0
 456.723632812 433.25390625 461.500976562 378.987304688 445.03125 307.650390625 c 2
 421.7421875 206.770507812 l 2
 405.272460938 135.432617188 375.4375 81.166015625 330.567382812 46.134765625 c 0
 286.494140625 11.7265625 234.620117188 -5.1748046875 176.384765625 -5.1748046875 c 0
 116.935546875 -5.1748046875 72.0390625 11.498046875 43.4150390625 45.5810546875 c 0
 14.2451171875 80.314453125 9.3662109375 134.797851562 25.982421875 206.770507812 c 2
336.30859375 210.649414062 m 2
 357.806640625 303.76953125 l 2
 369.946289062 356.350585938 367.030273438 390.970703125 352.72265625 409.573242188 c 0
 337.75390625 429.03515625 313.791015625 439.083984375 278.951171875 439.083984375 c 0
 242.731445312 439.083984375 213.28125 428.959960938 189.061523438 409.51953125 c 0
 165.872070312 390.905273438 146.840820312 356.331054688 134.706054688 303.770507812 c 2
 113.208007812 210.650390625 l 2
 100.916992188 157.415039062 103.938476562 122.515625 118.510742188 103.928710938 c 0
 133.75390625 84.4892578125 158.529296875 74.365234375 194.749023438 74.365234375 c 0
 229.588867188 74.365234375 258.19140625 84.4140625 282.146484375 103.875976562 c 0
 305.008789062 122.450195312 324.013671875 157.39453125 336.30859375 210.649414062 c 2
EndSplineSet
EndChar

StartChar: p
Encoding: 112 112 82
Width: 513
GlyphClass: 2
Flags: MW
HStem: -5.1748 79.5391<191.432 227.04> 439.083 79.541<282.335 312.796>
VStem: 77.1094 86.3301 375.869 86.3301
LayerCount: 2
Fore
SplineSet
187.965820312 467.237304688 m 1
 203.045898438 481.287109375 246.985351562 518.624023438 317.684570312 518.624023438 c 0
 370.381835938 518.624023438 410.462890625 501.479492188 436.245117188 467.06640625 c 0
 462.515625 431.999023438 466.1796875 378.240234375 449.881835938 307.650390625 c 2
 426.592773438 206.770507812 l 2
 410.158203125 135.587890625 381.986328125 81.5615234375 340.182617188 46.458984375 c 0
 299.22265625 12.0634765625 252.473632812 -5.1748046875 201.606445312 -5.1748046875 c 0
 149.79296875 -5.1748046875 112.092773438 11.3349609375 90.310546875 44.24609375 c 1
 46.205078125 -146.794921875 l 1
 -40.125 -146.794921875 l 1
 112.15625 512.8046875 l 1
 198.486328125 512.8046875 l 1
 187.965820312 467.237304688 l 1
210.268554688 74.3642578125 m 0
 251.145507812 74.3642578125 312.979492188 88.59765625 341.158203125 210.649414062 c 2
 362.431640625 302.797851562 l 2
 390.201171875 423.079101562 335.000976562 439.083007812 290.591796875 439.083007812 c 0
 253.610351562 439.083007812 224.650390625 426.641601562 201.034179688 402.049804688 c 0
 176.806640625 376.819335938 159.1484375 342.413085938 148.8828125 297.94921875 c 2
 128.952148438 211.619140625 l 2
 119.328125 169.935546875 121.76171875 136.926757812 135.291015625 111.583007812 c 0
 148.482421875 86.8740234375 172.594726562 74.3642578125 210.268554688 74.3642578125 c 0
EndSplineSet
EndChar

StartChar: q
Encoding: 113 113 83
Width: 514
GlyphClass: 2
Flags: MW
HStem: -5.1748 79.54<161.146 179.013> 439.085 79.54<252.536 287.742>
VStem: 61.5889 87.3008 360.35 87.2998
LayerCount: 2
Fore
SplineSet
278.884765625 518.625 m 0
 298.112304688 518.625 354.784179688 516.443359375 384.875976562 467.237304688 c 1
 395.396484375 512.8046875 l 1
 482.696289062 512.8046875 l 1
 330.415039062 -146.794921875 l 1
 243.115234375 -146.794921875 l 1
 287.220703125 44.24609375 l 1
 250.2421875 11.3349609375 204.919921875 -5.1748046875 153.106445312 -5.1748046875 c 0
 102.23828125 -5.1748046875 63.4482421875 12.0634765625 38.369140625 46.458984375 c 0
 12.775390625 81.5615234375 9.5478515625 135.587890625 25.982421875 206.770507812 c 2
 49.271484375 307.650390625 l 2
 65.5693359375 378.241210938 94.056640625 432 136.518554688 467.067382812 c 0
 178.189453125 501.48046875 226.1875 518.625 278.884765625 518.625 c 0
114.178710938 210.650390625 m 2
 85.9072265625 88.1923828125 141.123046875 74.365234375 181.169921875 74.365234375 c 0
 219.584960938 74.365234375 249.576171875 86.7939453125 273.689453125 111.083984375 c 0
 298.4765625 136.05078125 316.075195312 169.229492188 325.862304688 211.620117188 c 2
 345.79296875 297.950195312 l 2
 356.05859375 342.415039062 354.287109375 376.821289062 341.708007812 402.051757812 c 0
 329.447265625 426.643554688 306.231445312 439.084960938 269.251953125 439.084960938 c 0
 225.7578125 439.084960938 163.329101562 423.543945312 135.453125 302.799804688 c 2
 114.178710938 210.650390625 l 2
EndSplineSet
EndChar

StartChar: r
Encoding: 114 114 84
Width: 343
GlyphClass: 2
Flags: MW
HStem: 0.645508 21G<-6.08496 80.2451 -6.08496 -6.08496> 438.115 81.4795<285.837 297.299>
VStem: 77.1094 86.3301
LayerCount: 2
Fore
SplineSet
187.446289062 469.180664062 m 1
 210.026367188 489.791992188 253.765625 519.594726562 317.909179688 519.594726562 c 0
 337.190429688 519.594726562 348.151367188 517.6953125 362.953125 515.12890625 c 1
 342.470703125 426.407226562 l 1
 321.494140625 433.981445312 310.048828125 438.115234375 284.548828125 438.115234375 c 0
 253.396484375 438.115234375 226.780273438 427.661132812 202.858398438 406.559570312 c 0
 178.90234375 385.427734375 162.696289062 357.78125 154.481445312 322.200195312 c 2
 80.2451171875 0.6455078125 l 1
 -6.0849609375 0.6455078125 l 1
 112.15625 512.8046875 l 1
 197.517578125 512.8046875 l 1
 187.446289062 469.180664062 l 1
EndSplineSet
EndChar

StartChar: s
Encoding: 115 115 85
Width: 465
GlyphClass: 2
Flags: MW
HStem: -5.1748 76.6279<156.66 193.176 156.66 209.798> 444.904 74.6895<249.147 276.687>
VStem: 49.9473 84.3896 57.708 84.3906 348.708 84.3906
LayerCount: 2
Fore
SplineSet
384.7265625 151.48046875 m 0xd8
 360.87890625 48.1845703125 266.491210938 -5.1748046875 153.10546875 -5.1748046875 c 0
 97.81640625 -5.1748046875 55.404296875 8.189453125 27.212890625 35.853515625 c 0
 -1.123046875 63.6572265625 -9.86328125 101.93359375 0.9033203125 148.568359375 c 2
 4.150390625 162.6328125 l 1
 88.5400390625 162.6328125 l 1
 85.5166015625 149.538085938 l 2xe8
 79.9013671875 125.215820312 84.646484375 107.15234375 99.966796875 93.1708984375 c 0
 115.438476562 79.0498046875 139.614257812 71.453125 173.706054688 71.453125 c 0
 212.645507812 71.453125 284.028320312 80.8427734375 299.440429688 147.59765625 c 0
 304.661132812 170.213867188 301.541015625 184.745117188 292.1484375 193.9609375 c 0
 282.068359375 203.852539062 262.194335938 212.401367188 231.985351562 218.075195312 c 0
 231.934570312 218.083984375 173.329101562 228.747070312 173.329101562 228.747070312 c 2
 76.619140625 246.455078125 40.8359375 287.91796875 59.4990234375 368.758789062 c 0
 69.974609375 414.1328125 95.890625 451.573242188 136.286132812 479.02734375 c 0
 176.428710938 506.30859375 223.06640625 519.59375 275.227539062 519.59375 c 0
 331.072265625 519.59375 373.8515625 506.784179688 402.303710938 480.138671875 c 0
 430.768554688 453.481445312 440.357421875 417.654296875 430.413085938 374.579101562 c 2
 426.717773438 358.57421875 l 1
 342.328125 358.57421875 l 1
 345.3515625 371.668945312 l 2
 350.666992188 394.692382812 346.154296875 411.586914062 331.625 424.594726562 c 0
 316.953125 437.729492188 293.44921875 444.904296875 259.924804688 444.904296875 c 0
 227.061523438 444.904296875 201.16015625 437.733398438 181.499023438 424.7421875 c 0
 161.935546875 411.817382812 149.916992188 394.866210938 144.561523438 371.668945312 c 0
 138.012695312 343.301757812 143.140625 317.494140625 206.413085938 306.030273438 c 2
 267.791015625 294.381835938 l 2
 315.1328125 285.147460938 349.1796875 270.09765625 369.111328125 247.85546875 c 0
 389.45703125 225.151367188 394.146484375 192.279296875 384.7265625 151.48046875 c 0xd8
EndSplineSet
EndChar

StartChar: t
Encoding: 116 116 86
Width: 346
GlyphClass: 2
Flags: MW
HStem: 0.645508 78.5703<140.536 238.064 189.079 219.926> 440.055 72.75<72.3857 132.221 55.5898 149.017 72.3857 219.521 236.316 330.101>
VStem: 113.97 87.3008
LayerCount: 2
Fore
SplineSet
149.31640625 135.9609375 m 0
 138.841796875 90.591796875 159.263671875 79.2158203125 189.079101562 79.2158203125 c 2
 238.064453125 79.2158203125 l 1
 219.92578125 0.6455078125 l 1
 160.270507812 0.6455078125 l 2
 120.80078125 0.6455078125 91.1455078125 12.2216796875 73.392578125 36.236328125 c 0
 55.67578125 60.19921875 52.10546875 93.0380859375 61.3427734375 133.049804688 c 2
 132.220703125 440.0546875 l 1
 55.58984375 440.0546875 l 1
 72.3857421875 512.8046875 l 1
 149.016601562 512.8046875 l 1
 174.143554688 621.64453125 l 1
 270.791015625 662.131835938 l 1
 236.31640625 512.8046875 l 1
 346.896484375 512.8046875 l 1
 330.100585938 440.0546875 l 1
 219.520507812 440.0546875 l 1
 196.119140625 338.690429688 172.717773438 237.325195312 149.31640625 135.9609375 c 0
EndSplineSet
EndChar

StartChar: u
Encoding: 117 117 87
Width: 524
GlyphClass: 2
Flags: MW
HStem: -5.1748 79.54<181.69 221.423 181.69 261.853> 492.805 20G<112.156 198.486 198.486 198.486 407.036 493.366 493.366 493.366>
VStem: 77.1094 86.3301 371.989 86.3301
LayerCount: 2
Fore
SplineSet
419.12890625 191.25 m 2
 398.827148438 103.311523438 341.5 -5.1748046875 182.206054688 -5.1748046875 c 0
 120.956054688 -5.1748046875 76.81640625 11.4013671875 52.2646484375 46.0546875 c 0
 27.8388671875 80.529296875 23.658203125 129.478515625 37.9189453125 191.25 c 2
 112.15625 512.8046875 l 1
 198.486328125 512.8046875 l 1
 126.264648438 199.98046875 l 2
 116.08984375 155.90625 117.455078125 124.329101562 128.258789062 104.342773438 c 0
 138.650390625 85.12109375 161.841796875 74.365234375 201.5390625 74.365234375 c 0
 241.306640625 74.365234375 269.474609375 84.8740234375 288.551757812 103.486328125 c 0
 308.243164062 122.696289062 324.325195312 154.544921875 334.814453125 199.98046875 c 2
 407.036132812 512.8046875 l 1
 493.366210938 512.8046875 l 1
 419.12890625 191.25 l 2
EndSplineSet
EndChar

StartChar: v
Encoding: 118 118 88
Width: 443
GlyphClass: 2
Flags: MW
HStem: 0.645508 21G<107.419 181.111 107.419 107.419> 492.805 20G<48.8789 142.357 142.357 142.357 383.625 476.134 476.134 476.134>
LayerCount: 2
Fore
SplineSet
48.87890625 512.8046875 m 1
 142.357421875 512.8046875 l 1
 177.118164062 140.850585938 l 1
 383.625 512.8046875 l 1
 476.133789062 512.8046875 l 1
 181.111328125 0.6455078125 l 1
 107.418945312 0.6455078125 l 1
 48.87890625 512.8046875 l 1
EndSplineSet
EndChar

StartChar: w
Encoding: 119 119 89
Width: 712
GlyphClass: 2
Flags: MW
HStem: 0.645508 21G<86.7568 160.984 86.7568 86.7568 393.343 468.522 393.343 393.343> 492.805 20G<49.4307 142.672 142.672 142.672 360.246 430.547 430.547 430.547 649.108 742.331 742.331 742.331>
LayerCount: 2
Fore
SplineSet
49.4306640625 512.8046875 m 1
 142.671875 512.8046875 l 1
 161.045898438 144.743164062 l 1
 360.24609375 512.8046875 l 1
 430.546875 512.8046875 l 1
 459.809570312 144.60546875 l 1
 649.108398438 512.8046875 l 1
 742.331054688 512.8046875 l 1
 468.522460938 0.6455078125 l 1
 393.342773438 0.6455078125 l 1
 362.749023438 373.331054688 l 1
 160.984375 0.6455078125 l 1
 86.7568359375 0.6455078125 l 1
 49.4306640625 512.8046875 l 1
EndSplineSet
EndChar

StartChar: x
Encoding: 120 120 90
Width: 425
GlyphClass: 2
Flags: MW
HStem: 0.645508 21G<-73.2598 21.4775 -73.2598 -73.2598 249.616 344.304 249.616 249.616> 492.805 20G<54.7314 149.391 149.391 149.391 358.083 453.105 453.105 453.105>
LayerCount: 2
Fore
SplineSet
249.616210938 0.6455078125 m 1
 178.372070312 188.14453125 l 1
 21.4775390625 0.6455078125 l 1
 -73.259765625 0.6455078125 l 1
 148.99609375 264.014648438 l 1
 54.7314453125 512.8046875 l 1
 149.390625 512.8046875 l 1
 215.212890625 339.966796875 l 1
 358.083007812 512.8046875 l 1
 453.10546875 512.8046875 l 1
 242.66015625 267.807617188 l 1
 344.303710938 0.6455078125 l 1
 249.616210938 0.6455078125 l 1
EndSplineSet
EndChar

StartChar: y
Encoding: 121 121 91
Width: 443
GlyphClass: 2
Flags: MW
HStem: -146.795 80.5098<-29.2969 -8.60059 -47.8848 5.1377> 492.805 20G<48.8594 142.317 142.317 142.317 385.605 476.158 476.158 476.158>
LayerCount: 2
Fore
SplineSet
-8.6005859375 -146.794921875 m 2
 -47.884765625 -146.794921875 l 1
 -29.296875 -66.28515625 l 1
 5.1376953125 -66.28515625 l 2
 27.8076171875 -66.28515625 44.341796875 -61.5576171875 55.400390625 -54.0048828125 c 0
 67.064453125 -46.0390625 79.4208984375 -32.0283203125 91.6376953125 -11.1318359375 c 2
 106.413085938 15.564453125 l 1
 48.859375 512.8046875 l 1
 142.317382812 512.8046875 l 1
 178.865234375 144.21484375 l 1
 385.60546875 512.8046875 l 1
 476.158203125 512.8046875 l 1
 153.309570312 -45.90625 l 2
 112.772460938 -115.341796875 63.2109375 -146.794921875 -8.6005859375 -146.794921875 c 2
EndSplineSet
EndChar

StartChar: z
Encoding: 122 122 92
Width: 459
GlyphClass: 2
Flags: MW
HStem: 0.645508 81.4795<100.474 326.625> 431.325 81.4795<77.8242 444.866 96.6357 320.93>
LayerCount: 2
Fore
SplineSet
77.82421875 431.325195312 m 1
 96.6357421875 512.8046875 l 1
 444.866210938 512.8046875 l 1
 427.67578125 438.34765625 l 1
 100.473632812 82.125 l 1
 345.435546875 82.125 l 1
 326.625 0.6455078125 l 1
 -21.60546875 0.6455078125 l 1
 -4.4208984375 75.0830078125 l 1
 320.9296875 431.325195312 l 1
 77.82421875 431.325195312 l 1
EndSplineSet
EndChar

StartChar: braceleft
Encoding: 123 123 93
Width: 346
GlyphClass: 2
Flags: MW
HStem: -80.835 79.54<106.722 213.656 169.521 195.293> 289.97 82.8906<45.1904 64.3271> 659.275 79.54<310.609 384.524 325.84 366.161>
VStem: 129.489 89.2402
LayerCount: 2
Fore
SplineSet
136.608398438 -80.8349609375 m 2
 76.8349609375 -80.8349609375 33.7548828125 -53.6689453125 54.46875 36.0498046875 c 2
 97.2412109375 221.3203125 l 2
 103.418945312 248.078125 102.129882812 265.336914062 96.435546875 274.317382812 c 0
 87.2177734375 288.856445312 65.0869140625 289.442382812 45.1904296875 289.969726562 c 1
 64.3271484375 372.860351562 l 1
 84.466796875 373.387695312 106.869140625 373.973632812 122.799804688 388.512695312 c 0
 132.640625 397.493164062 141.8984375 414.751953125 148.076171875 441.509765625 c 2
 189.729492188 621.9296875 l 2
 198.546875 660.12109375 224.313476562 738.815429688 325.83984375 738.815429688 c 2
 384.524414062 738.815429688 l 1
 366.161132812 659.275390625 l 1
 322.026367188 659.275390625 l 2
 299.192382812 659.275390625 285.768554688 651.379882812 278.521484375 619.990234375 c 2
 238.436523438 446.360351562 l 2
 223.405273438 381.252929688 203.931640625 350.712890625 167.31640625 331.071289062 c 1
 194.02734375 312.677734375 200.969726562 284.07421875 185.362304688 216.469726562 c 2
 144.15625 37.990234375 l 2
 136.909179688 6.59765625 146.690429688 -1.294921875 169.521484375 -1.294921875 c 2
 213.65625 -1.294921875 l 1
 195.29296875 -80.8349609375 l 1
 136.608398438 -80.8349609375 l 2
EndSplineSet
Substitution2: "'rtla' Right to Left Alternates lookup 0 subtable" braceright
EndChar

StartChar: bar
Encoding: 124 124 94
Width: 310
GlyphClass: 2
Flags: MW
VStem: 118.819 85.3604
LayerCount: 2
Fore
SplineSet
206.044921875 738.815429688 m 1
 291.405273438 738.815429688 l 1
 102.397460938 -79.865234375 l 1
 17.037109375 -79.865234375 l 1
 206.044921875 738.815429688 l 1
EndSplineSet
EndChar

StartChar: braceright
Encoding: 125 125 95
Width: 346
GlyphClass: 2
Flags: MW
HStem: -80.835 79.54<-22.0537 18.2686 -40.417 22.082> 289.97 82.8906<280.9 300.037> 659.275 79.54<148.814 174.587 130.451 207.5>
VStem: 140.159 89.2402
LayerCount: 2
Fore
SplineSet
154.37890625 36.0498046875 m 2
 145.561523438 -2.1416015625 119.794921875 -80.8349609375 18.2685546875 -80.8349609375 c 2
 -40.4169921875 -80.8349609375 l 1
 -22.0537109375 -1.294921875 l 1
 22.08203125 -1.294921875 l 2
 44.916015625 -1.294921875 58.3388671875 6.599609375 65.5859375 37.990234375 c 2
 106.791992188 216.469726562 l 2
 122.403320312 284.091796875 142.55859375 312.682617188 177.751953125 331.071289062 c 1
 150.197265625 350.719726562 144.83984375 381.274414062 159.866210938 446.360351562 c 2
 199.951171875 619.990234375 l 2
 207.19921875 651.3828125 197.41796875 659.275390625 174.586914062 659.275390625 c 2
 130.451171875 659.275390625 l 1
 148.814453125 738.815429688 l 1
 207.5 738.815429688 l 2
 267.2734375 738.815429688 310.352539062 711.649414062 289.639648438 621.9296875 c 2
 247.986328125 441.509765625 l 2
 241.80859375 414.751953125 243.09765625 397.493164062 248.791015625 388.512695312 c 0
 258.009765625 373.973632812 280.140625 373.387695312 300.037109375 372.860351562 c 1
 280.900390625 289.969726562 l 1
 260.760742188 289.442382812 238.358398438 288.856445312 222.426757812 274.317382812 c 0
 212.586914062 265.336914062 203.329101562 248.078125 197.151367188 221.3203125 c 2
 154.37890625 36.0498046875 l 2
EndSplineSet
Substitution2: "'rtla' Right to Left Alternates lookup 0 subtable" braceleft
EndChar

StartChar: asciitilde
Encoding: 126 126 96
Width: 515
GlyphClass: 2
Flags: MW
HStem: 206.285 82.4502<317.479 318.737> 268.365 81.4795<166.78 168.054>
LayerCount: 2
Fore
SplineSet
160.966796875 268.365234375 m 0x40
 128.876953125 268.365234375 110.583984375 249.1328125 75.458984375 206.25 c 1
 20.44921875 245.473632812 l 1
 35.0986328125 266.78515625 58.4658203125 300.779296875 98.341796875 325.166992188 c 0
 125.0859375 341.5234375 152.811523438 349.844726562 180.748046875 349.844726562 c 0x40
 208.05078125 349.844726562 225.596679688 344.392578125 267.98828125 314.469726562 c 0
 303.236328125 290.713867188 310.20703125 288.735351562 324.75 288.735351562 c 0
 359.279296875 288.735351562 380.625976562 313.05078125 411.264648438 351.034179688 c 1
 466.103515625 310.40625 l 1
 450.948242188 289.3515625 427.1484375 256.28515625 387.360351562 231.5078125 c 0
 360.53515625 214.803710938 332.729492188 206.28515625 304.745117188 206.28515625 c 0x80
 279.439453125 206.28515625 256.927734375 211.2890625 217.19921875 241.8828125 c 0
 185.8671875 265.939453125 175.141601562 268.365234375 160.966796875 268.365234375 c 0x40
EndSplineSet
EndChar

StartChar: exclamdown
Encoding: 161 161 98
Width: 248
GlyphClass: 2
Flags: MW
HStem: 401.255 111.55<112.156 194.072 86.4023 219.826>
VStem: 77.1094 107.67 93.9023 74.084
LayerCount: 2
Fore
SplineSet
112.15625 512.8046875 m 1xc0
 219.826171875 512.8046875 l 1
 194.072265625 401.254882812 l 1
 86.40234375 401.254882812 l 1
 112.15625 512.8046875 l 1xc0
159.140625 322.684570312 m 1xa0
 64.947265625 -146.794921875 l 1
 -37.52734375 -146.794921875 l 1
 85.056640625 322.684570312 l 1
 159.140625 322.684570312 l 1xa0
EndSplineSet
EndChar

StartChar: cent
Encoding: 162 162 99
Width: 506
GlyphClass: 2
Flags: MW
HStem: -3.52637 80.1299<207.321 225.821> 436.883 81.0635<308.998 327.713>
VStem: 61.5889 86.3301 214.851 76.6289 371.02 84.3896
LayerCount: 2
Fore
SplineSet
225.821289062 76.603515625 m 1
 256.796875 81.2353515625 310.594726562 99.271484375 326.455078125 167.969726562 c 2
 329.92578125 183.004882812 l 1
 414.315429688 183.004882812 l 1
 411.068359375 168.940429688 l 2
 399.666015625 119.55078125 374.517578125 78.291015625 335.75 46.794921875 c 0
 299.387695312 17.2529296875 256.201171875 0.6396484375 207.321289062 -3.5263671875 c 1
 185.890625 -96.3544921875 l 1
 109.260742188 -96.3544921875 l 1
 131.3203125 -0.8037109375 l 1
 87.962890625 7.07421875 55.640625 26.9970703125 35.548828125 59.005859375 c 0
 13.8408203125 93.587890625 11.3251953125 143.287109375 25.982421875 206.770507812 c 2
 49.271484375 307.650390625 l 2
 63.9248046875 371.120117188 89.2421875 420.926757812 126.602539062 455.814453125 c 0
 161.310546875 488.225585938 203.083984375 508.328125 250.682617188 516.2109375 c 1
 272.290039062 609.8046875 l 1
 348.919921875 609.8046875 l 1
 327.712890625 517.946289062 l 1
 374.668945312 513.780273438 410.184570312 497.16796875 432.90625 467.625976562 c 0
 457.130859375 436.12890625 463.228515625 394.869140625 451.826171875 345.48046875 c 2
 448.354492188 330.4453125 l 1
 363.96484375 330.4453125 l 1
 367.436523438 345.481445312 l 2
 375.059570312 378.501953125 374.1796875 426.71875 308.998046875 436.8828125 c 1
 225.821289062 76.603515625 l 1
231.20703125 431.849609375 m 1
 170.481445312 412.060546875 147.18359375 357.814453125 134.706054688 303.770507812 c 2
 113.208007812 210.651367188 l 2
 100.823242188 157.008789062 98.05859375 100.059570312 150.280273438 81.3173828125 c 1
 231.20703125 431.849609375 l 1
EndSplineSet
EndChar

StartChar: sterling
Encoding: 163 163 100
Width: 440
GlyphClass: 2
Flags: MW
HStem: 0.645508 86.3291<107.4 332.445> 281.945 84.3896<193.771 309.118 174.288 328.601> 613.686 86.3301<312.207 344.481>
VStem: 100.39 92.1494 321.549 90.21
LayerCount: 2
Fore
SplineSet
150.662109375 179.610351562 m 2
 140.614257812 136.091796875 125.602539062 108.294921875 107.400390625 86.974609375 c 1
 352.375976562 86.974609375 l 1
 332.4453125 0.6455078125 l 1
 -26.455078125 0.6455078125 l 1
 -8.916015625 76.615234375 l 1
 15.3408203125 89.8642578125 41.333984375 105.203125 56.4970703125 170.880859375 c 2
 82.138671875 281.946289062 l 1
 18.1181640625 281.946289062 l 1
 37.6005859375 366.3359375 l 1
 101.62109375 366.3359375 l 1
 137.788085938 522.991210938 l 2
 150.263671875 577.02734375 173.8984375 620.668945312 209.5390625 652.462890625 c 0
 245.23046875 684.302734375 288.131835938 700.015625 336.282226562 700.015625 c 0
 381.706054688 700.015625 416.209960938 686.076171875 437.998046875 657.74609375 c 0
 459.88671875 629.2890625 464.68359375 590.244140625 453.635742188 542.390625 c 2
 451.284179688 532.206054688 l 1
 361.07421875 532.206054688 l 1
 363.42578125 542.390625 l 2
 368.401367188 563.942382812 373.58203125 613.685546875 315.380859375 613.685546875 c 0
 290.46875 613.685546875 248.911132812 605.17578125 232.400390625 533.66015625 c 2
 193.770507812 366.334960938 l 1
 328.600585938 366.334960938 l 1
 309.118164062 281.9453125 l 1
 174.288085938 281.9453125 l 1
 150.662109375 179.610351562 l 2
EndSplineSet
EndChar

StartChar: currency
Encoding: 164 164 101
Width: 613
GlyphClass: 2
Flags: MW
HStem: 126.745 79.54<258.436 277.458> 449.755 79.54<329.794 349.061>
VStem: 110.088 82.4492 430.188 82.4521
LayerCount: 2
Fore
SplineSet
102.473632812 328.020507812 m 0
 111.913085938 368.905273438 131.018554688 405.623046875 159.64453125 437.4921875 c 1
 106.829101562 507.444335938 l 1
 179.455078125 567.487304688 l 1
 233.666015625 498.2890625 l 1
 270.310546875 518.975585938 309.372070312 529.294921875 350.216796875 529.294921875 c 0
 390.487304688 529.294921875 424.456054688 518.959960938 451.485351562 498.291015625 c 1
 537.548828125 567.41015625 l 1
 583.650390625 507.469726562 l 1
 498.46484375 438.262695312 l 1
 512.028320312 404.853515625 514.237304688 367.922851562 505.025390625 328.020507812 c 0
 495.713867188 287.685546875 476.599609375 251.036132812 447.907226562 218.700195312 c 1
 501.990234375 149.666992188 l 1
 427.979492188 88.5029296875 l 1
 374.020507812 158.658203125 l 1
 336.766601562 137.408203125 297.635742188 126.745117188 257.280273438 126.745117188 c 0
 216.3515625 126.745117188 181.815429688 137.392578125 154.310546875 158.66015625 c 1
 69.0537109375 89.39453125 l 1
 24.4833984375 150.661132812 l 1
 108.323242188 218.775390625 l 1
 95.232421875 251.618164062 93.28515625 288.21875 102.473632812 328.020507812 c 0
422.573242188 328.020507812 m 0
 430.6953125 363.202148438 426 391.715820312 408.685546875 415.004882812 c 0
 391.390625 438.267578125 366.268554688 449.754882812 331.852539062 449.754882812 c 0
 297.4375 449.754882812 267.01171875 438.267578125 238.974609375 415.004882812 c 0
 210.90625 391.715820312 193.044921875 363.202148438 184.922851562 328.020507812 c 0
 176.80078125 292.837890625 181.49609375 264.32421875 198.810546875 241.03515625 c 0
 216.10546875 217.772460938 241.228515625 206.28515625 275.643554688 206.28515625 c 0
 310.059570312 206.28515625 340.484375 217.772460938 368.521484375 241.03515625 c 0
 396.58984375 264.32421875 414.451171875 292.837890625 422.573242188 328.020507812 c 0
EndSplineSet
EndChar

StartChar: yen
Encoding: 165 165 102
Width: 457
GlyphClass: 2
Flags: MW
HStem: 0.645508 21G<106.435 197.615 106.435 106.435> 150.995 74.6895<20.6494 141.146 3.40625 158.389 249.569 369.096 20.6494 232.326> 270.305 75.6602<48.418 162.068 48.418 168.69 30.9512 162.068 301.387 396.641> 670.315 20G<84.4277 186.593 186.593 186.593 435.883 537.057 537.057 537.057>
VStem: 189.629 91.1807
LayerCount: 2
Fore
SplineSet
232.326171875 150.995117188 m 1
 197.615234375 0.6455078125 l 1
 106.434570312 0.6455078125 l 1
 141.145507812 150.995117188 l 1
 3.40625 150.995117188 l 1
 20.6494140625 225.684570312 l 1
 158.388671875 225.684570312 l 1
 168.690429688 270.3046875 l 1
 30.951171875 270.3046875 l 1
 48.41796875 345.96484375 l 1
 162.068359375 345.96484375 l 1
 84.427734375 690.315429688 l 1
 186.592773438 690.315429688 l 1
 242.676757812 391.3515625 l 1
 435.8828125 690.315429688 l 1
 537.056640625 690.315429688 l 1
 301.38671875 345.96484375 l 1
 414.107421875 345.96484375 l 1
 396.640625 270.3046875 l 1
 259.87109375 270.3046875 l 1
 249.569335938 225.684570312 l 1
 386.338867188 225.684570312 l 1
 369.095703125 150.995117188 l 1
 232.326171875 150.995117188 l 1
EndSplineSet
EndChar

StartChar: brokenbar
Encoding: 166 166 103
Width: 310
GlyphClass: 2
Flags: MW
VStem: 118.819 85.3604
LayerCount: 2
Fore
SplineSet
206.044921875 738.815429688 m 1
 291.405273438 738.815429688 l 1
 207.874023438 377.004882812 l 1
 122.513671875 377.004882812 l 1
 206.044921875 738.815429688 l 1
101.015625 283.884765625 m 1
 186.375976562 283.884765625 l 1
 102.397460938 -79.865234375 l 1
 17.037109375 -79.865234375 l 1
 101.015625 283.884765625 l 1
EndSplineSet
EndChar

StartChar: section
Encoding: 167 167 104
Width: 514
GlyphClass: 2
Flags: MW
HStem: -162.315 82.4502<128.867 164.367> 631.146 82.4502<322.546 347.353>
VStem: 81.957 90.208 94.5654 87.2998 103.298 90.2109 337.066 90.2129 352.586 90.2129
LayerCount: 2
Fore
SplineSet
140.106445312 -162.315429688 m 0xc4
 96.2861328125 -162.315429688 -24.3662109375 -154.147460938 12.826171875 6.9501953125 c 2
 15.177734375 17.134765625 l 1
 102.477539062 17.134765625 l 1
 100.125976562 6.9501953125 l 2xd4
 87.5771484375 -47.4052734375 99.5654296875 -79.865234375 158.16796875 -79.865234375 c 0
 190.563476562 -79.865234375 237.9453125 -68.3388671875 252.639648438 -4.6904296875 c 0
 259.026367188 22.97265625 255.395507812 42.677734375 243.032226562 56.58203125 c 0
 230.424804688 70.76171875 203.649414062 83.83984375 162.1171875 94.015625 c 0
 110.411132812 106.307617188 31.1943359375 141.124023438 62.6982421875 277.58203125 c 0xe4
 71.2119140625 314.459960938 99.0634765625 396.225585938 182.99609375 434.10546875 c 1
 152.641601562 456.870117188 133.23828125 490.6875 149.206054688 559.8515625 c 0
 159.452148438 604.23046875 183.047851562 641.658203125 219.572265625 670.485351562 c 0
 256.181640625 699.37890625 298.885742188 713.596679688 346.20703125 713.596679688 c 0
 398.392578125 713.596679688 436.045898438 699.450195312 456.551757812 669.55078125 c 0
 476.758789062 640.084960938 480.538085938 600.100585938 469.23046875 551.122070312 c 2
 466.87890625 540.936523438 l 1
 379.579101562 540.936523438 l 1
 381.930664062 551.122070312 l 2
 397.001953125 616.403320312 366.563476562 631.146484375 328.141601562 631.146484375 c 0
 314.315429688 631.146484375 255.62890625 630.07421875 239.416992188 559.850585938 c 0
 233.162109375 532.758789062 236.438476562 513.252929688 247.95703125 499.359375 c 0
 259.586914062 485.33203125 285.180664062 472.266601562 325.374023438 462.1015625 c 0
 383.514648438 448.264648438 454.248046875 410.591796875 423.540039062 277.580078125 c 0xca
 407.424804688 207.778320312 364.19140625 149.483398438 307.475585938 123.26171875 c 1
 342.201171875 98.564453125 357.828125 60.1748046875 342.405273438 -6.630859375 c 0
 331.719726562 -52.9111328125 307.432617188 -91.2705078125 269.813476562 -119.8515625 c 0
 232.311523438 -148.342773438 188.627929688 -162.315429688 140.106445312 -162.315429688 c 0xc4
267.450195312 380.883789062 m 0
 234.083007812 380.883789062 173.725585938 367.76171875 152.90625 277.580078125 c 0
 145.083984375 243.698242188 147.913085938 218.866210938 159.826171875 201.529296875 c 0
 171.78125 184.1328125 191.155273438 175.245117188 219.975585938 175.245117188 c 0
 248.80078125 175.245117188 272.069335938 184.129882812 291.697265625 201.4609375 c 0
 311.322265625 218.790039062 325.49609375 243.663085938 333.326171875 277.579101562 c 0xe2
 338.548828125 300.200195312 354.66015625 380.883789062 267.450195312 380.883789062 c 0
321.9140625 696.619140625 m 1024
EndSplineSet
EndChar

StartChar: dieresis
Encoding: 168 168 105
Width: 502
GlyphClass: 2
Flags: MW
HStem: 561.305 103.79<196.785 266.913 172.823 290.875 196.785 338.693 362.655 432.783>
VStem: 126.579 94.0898 292.449 94.0898
LayerCount: 2
Fore
SplineSet
196.78515625 665.094726562 m 1
 290.875 665.094726562 l 1
 266.913085938 561.3046875 l 1
 172.823242188 561.3046875 l 1
 196.78515625 665.094726562 l 1
362.655273438 665.094726562 m 1
 456.745117188 665.094726562 l 1
 432.783203125 561.3046875 l 1
 338.693359375 561.3046875 l 1
 362.655273438 665.094726562 l 1
EndSplineSet
EndChar

StartChar: copyright
Encoding: 169 169 106
Width: 816
GlyphClass: 2
Flags: MW
HStem: -9.05469 71.7783<293.393 422.621 263.062 430.512> 144.204 66.9307<369.476 394.761 369.476 410.891> 474.004 67.9004<434.979 475.98> 618.536 71.7783<454.855 550.933>
VStem: 68.3789 75.6602 262.378 72.75 491.299 70.8105 681.419 75.6592
LayerCount: 2
Fore
SplineSet
752.375 340.62890625 m 0
 705.236328125 136.451171875 534.212890625 -9.0546875 326.810546875 -9.0546875 c 0
 259.975585938 -9.0546875 203.665039062 5.7109375 158.416992188 35.4423828125 c 0
 113.243164062 65.1240234375 82.1005859375 106.716796875 65.34375 159.696289062 c 0
 48.5654296875 212.73828125 48.107421875 273.196289062 63.67578125 340.62890625 c 0
 79.244140625 408.0625 107.6171875 468.51953125 148.88671875 521.5625 c 0
 190.106445312 574.541015625 240.454101562 616.134765625 299.333007812 645.817382812 c 0
 358.309570312 675.547851562 421.4375 690.314453125 488.272460938 690.314453125 c 0
 691.534179688 690.314453125 800.116210938 547.420898438 752.375 340.62890625 c 0
343.381835938 62.7236328125 m 0
 501.860351562 62.7236328125 636.663085938 167.140625 676.715820312 340.629882812 c 0
 716.772460938 514.131835938 630.165039062 618.536132812 471.700195312 618.536132812 c 0
 311.047851562 618.536132812 178.690429688 511.092773438 139.3359375 340.629882812 c 0
 99.978515625 170.155273438 182.741210938 62.7236328125 343.381835938 62.7236328125 c 0
542.625976562 276.610351562 m 2
 524.112304688 196.418945312 455.709960938 144.204101562 366.072265625 144.204101562 c 0
 320.254882812 144.204101562 285.42578125 156.791992188 263.311523438 182.801757812 c 0
 240.6484375 209.456054688 237.02734375 251.194335938 249.612304688 305.708007812 c 2
 266.856445312 380.3984375 l 2
 279.44140625 434.912109375 302.334960938 476.651367188 337.3046875 503.306640625 c 0
 371.428710938 529.31640625 412.0703125 541.904296875 457.887695312 541.904296875 c 0
 501.676757812 541.904296875 534.931640625 530.362304688 555.926757812 506.28515625 c 0
 576.942382812 482.186523438 582.487304688 449.2734375 573.3046875 409.499023438 c 2
 569.833984375 394.463867188 l 1
 499.0234375 394.463867188 l 1
 502.046875 407.55859375 l 2
 507.810546875 432.525390625 507.80859375 474.00390625 444.15234375 474.00390625 c 0
 416.173828125 474.00390625 394.486328125 466.650390625 377.594726562 453.150390625 c 0
 361.59375 440.36328125 347.786132812 415.828125 338.934570312 377.489257812 c 2
 323.034179688 308.619140625 l 2
 314.025390625 269.596679688 316.46875 244.737304688 326.53515625 231.98828125 c 0
 337.1953125 218.48828125 355.486328125 211.134765625 383.46484375 211.134765625 c 0
 406.056640625 211.134765625 458.23828125 217.801757812 472.040039062 277.580078125 c 2
 475.287109375 291.645507812 l 1
 546.09765625 291.645507812 l 1
 542.625976562 276.610351562 l 2
EndSplineSet
EndChar

StartChar: ordfeminine
Encoding: 170 170 107
Width: 336
GlyphClass: 2
Flags: MW
HStem: 413.865 71.7803<170.154 175.576> 551.605 64.0195<185.331 269.753 210.098 254.975> 678.675 67.9004<230.469 259.011>
VStem: 38.3086 80.5107 46.0693 78.5703 210.969 82.4502
LayerCount: 2
Fore
SplineSet
255.849609375 746.575195312 m 0xec
 303.701171875 746.575195312 378.96484375 731.541992188 356.122070312 632.599609375 c 2
 306.51953125 417.745117188 l 1
 226.009765625 417.745117188 l 1
 229.626953125 433.415039062 l 1
 212.740234375 422.346679688 191.51171875 413.865234375 159.639648438 413.865234375 c 0
 126.234375 413.865234375 100.918945312 422.633789062 85.7109375 441.446289062 c 0
 70.5234375 460.233398438 67.2685546875 486.439453125 74.5869140625 518.139648438 c 0xf4
 81.412109375 547.703125 97.484375 572.357421875 122.44140625 589.953125 c 0
 147.216796875 607.420898438 176.778320312 615.625 210.09765625 615.625 c 2
 269.752929688 615.625 l 1
 274.34375 635.509765625 l 2
 278.946289062 655.4453125 277.84765625 678.674804688 240.173828125 678.674804688 c 0
 220.764648438 678.674804688 196.624023438 672.798828125 190.254882812 645.209960938 c 2
 187.455078125 633.084960938 l 1
 108.884765625 633.084960938 l 1
 111.684570312 645.209960938 l 2
 124.806640625 702.051757812 176.001953125 746.575195312 255.849609375 746.575195312 c 0xec
188.8203125 485.645507812 m 0
 224.138671875 485.645507812 242.815429688 498.938476562 251.0546875 534.629882812 c 2
 254.974609375 551.60546875 l 1
 205.01953125 551.60546875 l 2
 165.641601562 551.60546875 158.345703125 532.209960938 155.321289062 519.110351562 c 0
 151.8828125 504.212890625 151.48828125 485.645507812 188.8203125 485.645507812 c 0
283.430664062 832.419921875 m 1024
EndSplineSet
EndChar

StartChar: guillemotleft
Encoding: 171 171 108
Width: 481
GlyphClass: 2
Flags: W
LayerCount: 2
Fore
SplineSet
266.485351562 483.82421875 m 1
 241.198242188 374.295898438 l 1
 110.887695312 266.91015625 l 1
 191.614257812 159.5234375 l 1
 166.328125 49.99609375 l 1
 2.779296875 266.91015625 l 1
 266.485351562 483.82421875 l 1
443.99609375 483.82421875 m 1
 418.708984375 374.295898438 l 1
 288.397460938 266.91015625 l 1
 369.125 159.5234375 l 1
 343.838867188 49.99609375 l 1
 180.2890625 266.91015625 l 1
 443.99609375 483.82421875 l 1
EndSplineSet
EndChar

StartChar: logicalnot
Encoding: 172 172 109
Width: 515
GlyphClass: 2
Flags: MW
HStem: 256.725 80.5107<53.1934 355.675 34.6055 461.562>
VStem: 379.749 87.2998
LayerCount: 2
Fore
SplineSet
355.674804688 256.724609375 m 1
 34.60546875 256.724609375 l 1
 53.193359375 337.235351562 l 1
 461.5625 337.235351562 l 1
 412.966796875 126.745117188 l 1
 325.666992188 126.745117188 l 1
 355.674804688 256.724609375 l 1
EndSplineSet
EndChar

StartChar: uni00AD
Encoding: 173 173 110
Width: 398
GlyphClass: 2
Flags: MW
HStem: 305.225 84.3906<68.1953 335.832 48.7119 355.315>
VStem: 61.5889 287.12
LayerCount: 2
Fore
SplineSet
68.1953125 389.615234375 m 1
 355.315429688 389.615234375 l 1
 335.83203125 305.224609375 l 1
 48.7119140625 305.224609375 l 1
 68.1953125 389.615234375 l 1
EndSplineSet
EndChar

StartChar: registered
Encoding: 174 174 111
Width: 539
GlyphClass: 2
Flags: MW
HStem: 297.465 50.4404<251.012 292.278 251.012 314.928> 466.245 51.4102<287.875 298.196 276.007 321.34> 557.425 51.4102<297.057 330.521 297.057 297.057> 638.905 50.4395<318.195 378.077>
VStem: 81.959 53.3506 196.419 55.29 309.909 54.3203 415.64 52.3799
LayerCount: 2
Fore
SplineSet
259.834960938 297.46484375 m 0
 149.131835938 297.46484375 86.8232421875 382.068359375 112.638671875 493.889648438 c 0
 138.708984375 606.811523438 241.487304688 689.344726562 350.307617188 689.344726562 c 0
 462.299804688 689.344726562 524.352539062 605.0078125 498.69921875 493.889648438 c 0
 472.302734375 379.555664062 370.020507812 297.46484375 259.834960938 297.46484375 c 0
446.319335938 493.889648438 m 0
 466.73828125 582.334960938 417.490234375 638.905273438 338.663085938 638.905273438 c 0
 297.7265625 638.905273438 261.8671875 625.440429688 229.44140625 598.36328125 c 0
 197.02734375 571.295898438 175.936523438 536.977539062 165.989257812 493.889648438 c 0
 155.883789062 450.118164062 161.083984375 415.483398438 180.977539062 388.446289062 c 0
 200.901367188 361.369140625 230.543945312 347.905273438 271.48046875 347.905273438 c 0
 313.076171875 347.905273438 349.45703125 361.540039062 382.271484375 388.932617188 c 0
 415.111328125 416.346679688 436.37890625 450.833984375 446.319335938 493.889648438 c 0
404.986328125 537.540039062 m 0
 400.537109375 518.268554688 388.532226562 490.90234375 356.282226562 475.331054688 c 1
 379.647460938 380.884765625 l 1
 363.485351562 380.884765625 l 1
 325.655273438 380.884765625 l 1
 319.229492188 380.884765625 l 1
 298.196289062 466.245117188 l 1
 276.006835938 466.245117188 l 1
 256.299804688 380.884765625 l 1
 201.009765625 380.884765625 l 1
 253.635742188 608.834960938 l 1
 343.361328125 608.834960938 l 2
 366.356445312 608.834960938 384.4140625 603.03515625 395.799804688 590.247070312 c 0
 407.2890625 577.342773438 409.956054688 559.0625 404.986328125 537.540039062 c 0
350.666015625 537.540039062 m 0
 352.728515625 546.47265625 353.625976562 557.424804688 330.521484375 557.424804688 c 2
 297.056640625 557.424804688 l 1
 287.875 517.655273438 l 1
 321.33984375 517.655273438 l 2
 344.444335938 517.655273438 348.604492188 528.607421875 350.666015625 537.540039062 c 0
EndSplineSet
EndChar

StartChar: macron
Encoding: 175 175 112
Width: 502
GlyphClass: 2
Flags: MW
HStem: 572.945 80.5098<188.277 442.261 169.69 460.848>
VStem: 120.759 272.57
LayerCount: 2
Fore
SplineSet
188.27734375 653.455078125 m 1
 460.84765625 653.455078125 l 1
 442.260742188 572.9453125 l 1
 169.690429688 572.9453125 l 1
 188.27734375 653.455078125 l 1
EndSplineSet
EndChar

StartChar: degree
Encoding: 176 176 113
Width: 416
GlyphClass: 2
Flags: MW
HStem: 408.045 67.9004<229.475 245.512> 633.085 66.9297<271.747 288.244>
VStem: 68.3789 69.8408 289.539 69.8398
LayerCount: 2
Fore
SplineSet
112.943359375 554.030273438 m 0
 122.440429688 595.166992188 144.365234375 630.377929688 178.243164062 658.184570312 c 0
 212.202148438 686.057617188 250.862304688 700.014648438 292.631835938 700.014648438 c 0
 333.204101562 700.014648438 364.864257812 685.991210938 386.215820312 658.23046875 c 0
 407.594726562 630.434570312 413.448242188 595.201171875 403.943359375 554.030273438 c 0
 394.4375 512.858398438 372.315429688 477.625976562 338.102539062 449.829101562 c 0
 303.932617188 422.069335938 265.797851562 408.044921875 225.225585938 408.044921875 c 0
 183.456054688 408.044921875 151.240234375 422.002929688 130.151367188 449.875 c 0
 109.112304688 477.681640625 103.446289062 512.893554688 112.943359375 554.030273438 c 0
334.103515625 554.030273438 m 0
 339.568359375 577.701171875 336.663085938 596.193359375 325.84765625 610.993164062 c 0
 315.0234375 625.806640625 299.30859375 633.084960938 277.1796875 633.084960938 c 0
 254.327148438 633.084960938 234.936523438 625.749023438 217.33984375 610.993164062 c 0
 199.693359375 596.193359375 188.249023438 577.701171875 182.784179688 554.030273438 c 0
 177.484375 531.075195312 180.409179688 512.890625 191.262695312 498.037109375 c 0
 202.044921875 483.28125 218.048828125 475.9453125 240.901367188 475.9453125 c 0
 263.030273438 475.9453125 282.10546875 483.22265625 299.770507812 498.037109375 c 0
 317.482421875 512.890625 328.803710938 531.075195312 334.103515625 554.030273438 c 0
EndSplineSet
EndChar

StartChar: plusminus
Encoding: 177 177 114
Width: 515
GlyphClass: 2
Flags: MW
HStem: -3.23535 84.3906<-4.95801 381.988 -24.4414 401.472> 271.275 84.3896<58.418 199.954 38.9346 219.438 303.828 445.364 58.418 284.345>
VStem: 220.669 84.3906
LayerCount: 2
Fore
SplineSet
284.344726562 271.275390625 m 1
 247.169921875 110.254882812 l 1
 162.779296875 110.254882812 l 1
 199.954101562 271.275390625 l 1
 38.9345703125 271.275390625 l 1
 58.41796875 355.665039062 l 1
 219.4375 355.665039062 l 1
 256.611328125 516.684570312 l 1
 341.001953125 516.684570312 l 1
 303.828125 355.665039062 l 1
 464.84765625 355.665039062 l 1
 445.364257812 271.275390625 l 1
 284.344726562 271.275390625 l 1
-4.9580078125 81.1552734375 m 1
 401.471679688 81.1552734375 l 1
 381.98828125 -3.2353515625 l 1
 -24.44140625 -3.2353515625 l 1
 -4.9580078125 81.1552734375 l 1
EndSplineSet
EndChar

StartChar: uni00B2
Encoding: 178 178 115
Width: 327
GlyphClass: 2
Flags: MW
HStem: 417.745 77.5996<193.609 308.46> 774.705 74.6904<252.335 281.078>
VStem: 45.0996 84.3896 207.089 87.2998
LayerCount: 2
Fore
SplineSet
283.46875 849.395507812 m 0
 360.6796875 849.395507812 395.720703125 799.919921875 380.606445312 734.450195312 c 2
 378.142578125 723.780273438 l 2
 370.883789062 692.336914062 354.61328125 663.2734375 314.711914062 621.65625 c 2
 193.609375 495.344726562 l 1
 326.375 495.344726562 l 1
 308.459960938 417.745117188 l 1
 61.109375 417.745117188 l 1
 75.8798828125 481.724609375 l 1
 255.334960938 666.684570312 l 2
 279.955078125 692.515625 287.254882812 708.23828125 290.842773438 723.780273438 c 2
 292.634765625 731.540039062 l 2
 296.225585938 747.094726562 297.870117188 774.705078125 264.28515625 774.705078125 c 0
 240.384765625 774.705078125 221.975585938 761.603515625 213.915039062 726.690429688 c 2
 209.100585938 705.834960938 l 1
 124.7109375 705.834960938 l 1
 130.421875 730.5703125 l 2
 146.908203125 801.983398438 207.181640625 849.395507812 283.46875 849.395507812 c 0
EndSplineSet
EndChar

StartChar: uni00B3
Encoding: 179 179 116
Width: 325
GlyphClass: 2
Flags: MW
HStem: 411.925 73.7207<173.485 196.128> 600.105 74.6895<202.904 216.216 185.66 233.46> 774.704 74.6904<250.845 276.015>
VStem: 42.1895 78.5693 209.999 83.4209
LayerCount: 2
Fore
SplineSet
313.252929688 643.126953125 m 1
 325.610351562 633.459960938 350.009765625 606.1171875 336.416992188 547.240234375 c 2
 333.729492188 535.599609375 l 2
 325.44140625 499.703125 306.618164062 469.3828125 277.528320312 446.325195312 c 0
 248.435546875 423.264648438 214.634765625 411.924804688 177.622070312 411.924804688 c 0
 140.328125 411.924804688 111.95703125 421.666992188 94.3134765625 442.255859375 c 0
 76.6455078125 462.875976562 72.298828125 491.419921875 80.259765625 525.900390625 c 2
 85.07421875 546.754882812 l 1
 163.643554688 546.754882812 l 1
 159.052734375 526.870117188 l 2
 156.467773438 515.673828125 153.298828125 485.645507812 193.670898438 485.645507812 c 0
 211.333007812 485.645507812 240.374023438 492.569335938 250.30859375 535.599609375 c 2
 253.219726562 548.209960938 l 2
 257.098632812 565.010742188 255.291015625 577.19921875 248.790039062 586.331054688 c 0
 242.349609375 595.375976562 232.145507812 600.10546875 216.215820312 600.10546875 c 2
 185.66015625 600.10546875 l 1
 202.904296875 674.794921875 l 1
 233.459960938 674.794921875 l 2
 245.249023438 674.794921875 276.57421875 678.78125 286.067382812 719.899414062 c 2
 288.306640625 729.598632812 l 2
 292.731445312 748.763671875 292.595703125 774.704101562 259.434570312 774.704101562 c 0
 242.255859375 774.704101562 217.721679688 768.387695312 209.88671875 734.44921875 c 2
 205.295898438 714.564453125 l 1
 125.755859375 714.564453125 l 1
 130.5703125 735.418945312 l 2
 146.141601562 802.865234375 202.25 849.39453125 278.619140625 849.39453125 c 0
 314.78515625 849.39453125 342.466796875 839.188476562 359.862304688 817.971679688 c 0
 377.193359375 796.8359375 381.731445312 768.732421875 374.041015625 735.418945312 c 2
 371.801757812 725.71875 l 2
 366.283203125 701.818359375 351.643554688 668.208007812 313.252929688 643.126953125 c 1
EndSplineSet
EndChar

StartChar: acute
Encoding: 180 180 117
Width: 502
GlyphClass: 2
Flags: MW
HStem: 555.485 141.62<202.317 457.474>
VStem: 157.417 222.461
LayerCount: 2
Fore
SplineSet
347.17578125 697.10546875 m 1
 457.473632812 697.10546875 l 1
 288.823242188 555.485351562 l 1
 202.317382812 555.485351562 l 1
 347.17578125 697.10546875 l 1
EndSplineSet
EndChar

StartChar: uni00B5
Encoding: 181 181 118
Width: 518
GlyphClass: 2
Flags: MW
HStem: -7.11523 80.5107<179.727 194.699> 0.645508 21G<282.005 368.335 282.005 282.005> 492.805 20G<112.156 198.486 198.486 198.486 399.276 486.576 486.576 486.576>
VStem: 77.1094 86.3301 364.229 87.2998
LayerCount: 2
Fore
SplineSet
290.83984375 38.9169921875 m 1x78
 265.693359375 17.3984375 224.130859375 -7.115234375 165.267578125 -7.115234375 c 0
 131.060546875 -7.115234375 103.72265625 1.2275390625 84.3056640625 18.236328125 c 1
 46.205078125 -146.794921875 l 1
 -40.125 -146.794921875 l 1
 112.15625 512.8046875 l 1
 198.486328125 512.8046875 l 1
 122.458007812 183.490234375 l 2
 113.716796875 145.627929688 116.778320312 118.631835938 129.654296875 100.786132812 c 0
 142.685546875 82.7255859375 163.958007812 73.3955078125 195.495117188 73.3955078125 c 0xb8
 225.526367188 73.3955078125 251.678710938 82.9072265625 275.462890625 101.990234375 c 0
 298.748046875 120.67578125 314.874023438 147.21875 323.248046875 183.490234375 c 2
 399.276367188 512.8046875 l 1
 486.576171875 512.8046875 l 1
 368.334960938 0.6455078125 l 1
 282.004882812 0.6455078125 l 1
 290.83984375 38.9169921875 l 1x78
EndSplineSet
EndChar

StartChar: paragraph
Encoding: 182 182 119
Width: 613
GlyphClass: 2
Flags: MW
HStem: 606.896 83.4199<406.449 474.349 406.449 406.449>
VStem: 81.959 267.721 264.319 85.3604 417.579 85.3604
LayerCount: 2
Fore
SplineSet
108.83203125 477.400390625 m 0xd0
 135.353515625 592.278320312 233.537109375 690.315429688 378.662109375 690.315429688 c 2
 578.967773438 690.315429688 l 1
 385.705078125 -146.794921875 l 1
 300.344726562 -146.794921875 l 1
 474.348632812 606.895507812 l 1
 406.44921875 606.895507812 l 1
 232.4453125 -146.794921875 l 1
 147.084960938 -146.794921875 l 1
 242.236328125 265.350585938 l 1xb0
 190.635742188 271.03515625 151.891601562 292.598632812 127.322265625 329.9921875 c 0
 101.361328125 369.50390625 95.3662109375 419.073242188 108.83203125 477.400390625 c 0xd0
EndSplineSet
EndChar

StartChar: periodcentered
Encoding: 183 183 120
Width: 203
GlyphClass: 2
Flags: MW
HStem: 216.955 109.61<47.8193 128.243 22.5137 153.549>
VStem: 55.7695 105.729
LayerCount: 2
Fore
SplineSet
47.8193359375 326.565429688 m 1
 153.548828125 326.565429688 l 1
 128.243164062 216.955078125 l 1
 22.513671875 216.955078125 l 1
 47.8193359375 326.565429688 l 1
EndSplineSet
EndChar

StartChar: cedilla
Encoding: 184 184 121
Width: 502
GlyphClass: 2
Flags: MW
HStem: -144.854 177.51<65.2275 255.43 65.2275 255.43>
VStem: 182.014 149.221
LayerCount: 2
Fore
SplineSet
255.4296875 32.6552734375 m 1
 156.374023438 -144.854492188 l 1
 65.2275390625 -144.854492188 l 1
 175.240234375 32.6552734375 l 1
 255.4296875 32.6552734375 l 1
EndSplineSet
EndChar

StartChar: uni00B9
Encoding: 185 185 122
Width: 231
GlyphClass: 2
Flags: MW
VStem: 100.39 87.2998
LayerCount: 2
Fore
SplineSet
105.03515625 687.8359375 m 1
 127.506835938 785.172851562 l 1
 218.40625 842.60546875 l 1
 298.876953125 842.60546875 l 1
 200.790039062 417.745117188 l 1
 113.490234375 417.745117188 l 1
 188.162109375 741.185546875 l 1
 105.03515625 687.8359375 l 1
EndSplineSet
EndChar

StartChar: ordmasculine
Encoding: 186 186 123
Width: 336
GlyphClass: 2
Flags: MW
HStem: 413.865 76.6299<194.212 206.485> 669.945 76.6299<243.926 256.199>
VStem: 44.1289 82.4502 222.609 82.4502
LayerCount: 2
Fore
SplineSet
88.021484375 551.120117188 m 2
 101.458007812 609.3203125 l 2
 111.81640625 654.189453125 130.970703125 689.325195312 160.423828125 712.661132812 c 0
 189.350585938 735.581054688 224.240234375 746.575195312 263.611328125 746.575195312 c 0
 302.981445312 746.575195312 332.794921875 735.581054688 351.139648438 712.661132812 c 0
 369.817382812 689.325195312 372.747070312 654.189453125 362.388671875 609.3203125 c 2
 348.952148438 551.120117188 l 2
 338.592773438 506.25 319.439453125 471.114257812 289.986328125 447.778320312 c 0
 261.059570312 424.859375 226.169921875 413.865234375 186.799804688 413.865234375 c 0
 147.428710938 413.865234375 117.615234375 424.859375 99.2705078125 447.779296875 c 0
 80.5927734375 471.115234375 77.662109375 506.250976562 88.021484375 551.120117188 c 2
204.491210938 490.495117188 m 0
 225.047851562 490.495117188 253.874023438 496.423828125 266.501953125 551.120117188 c 2
 279.938476562 609.3203125 l 2
 292.565429688 664.015625 266.477539062 669.9453125 245.919921875 669.9453125 c 0
 225.362304688 669.9453125 196.536132812 664.016601562 183.908203125 609.3203125 c 2
 170.471679688 551.120117188 l 2
 157.84375 496.423828125 183.93359375 490.495117188 204.491210938 490.495117188 c 0
283.430664062 832.419921875 m 1024
EndSplineSet
EndChar

StartChar: guillemotright
Encoding: 187 187 124
Width: 481
GlyphClass: 2
Flags: W
LayerCount: 2
Fore
SplineSet
80.1787109375 374.295898438 m 1
 105.465820312 483.82421875 l 1
 269.013671875 266.91015625 l 1
 5.30859375 49.99609375 l 1
 30.5947265625 159.5234375 l 1
 160.905273438 266.91015625 l 1
 80.1787109375 374.295898438 l 1
256.712890625 374.270507812 m 1
 281.984375 483.733398438 l 1
 446.559570312 266.91015625 l 1
 181.869140625 50.0869140625 l 1
 207.140625 159.549804688 l 1
 338.353515625 266.91015625 l 1
 256.712890625 374.270507812 l 1
EndSplineSet
EndChar

StartChar: onequarter
Encoding: 188 188 125
Width: 727
GlyphClass: 3
Flags: MW
HStem: 0.645508 21G<3.50586 87.7725 3.50586 3.50586 494.435 581.735 494.435 494.435> 73.3955 77.5996<469.155 511.229 616.446 636.359 469.155 598.53> 670.315 20G<183.247 263.718 263.718 263.718 535.55 619.816 619.816 619.816>
VStem: 100.39 87.2998 577.629 87.3008
LayerCount: 2
Fore
SplineSet
69.8759765625 535.545898438 m 1
 92.34765625 632.8828125 l 1
 183.247070312 690.315429688 l 1
 263.717773438 690.315429688 l 1
 165.630859375 265.455078125 l 1
 78.3310546875 265.455078125 l 1
 153.002929688 588.895507812 l 1
 69.8759765625 535.545898438 l 1
616.446289062 150.995117188 m 1
 654.275390625 150.995117188 l 1
 636.359375 73.3955078125 l 1
 598.530273438 73.3955078125 l 1
 581.735351562 0.6455078125 l 1
 494.434570312 0.6455078125 l 1
 511.229492188 73.3955078125 l 1
 358.939453125 73.3955078125 l 1
 374.971679688 142.836914062 l 1
 557.09375 425.504882812 l 1
 645.049804688 425.504882812 l 1
 469.155273438 150.995117188 l 1
 529.145507812 150.995117188 l 1
 551.091796875 246.0546875 l 1
 638.392578125 246.0546875 l 1
 616.446289062 150.995117188 l 1
535.549804688 690.315429688 m 1
 619.81640625 690.315429688 l 1
 87.7724609375 0.6455078125 l 1
 3.505859375 0.6455078125 l 1
 535.549804688 690.315429688 l 1
EndSplineSet
Ligature2: "'frac' Diagonal Fractions lookup 2 subtable" one slash four
EndChar

StartChar: onehalf
Encoding: 189 189 126
Width: 716
GlyphClass: 3
Flags: MW
HStem: 0.645508 77.5996<483.375 598.225> 357.605 74.6895<542.101 570.843> 670.315 20G<183.247 263.718 263.718 263.718 535.551 619.817 619.817 619.817>
VStem: 100.39 87.2998 431.16 84.3896 593.15 87.2988
LayerCount: 2
Fore
SplineSet
69.8759765625 535.545898438 m 1
 92.34765625 632.8828125 l 1
 183.247070312 690.315429688 l 1
 263.717773438 690.315429688 l 1
 165.630859375 265.455078125 l 1
 78.3310546875 265.455078125 l 1
 153.002929688 588.895507812 l 1
 69.8759765625 535.545898438 l 1
573.235351562 432.294921875 m 0
 650.4453125 432.294921875 685.486328125 382.8203125 670.37109375 317.349609375 c 2
 667.908203125 306.6796875 l 2
 660.651367188 275.247070312 644.396484375 246.193359375 604.4765625 204.556640625 c 2
 483.375 78.2451171875 l 1
 616.139648438 78.2451171875 l 1
 598.224609375 0.6455078125 l 1
 350.875 0.6455078125 l 1
 365.645507812 64.6240234375 l 1
 545.100585938 249.583984375 l 2
 569.720703125 275.415039062 577.021484375 291.138671875 580.609375 306.6796875 c 2
 582.401367188 314.440429688 l 2
 585.9921875 329.995117188 587.635742188 357.60546875 554.05078125 357.60546875 c 0
 530.151367188 357.60546875 511.741210938 344.502929688 503.680664062 309.58984375 c 2
 498.866210938 288.735351562 l 1
 414.4765625 288.735351562 l 1
 420.186523438 313.469726562 l 2
 436.673828125 384.8828125 496.948242188 432.294921875 573.235351562 432.294921875 c 0
535.55078125 690.315429688 m 1
 619.817382812 690.315429688 l 1
 87.7734375 0.6455078125 l 1
 3.5068359375 0.6455078125 l 1
 535.55078125 690.315429688 l 1
EndSplineSet
Ligature2: "'frac' Diagonal Fractions lookup 2 subtable" one slash two
EndChar

StartChar: threequarters
Encoding: 190 190 127
Width: 822
GlyphClass: 3
Flags: MW
HStem: 0.644531 21G<97.5947 181.861 97.5947 97.5947 588.524 675.824 588.524 588.524> 73.3945 77.5996<563.244 605.32 710.535 730.45 563.244 692.62> 259.635 73.7197<138.326 160.969> 447.814 74.6895<167.745 181.057 150.501 198.301> 622.413 74.6904<215.686 240.856>
VStem: 42.1895 78.5693 209.999 83.4209 671.72 87.2998
LayerCount: 2
Fore
SplineSet
278.096679688 490.837890625 m 1
 299.916015625 473.770507812 311.951171875 441.267578125 301.2578125 394.950195312 c 2
 298.5703125 383.309570312 l 2
 290.283203125 347.413085938 271.459960938 317.092773438 242.370117188 294.03515625 c 0
 213.276367188 270.974609375 179.475585938 259.634765625 142.462890625 259.634765625 c 0
 105.168945312 259.634765625 76.7978515625 269.376953125 59.1552734375 289.966796875 c 0
 41.4873046875 310.5859375 37.1396484375 339.12890625 45.1005859375 373.609375 c 2
 49.9150390625 394.463867188 l 1
 128.484375 394.463867188 l 1
 123.893554688 374.579101562 l 2
 121.30859375 363.3828125 118.139648438 333.354492188 158.51171875 333.354492188 c 0
 176.173828125 333.354492188 205.21484375 340.278320312 215.149414062 383.30859375 c 2
 218.060546875 395.918945312 l 2
 221.939453125 412.719726562 220.131835938 424.908203125 213.630859375 434.040039062 c 0
 207.190429688 443.084960938 196.986328125 447.814453125 181.056640625 447.814453125 c 2
 150.500976562 447.814453125 l 1
 167.745117188 522.50390625 l 1
 198.30078125 522.50390625 l 2
 210.08984375 522.50390625 241.415039062 526.490234375 250.908203125 567.608398438 c 2
 253.147460938 577.30859375 l 2
 257.572265625 596.47265625 257.436523438 622.413085938 224.275390625 622.413085938 c 0
 207.096679688 622.413085938 182.5625 616.096679688 174.727539062 582.158203125 c 2
 170.13671875 562.2734375 l 1
 90.5966796875 562.2734375 l 1
 95.4111328125 583.127929688 l 2
 110.982421875 650.57421875 167.090820312 697.103515625 243.459960938 697.103515625 c 0
 279.625976562 697.103515625 307.307617188 686.897460938 324.703125 665.681640625 c 0
 342.034179688 644.544921875 346.572265625 616.44140625 338.881835938 583.127929688 c 2
 336.642578125 573.427734375 l 2
 331.124023438 549.52734375 316.484375 515.918945312 278.096679688 490.837890625 c 1
710.53515625 150.994140625 m 1
 748.365234375 150.994140625 l 1
 730.450195312 73.39453125 l 1
 692.620117188 73.39453125 l 1
 675.82421875 0.64453125 l 1
 588.524414062 0.64453125 l 1
 605.3203125 73.39453125 l 1
 453.030273438 73.39453125 l 1
 469.0625 142.8359375 l 1
 651.18359375 425.50390625 l 1
 739.139648438 425.50390625 l 1
 563.244140625 150.994140625 l 1
 623.235351562 150.994140625 l 1
 645.181640625 246.053710938 l 1
 732.481445312 246.053710938 l 1
 710.53515625 150.994140625 l 1
629.639648438 690.314453125 m 1
 713.907226562 690.314453125 l 1
 181.861328125 0.64453125 l 1
 97.5947265625 0.64453125 l 1
 629.639648438 690.314453125 l 1
EndSplineSet
Ligature2: "'frac' Diagonal Fractions lookup 2 subtable" three slash four
EndChar

StartChar: questiondown
Encoding: 191 191 128
Width: 433
GlyphClass: 2
Flags: MW
HStem: -156.495 84.3906<89.8311 135.235> 402.225 110.58<211.096 292.267 185.566 317.796>
VStem: 49.9482 91.1787 176.049 106.7 182.837 91.1807 313.973 91.2373
LayerCount: 2
Fore
SplineSet
211.095703125 512.8046875 m 1xf4
 317.795898438 512.8046875 l 1
 292.266601562 402.224609375 l 1
 185.56640625 402.224609375 l 1
 211.095703125 512.8046875 l 1xf4
61.4033203125 15.6796875 m 0
 54.7265625 -13.240234375 50.740234375 -72.1044921875 128.921875 -72.1044921875 c 0
 211.362304688 -72.1044921875 228.66015625 -5.421875 238.391601562 33.625 c 1
 329.62890625 33.625 l 1
 321.254882812 0.7060546875 304.982421875 -63.2578125 248.7578125 -109.778320312 c 0
 210.604492188 -141.345703125 162.969726562 -156.495117188 107.500976562 -156.495117188 c 0
 54.4150390625 -156.495117188 14.4912109375 -140.859375 -10.4140625 -108.9296875 c 0
 -35.2529296875 -77.083984375 -41.47265625 -34.984375 -29.775390625 15.6806640625 c 0
 -18.0068359375 66.6533203125 6.4130859375 103.546875 60.2529296875 156.783203125 c 2
 60.2529296875 156.783203125 119.279296875 214.983398438 119.40234375 215.102539062 c 0
 150.365234375 244.916015625 159.58203125 260.274414062 168.50390625 298.919921875 c 2
 178.693359375 343.0546875 l 1
 269.874023438 343.0546875 l 1
 259.4609375 297.950195312 l 2xec
 246.893554688 243.515625 230.2890625 216.694335938 185.712890625 173.205078125 c 2
 127.094726562 116.907226562 l 2
 86.5205078125 78.23046875 70.1015625 53.3564453125 61.4033203125 15.6796875 c 0
EndSplineSet
EndChar

StartChar: Agrave
Encoding: 192 192 129
Width: 578
GlyphClass: 2
Flags: MW
HStem: 0.645508 21G<-76.4053 -76.4053 -76.4053 20.0625 402.328 402.328 402.328 498.795> 161.665 80.5098<159.541 374.333 159.541 383.241 113.496 374.333> 670.315 20G<333.697 407.138 407.138 407.138>
LayerCount: 2
Fore
SplineSet
-76.4052734375 0.6455078125 m 1
 333.697265625 690.315429688 l 1
 407.137695312 690.315429688 l 1
 498.794921875 0.6455078125 l 1
 402.328125 0.6455078125 l 1
 383.241210938 161.665039062 l 1
 113.49609375 161.665039062 l 1
 20.0625 0.6455078125 l 1
 -76.4052734375 0.6455078125 l 1
159.541015625 242.174804688 m 1
 374.333007812 242.174804688 l 1
 337.6328125 550.244140625 l 1
 159.541015625 242.174804688 l 1
267.337890625 874.615234375 m 1
 377.635742188 874.615234375 l 1
 457.103515625 732.995117188 l 1
 370.59765625 732.995117188 l 1
 267.337890625 874.615234375 l 1
EndSplineSet
EndChar

StartChar: Aacute
Encoding: 193 193 130
Width: 578
GlyphClass: 2
Flags: MW
HStem: 0.645508 21G<-76.4053 -76.4053 -76.4053 20.0625 402.328 402.328 402.328 498.795> 161.665 80.5098<159.541 374.333 159.541 383.241 113.496 374.333> 670.315 20G<333.697 407.138 407.138 407.138>
LayerCount: 2
Fore
SplineSet
-76.4052734375 0.6455078125 m 1
 333.697265625 690.315429688 l 1
 407.137695312 690.315429688 l 1
 498.794921875 0.6455078125 l 1
 402.328125 0.6455078125 l 1
 383.241210938 161.665039062 l 1
 113.49609375 161.665039062 l 1
 20.0625 0.6455078125 l 1
 -76.4052734375 0.6455078125 l 1
159.541015625 242.174804688 m 1
 374.333007812 242.174804688 l 1
 337.6328125 550.244140625 l 1
 159.541015625 242.174804688 l 1
431.807617188 874.615234375 m 1
 542.104492188 874.615234375 l 1
 373.454101562 732.995117188 l 1
 286.94921875 732.995117188 l 1
 431.807617188 874.615234375 l 1
EndSplineSet
EndChar

StartChar: Acircumflex
Encoding: 194 194 131
Width: 578
GlyphClass: 2
Flags: MW
HStem: 0.645508 21G<-76.4053 -76.4053 -76.4053 20.0625 402.328 402.328 402.328 498.795> 161.665 80.5098<159.541 374.333 159.541 383.241 113.496 374.333> 670.315 20G<333.697 407.138 407.138 407.138>
LayerCount: 2
Fore
SplineSet
-76.4052734375 0.6455078125 m 1
 333.697265625 690.315429688 l 1
 407.137695312 690.315429688 l 1
 498.794921875 0.6455078125 l 1
 402.328125 0.6455078125 l 1
 383.241210938 161.665039062 l 1
 113.49609375 161.665039062 l 1
 20.0625 0.6455078125 l 1
 -76.4052734375 0.6455078125 l 1
159.541015625 242.174804688 m 1
 374.333007812 242.174804688 l 1
 337.6328125 550.244140625 l 1
 159.541015625 242.174804688 l 1
383.1875 883.344726562 m 1
 446.776367188 883.344726562 l 1
 528.751953125 723.294921875 l 1
 443.297851562 723.294921875 l 1
 398.2109375 808.84375 l 1
 312.723632812 723.294921875 l 1
 227.311523438 723.294921875 l 1
 383.1875 883.344726562 l 1
EndSplineSet
EndChar

StartChar: Atilde
Encoding: 195 195 132
Width: 578
GlyphClass: 2
Flags: MW
HStem: 0.645508 21G<-76.4053 -76.4053 -76.4053 20.0625 402.328 402.328 402.328 498.795> 161.665 80.5098<159.541 374.333 159.541 383.241 113.496 374.333> 670.315 20G<333.697 407.138 407.138 407.138> 731.058 77.6006<448.324 452.962> 767.916 78.5723<335.022 342.818>
LayerCount: 2
Fore
SplineSet
-76.4052734375 0.6455078125 m 1xe0
 333.697265625 690.315429688 l 1
 407.137695312 690.315429688 l 1
 498.794921875 0.6455078125 l 1
 402.328125 0.6455078125 l 1
 383.241210938 161.665039062 l 1
 113.49609375 161.665039062 l 1
 20.0625 0.6455078125 l 1
 -76.4052734375 0.6455078125 l 1xe0
159.541015625 242.174804688 m 1
 374.333007812 242.174804688 l 1
 337.6328125 550.244140625 l 1
 159.541015625 242.174804688 l 1
353.609375 846.48828125 m 0xe8
 372.131835938 846.48828125 385.213867188 842.866210938 412.099609375 825.73046875 c 0
 434.985351562 809.791015625 443.1328125 808.658203125 453.514648438 808.658203125 c 0
 477.067382812 808.658203125 488.7421875 818.505859375 539.969726562 861.719726562 c 1
 519.56640625 773.342773438 l 1
 506.260742188 761.19921875 473.235351562 731.057617188 432.689453125 731.057617188 c 0xf0
 411.708007812 731.057617188 398.518554688 735.38671875 372.233398438 752.952148438 c 0
 371.916992188 753.200195312 352.109375 767.916015625 333.52734375 767.916015625 c 0
 307.430664062 767.916015625 295.4296875 757.387695312 245.888671875 713.927734375 c 1
 266.494140625 803.180664062 l 1
 290.171875 825.087890625 316.435546875 846.48828125 353.609375 846.48828125 c 0xe8
EndSplineSet
EndChar

StartChar: Adieresis
Encoding: 196 196 133
Width: 578
GlyphClass: 2
Flags: MW
HStem: 0.645508 21G<-76.4053 -76.4053 -76.4053 20.0625 402.328 402.328 402.328 498.795> 161.665 80.5098<159.541 374.333 159.541 383.241 113.496 374.333> 670.315 20G<333.697 407.138 407.138 407.138> 738.815 103.79<275.597 345.725 251.635 369.687 275.597 417.505 441.467 511.595>
VStem: 164.409 94.0898 330.279 94.0898
LayerCount: 2
Fore
SplineSet
-76.4052734375 0.6455078125 m 1
 333.697265625 690.315429688 l 1
 407.137695312 690.315429688 l 1
 498.794921875 0.6455078125 l 1
 402.328125 0.6455078125 l 1
 383.241210938 161.665039062 l 1
 113.49609375 161.665039062 l 1
 20.0625 0.6455078125 l 1
 -76.4052734375 0.6455078125 l 1
159.541015625 242.174804688 m 1
 374.333007812 242.174804688 l 1
 337.6328125 550.244140625 l 1
 159.541015625 242.174804688 l 1
275.596679688 842.60546875 m 1
 369.686523438 842.60546875 l 1
 345.724609375 738.815429688 l 1
 251.634765625 738.815429688 l 1
 275.596679688 842.60546875 l 1
441.466796875 842.60546875 m 1
 535.556640625 842.60546875 l 1
 511.594726562 738.815429688 l 1
 417.504882812 738.815429688 l 1
 441.466796875 842.60546875 l 1
EndSplineSet
EndChar

StartChar: Aring
Encoding: 197 197 134
Width: 578
GlyphClass: 2
Flags: MW
HStem: 0.645508 21G<-76.4121 20.0625 -76.4121 -76.4121 402.328 498.802 402.328 402.328> 161.665 80.5107<159.542 374.334 159.542 383.241 113.496 374.334> 804.775 57.2295<391.479 403.175>
VStem: 196.419 58.2002 335.129 58.2002
LayerCount: 2
Fore
SplineSet
486.041015625 762.580078125 m 0
 475.881835938 718.578125 441.8203125 686.868164062 409.046875 673.328125 c 1
 498.801757812 0.6455078125 l 1
 402.328125 0.6455078125 l 1
 383.241210938 161.665039062 l 1
 113.49609375 161.665039062 l 1
 20.0625 0.6455078125 l 1
 -76.412109375 0.6455078125 l 1
 323.947265625 673.333984375 l 1
 310.45703125 680.25 300.235351562 690.8671875 293.649414062 704.841796875 c 0
 285.678710938 721.759765625 284.20703125 741.254882812 289.130859375 762.580078125 c 0
 302.31640625 819.692382812 352.34765625 862.004882812 410.540039062 862.004882812 c 0
 438.131835938 862.004882812 459.864257812 852.54296875 474.279296875 833.80078125 c 0
 488.736328125 815.004882812 492.543945312 790.74609375 486.041015625 762.580078125 c 0
378.068359375 721.356445312 m 0
 389.860351562 721.356445312 399.8046875 725.103515625 409.427734375 732.921875 c 0
 418.935546875 740.645507812 424.940429688 750.016601562 427.840820312 762.581054688 c 0
 430.741210938 775.141601562 429.107421875 784.752929688 423.145507812 792.844726562 c 0
 417.169921875 800.953125 409.0234375 804.775390625 397.327148438 804.775390625 c 0
 385.630859375 804.775390625 375.721679688 800.953125 366.001953125 792.844726562 c 0
 356.297851562 784.745117188 350.229492188 775.133789062 347.331054688 762.580078125 c 0
 344.430664062 750.015625 346.108398438 740.64453125 352.048828125 732.920898438 c 0
 358.0625 725.102539062 366.276367188 721.356445312 378.068359375 721.356445312 c 0
159.541992188 242.17578125 m 1
 374.333984375 242.17578125 l 1
 337.6328125 550.245117188 l 1
 159.541992188 242.17578125 l 1
374.37109375 680.130859375 m 1024
EndSplineSet
EndChar

StartChar: AE
Encoding: 198 198 135
Width: 860
GlyphClass: 2
Flags: MW
HStem: 0.645508 84.3896<444.077 734.995> 166.515 80.5107<210.955 371.709 148.391 390.296> 309.105 84.3896<515.291 756.738 495.808 776.222> 605.925 84.3906<564.334 874.734 564.334 564.334>
VStem: 416.609 91.1797
LayerCount: 2
Fore
SplineSet
-78.98828125 0.6455078125 m 1
 455.055664062 690.315429688 l 1
 894.217773438 690.315429688 l 1
 874.734375 605.924804688 l 1
 564.333984375 605.924804688 l 1
 515.291015625 393.495117188 l 1
 776.221679688 393.495117188 l 1
 756.73828125 309.10546875 l 1
 495.807617188 309.10546875 l 1
 444.077148438 85.03515625 l 1
 754.477539062 85.03515625 l 1
 734.995117188 0.6455078125 l 1
 333.415039062 0.6455078125 l 1
 371.708984375 166.514648438 l 1
 148.390625 166.514648438 l 1
 20.8564453125 0.6455078125 l 1
 -78.98828125 0.6455078125 l 1
390.295898438 247.025390625 m 1
 466.883789062 578.762695312 l 1
 210.955078125 247.025390625 l 1
 390.295898438 247.025390625 l 1
EndSplineSet
EndChar

StartChar: Ccedilla
Encoding: 199 199 136
Width: 610
GlyphClass: 2
Flags: MW
HStem: 614.654 84.3906<355.447 396.211>
VStem: 68.3779 91.1807 461.229 89.2402
LayerCount: 2
Fore
SplineSet
392.317382812 699.044921875 m 0
 536.459960938 699.044921875 610.721679688 613.580078125 580.849609375 484.190429688 c 2
 577.826171875 471.094726562 l 1
 486.649414062 471.094726562 l 1
 489.672851562 484.189453125 l 2
 499.149414062 525.23828125 493.288085938 556.318359375 472.850585938 579.423828125 c 0
 452.365234375 602.583984375 419.587890625 614.654296875 372.833984375 614.654296875 c 0
 321.051757812 614.654296875 280.000976562 600.150390625 247.833984375 572.333984375 c 0
 216.052734375 544.852539062 191.162109375 497.890625 175.458007812 429.870117188 c 2
 135.1484375 255.270507812 l 2
 102.01171875 111.739257812 168.989257812 78.2451171875 249.963867188 78.2451171875 c 0
 296.749023438 78.2451171875 334.90625 90.177734375 365.657226562 112.994140625 c 0
 396.326171875 135.75 416.360351562 166.657226562 425.845703125 207.741210938 c 2
 429.092773438 221.805664062 l 1
 518.333007812 221.805664062 l 1
 515.0859375 207.741210938 l 2
 502.087890625 151.440429688 474.888671875 103.977539062 433.416015625 66.6689453125 c 0
 393.53515625 30.7919921875 345.241210938 7.96484375 289.6484375 -2.0166015625 c 1
 209.711914062 -144.853515625 l 1
 118.59765625 -144.853515625 l 1
 204.181640625 -6.4130859375 l 1
 141.170898438 -1.955078125 93.6640625 20.185546875 63.0458984375 60.4052734375 c 0
 29.7373046875 104.161132812 24.5234375 171.045898438 44.8642578125 259.151367188 c 2
 84.9501953125 432.78125 l 2
 105.745117188 522.85546875 143.094726562 590.8359375 198.690429688 634.604492188 c 0
 253.544921875 677.788085938 318.577148438 699.044921875 392.317382812 699.044921875 c 0
EndSplineSet
EndChar

StartChar: Egrave
Encoding: 200 200 137
Width: 549
GlyphClass: 2
Flags: MW
HStem: 0.645508 84.3896<109.428 425.564> 309.105 84.3896<180.642 448.277 161.158 467.761> 605.925 84.3906<229.685 565.304 229.685 229.685>
VStem: 81.959 91.1807
LayerCount: 2
Fore
SplineSet
109.427734375 85.03515625 m 1
 445.046875 85.03515625 l 1
 425.564453125 0.6455078125 l 1
 -1.2353515625 0.6455078125 l 1
 157.987304688 690.315429688 l 1
 584.787109375 690.315429688 l 1
 565.303710938 605.924804688 l 1
 229.684570312 605.924804688 l 1
 180.641601562 393.495117188 l 1
 467.760742188 393.495117188 l 1
 448.27734375 309.10546875 l 1
 161.158203125 309.10546875 l 1
 109.427734375 85.03515625 l 1
258.608398438 874.615234375 m 1
 368.905273438 874.615234375 l 1
 448.373046875 732.995117188 l 1
 361.868164062 732.995117188 l 1
 258.608398438 874.615234375 l 1
EndSplineSet
EndChar

StartChar: Eacute
Encoding: 201 201 138
Width: 549
GlyphClass: 2
Flags: MW
HStem: 0.645508 84.3896<109.428 425.564> 309.105 84.3896<180.642 448.277 161.158 467.761> 605.925 84.3906<229.685 565.304 229.685 229.685>
VStem: 81.959 91.1807
LayerCount: 2
Fore
SplineSet
109.427734375 85.03515625 m 1
 445.046875 85.03515625 l 1
 425.564453125 0.6455078125 l 1
 -1.2353515625 0.6455078125 l 1
 157.987304688 690.315429688 l 1
 584.787109375 690.315429688 l 1
 565.303710938 605.924804688 l 1
 229.684570312 605.924804688 l 1
 180.641601562 393.495117188 l 1
 467.760742188 393.495117188 l 1
 448.27734375 309.10546875 l 1
 161.158203125 309.10546875 l 1
 109.427734375 85.03515625 l 1
533.375 874.615234375 m 1
 364.724609375 732.995117188 l 1
 278.21875 732.995117188 l 1
 423.077148438 874.615234375 l 1
 533.375 874.615234375 l 1
EndSplineSet
EndChar

StartChar: Ecircumflex
Encoding: 202 202 139
Width: 549
GlyphClass: 2
Flags: MW
HStem: 0.645508 84.3896<109.428 425.564> 309.105 84.3896<180.642 448.277 161.158 467.761> 605.925 84.3906<229.685 565.304 229.685 229.685>
VStem: 81.959 91.1807
LayerCount: 2
Fore
SplineSet
109.427734375 85.03515625 m 1
 445.046875 85.03515625 l 1
 425.564453125 0.6455078125 l 1
 -1.2353515625 0.6455078125 l 1
 157.987304688 690.315429688 l 1
 584.787109375 690.315429688 l 1
 565.303710938 605.924804688 l 1
 229.684570312 605.924804688 l 1
 180.641601562 393.495117188 l 1
 467.760742188 393.495117188 l 1
 448.27734375 309.10546875 l 1
 161.158203125 309.10546875 l 1
 109.427734375 85.03515625 l 1
438.046875 883.344726562 m 1
 520.022460938 723.294921875 l 1
 434.568359375 723.294921875 l 1
 389.481445312 808.84375 l 1
 303.993164062 723.294921875 l 1
 218.581054688 723.294921875 l 1
 374.458007812 883.344726562 l 1
 438.046875 883.344726562 l 1
EndSplineSet
EndChar

StartChar: Edieresis
Encoding: 203 203 140
Width: 549
GlyphClass: 2
Flags: MW
HStem: 0.645508 84.3896<109.428 425.564> 309.105 84.3896<180.642 448.277 161.158 467.761> 605.925 84.3906<229.685 565.304 229.685 229.685> 738.815 103.79<266.867 336.995 242.905 360.957 266.867 408.774 432.736 502.865>
VStem: 81.959 91.1807 155.68 94.0898 321.549 94.0908
LayerCount: 2
Fore
SplineSet
109.427734375 85.03515625 m 1xfa
 445.046875 85.03515625 l 1
 425.564453125 0.6455078125 l 1
 -1.2353515625 0.6455078125 l 1
 157.987304688 690.315429688 l 1
 584.787109375 690.315429688 l 1
 565.303710938 605.924804688 l 1
 229.684570312 605.924804688 l 1
 180.641601562 393.495117188 l 1
 467.760742188 393.495117188 l 1
 448.27734375 309.10546875 l 1
 161.158203125 309.10546875 l 1
 109.427734375 85.03515625 l 1xfa
266.8671875 842.60546875 m 1xf6
 360.95703125 842.60546875 l 1
 336.995117188 738.815429688 l 1
 242.905273438 738.815429688 l 1
 266.8671875 842.60546875 l 1xf6
432.736328125 842.60546875 m 1
 526.827148438 842.60546875 l 1
 502.865234375 738.815429688 l 1
 408.774414062 738.815429688 l 1
 432.736328125 842.60546875 l 1
EndSplineSet
EndChar

StartChar: Igrave
Encoding: 204 204 141
Width: 258
GlyphClass: 2
Flags: MW
HStem: 0.645508 21G<6.52539 97.7051 6.52539 6.52539> 670.315 20G<165.748 256.928 256.928 256.928>
VStem: 89.7197 91.1797
LayerCount: 2
Fore
SplineSet
165.748046875 690.315429688 m 1
 256.927734375 690.315429688 l 1
 97.705078125 0.6455078125 l 1
 6.525390625 0.6455078125 l 1
 165.748046875 690.315429688 l 1
108.2578125 874.615234375 m 1
 218.555664062 874.615234375 l 1
 298.0234375 732.995117188 l 1
 211.517578125 732.995117188 l 1
 108.2578125 874.615234375 l 1
EndSplineSet
EndChar

StartChar: Iacute
Encoding: 205 205 142
Width: 258
GlyphClass: 2
Flags: MW
HStem: 0.645508 21G<6.52539 97.7051 6.52539 6.52539> 670.315 20G<165.748 256.928 256.928 256.928>
VStem: 89.7197 91.1797
LayerCount: 2
Fore
SplineSet
165.748046875 690.315429688 m 1
 256.927734375 690.315429688 l 1
 97.705078125 0.6455078125 l 1
 6.525390625 0.6455078125 l 1
 165.748046875 690.315429688 l 1
272.727539062 874.615234375 m 1
 383.025390625 874.615234375 l 1
 214.374023438 732.995117188 l 1
 127.869140625 732.995117188 l 1
 272.727539062 874.615234375 l 1
EndSplineSet
EndChar

StartChar: Icircumflex
Encoding: 206 206 143
Width: 258
GlyphClass: 2
Flags: MW
HStem: 0.645508 21G<6.52539 97.7051 6.52539 6.52539> 670.315 20G<165.748 256.928 256.928 256.928>
VStem: 89.7197 91.1797
LayerCount: 2
Fore
SplineSet
165.748046875 690.315429688 m 1
 256.927734375 690.315429688 l 1
 97.705078125 0.6455078125 l 1
 6.525390625 0.6455078125 l 1
 165.748046875 690.315429688 l 1
224.107421875 883.344726562 m 1
 287.696289062 883.344726562 l 1
 369.671875 723.294921875 l 1
 284.217773438 723.294921875 l 1
 239.130859375 808.84375 l 1
 153.643554688 723.294921875 l 1
 68.2314453125 723.294921875 l 1
 224.107421875 883.344726562 l 1
EndSplineSet
EndChar

StartChar: Idieresis
Encoding: 207 207 144
Width: 258
GlyphClass: 2
Flags: MW
HStem: 0.645508 21G<6.52539 97.7051 6.52539 6.52539> 670.315 20G<165.748 256.928 256.928 256.928> 738.815 103.79<116.517 186.645 92.5547 210.606 116.517 258.425 282.387 352.515>
VStem: 5.3291 94.0898 89.7197 91.1797 171.199 94.0898
LayerCount: 2
Fore
SplineSet
165.748046875 690.315429688 m 1xe8
 256.927734375 690.315429688 l 1
 97.705078125 0.6455078125 l 1
 6.525390625 0.6455078125 l 1
 165.748046875 690.315429688 l 1xe8
116.516601562 842.60546875 m 1xf0
 210.606445312 842.60546875 l 1
 186.64453125 738.815429688 l 1
 92.5546875 738.815429688 l 1
 116.516601562 842.60546875 l 1xf0
282.38671875 842.60546875 m 1xe4
 376.4765625 842.60546875 l 1
 352.514648438 738.815429688 l 1
 258.424804688 738.815429688 l 1
 282.38671875 842.60546875 l 1xe4
EndSplineSet
EndChar

StartChar: Eth
Encoding: 208 208 145
Width: 668
GlyphClass: 2
Flags: MW
HStem: 0.645508 84.3887<156.957 284.43> 307.164 84.3896<227.723 344.04 208.239 363.523> 605.924 84.3916<277.214 425.14 277.214 277.214>
VStem: 128.52 92.1494 517.489 92.1504
LayerCount: 2
Fore
SplineSet
624.1953125 424.048828125 m 2
 587.916992188 266.909179688 l 2
 567.130859375 176.875976562 530.321289062 108.956054688 475.734375 65.16796875 c 0
 421.821289062 21.9208984375 357.540039062 0.6455078125 284.4296875 0.6455078125 c 2
 45.3251953125 0.6455078125 l 1
 116.090820312 307.165039062 l 1
 28.791015625 307.165039062 l 1
 48.2734375 391.5546875 l 1
 135.573242188 391.5546875 l 1
 204.547851562 690.315429688 l 1
 443.65234375 690.315429688 l 2
 516.762695312 690.315429688 571.220703125 669.0390625 605.165039062 625.791992188 c 0
 639.533203125 582.002929688 644.981445312 514.08203125 624.1953125 424.048828125 c 2
304.8828125 85.0341796875 m 2
 377.954101562 85.0341796875 460.599609375 114.586914062 494.87109375 263.029296875 c 2
 531.373046875 421.138671875 l 2
 546.772460938 487.841796875 543.872070312 534.598632812 525.412109375 562.801757812 c 0
 506.776367188 591.272460938 474.149414062 605.923828125 425.139648438 605.923828125 c 2
 277.213867188 605.923828125 l 1
 227.72265625 391.553710938 l 1
 363.5234375 391.553710938 l 1
 344.040039062 307.1640625 l 1
 208.239257812 307.1640625 l 1
 156.95703125 85.0341796875 l 1
 304.8828125 85.0341796875 l 2
EndSplineSet
EndChar

StartChar: Ntilde
Encoding: 209 209 146
Width: 662
GlyphClass: 2
Flags: MW
HStem: 0.645508 21G<-1.23535 89.9453 -1.23535 -1.23535 420.486 507.045 420.486 420.486> 670.315 20G<157.987 244.535 244.535 244.535 575.088 666.268 666.268 666.268> 731.058 77.6006<489.063 493.702> 767.916 78.5723<375.76 383.559>
VStem: 81.959 91.1807 499.06 91.1797
LayerCount: 2
Fore
SplineSet
666.267578125 690.315429688 m 1xcc
 507.044921875 0.6455078125 l 1
 420.486328125 0.6455078125 l 1
 208.793945312 515.4375 l 1
 89.9453125 0.6455078125 l 1
 -1.2353515625 0.6455078125 l 1
 157.987304688 690.315429688 l 1
 244.53515625 690.315429688 l 1
 456.662109375 177.357421875 l 1
 575.087890625 690.315429688 l 1
 666.267578125 690.315429688 l 1xcc
394.34765625 846.48828125 m 0xdc
 412.87109375 846.48828125 425.953125 842.865234375 452.838867188 825.73046875 c 0
 475.724609375 809.791015625 483.872070312 808.658203125 494.25390625 808.658203125 c 0
 517.806640625 808.658203125 529.481445312 818.505859375 580.708984375 861.719726562 c 1
 560.305664062 773.342773438 l 1
 547 761.19921875 513.974609375 731.057617188 473.428710938 731.057617188 c 0xec
 452.564453125 731.057617188 439.388671875 735.297851562 412.97265625 752.952148438 c 0
 412.657226562 753.200195312 392.849609375 767.916015625 374.267578125 767.916015625 c 0
 348.170898438 767.916015625 336.169921875 757.387695312 286.62890625 713.927734375 c 1
 307.234375 803.180664062 l 1
 330.911132812 825.086914062 357.171875 846.48828125 394.34765625 846.48828125 c 0xdc
EndSplineSet
EndChar

StartChar: Ograve
Encoding: 210 210 147
Width: 610
GlyphClass: 2
Flags: MW
HStem: -7.11523 85.3613<220.504 261.653> 614.657 84.3867<352.851 405.594>
VStem: 68.3799 91.1807 461.23 91.1787
LayerCount: 2
Fore
SplineSet
44.8662109375 259.150390625 m 2
 84.951171875 432.780273438 l 2
 105.740234375 522.827148438 142.73046875 590.767578125 197.653320312 634.548828125 c 0
 251.872070312 677.768554688 316.294921875 699.043945312 389.407226562 699.043945312 c 0
 461.895507812 699.043945312 516.021484375 677.748046875 549.94921875 634.520507812 c 0
 584.319335938 590.732421875 589.765625 522.811523438 568.98046875 432.779296875 c 2
 528.89453125 259.149414062 l 2
 508.10546875 169.102539062 471.1171875 101.162109375 416.193359375 57.3798828125 c 0
 362 14.1806640625 297.8984375 -7.115234375 225.408203125 -7.115234375 c 0
 152.297851562 -7.115234375 97.83984375 14.1611328125 63.8955078125 57.408203125 c 0
 29.52734375 101.196289062 24.080078125 169.1171875 44.8662109375 259.150390625 c 2
246.0859375 78.24609375 m 0
 320.58984375 78.24609375 402.9375 108.504882812 436.8203125 255.270507812 c 2
 477.130859375 429.872070312 l 2
 513.172851562 585.98828125 441.260742188 614.657226562 369.926757812 614.657226562 c 0
 318.154296875 614.657226562 277.674804688 600.013671875 246.465820312 572.025390625 c 0
 215.428710938 544.190429688 191.01953125 497.263671875 175.4609375 429.87109375 c 2
 135.150390625 255.270507812 l 2
 120.360351562 191.206054688 123.692382812 146.5078125 142.34765625 119.588867188 c 0
 161.15625 92.44921875 194.922851562 78.24609375 246.0859375 78.24609375 c 0
282.859375 874.6171875 m 1
 393.157226562 874.6171875 l 1
 472.624023438 732.997070312 l 1
 386.119140625 732.997070312 l 1
 282.859375 874.6171875 l 1
EndSplineSet
EndChar

StartChar: Oacute
Encoding: 211 211 148
Width: 610
GlyphClass: 2
Flags: MW
HStem: -7.11523 85.3613<220.504 261.653> 614.657 84.3867<352.851 405.594>
VStem: 68.3799 91.1807 461.23 91.1787
LayerCount: 2
Fore
SplineSet
44.8662109375 259.150390625 m 2
 84.951171875 432.780273438 l 2
 105.740234375 522.827148438 142.73046875 590.767578125 197.653320312 634.548828125 c 0
 251.872070312 677.768554688 316.294921875 699.043945312 389.407226562 699.043945312 c 0
 461.895507812 699.043945312 516.021484375 677.748046875 549.94921875 634.520507812 c 0
 584.319335938 590.732421875 589.765625 522.811523438 568.98046875 432.779296875 c 2
 528.89453125 259.149414062 l 2
 508.10546875 169.102539062 471.1171875 101.162109375 416.193359375 57.3798828125 c 0
 362 14.1806640625 297.8984375 -7.115234375 225.408203125 -7.115234375 c 0
 152.297851562 -7.115234375 97.83984375 14.1611328125 63.8955078125 57.408203125 c 0
 29.52734375 101.196289062 24.080078125 169.1171875 44.8662109375 259.150390625 c 2
246.0859375 78.24609375 m 0
 320.58984375 78.24609375 402.9375 108.504882812 436.8203125 255.270507812 c 2
 477.130859375 429.872070312 l 2
 513.172851562 585.98828125 441.260742188 614.657226562 369.926757812 614.657226562 c 0
 318.154296875 614.657226562 277.674804688 600.013671875 246.465820312 572.025390625 c 0
 215.428710938 544.190429688 191.01953125 497.263671875 175.4609375 429.87109375 c 2
 135.150390625 255.270507812 l 2
 120.360351562 191.206054688 123.692382812 146.5078125 142.34765625 119.588867188 c 0
 161.15625 92.44921875 194.922851562 78.24609375 246.0859375 78.24609375 c 0
447.329101562 874.6171875 m 1
 557.626953125 874.6171875 l 1
 388.975585938 732.997070312 l 1
 302.469726562 732.997070312 l 1
 447.329101562 874.6171875 l 1
EndSplineSet
EndChar

StartChar: Ocircumflex
Encoding: 212 212 149
Width: 610
GlyphClass: 2
Flags: MW
HStem: -7.11523 85.3613<220.504 261.653> 614.657 84.3867<352.851 405.594>
VStem: 68.3799 91.1807 461.23 91.1787
LayerCount: 2
Fore
SplineSet
44.8662109375 259.150390625 m 2
 84.951171875 432.780273438 l 2
 105.740234375 522.827148438 142.73046875 590.767578125 197.653320312 634.548828125 c 0
 251.872070312 677.768554688 316.294921875 699.043945312 389.407226562 699.043945312 c 0
 461.895507812 699.043945312 516.021484375 677.748046875 549.94921875 634.520507812 c 0
 584.319335938 590.732421875 589.765625 522.811523438 568.98046875 432.779296875 c 2
 528.89453125 259.149414062 l 2
 508.10546875 169.102539062 471.1171875 101.162109375 416.193359375 57.3798828125 c 0
 362 14.1806640625 297.8984375 -7.115234375 225.408203125 -7.115234375 c 0
 152.297851562 -7.115234375 97.83984375 14.1611328125 63.8955078125 57.408203125 c 0
 29.52734375 101.196289062 24.080078125 169.1171875 44.8662109375 259.150390625 c 2
246.0859375 78.24609375 m 0
 320.58984375 78.24609375 402.9375 108.504882812 436.8203125 255.270507812 c 2
 477.130859375 429.872070312 l 2
 513.172851562 585.98828125 441.260742188 614.657226562 369.926757812 614.657226562 c 0
 318.154296875 614.657226562 277.674804688 600.013671875 246.465820312 572.025390625 c 0
 215.428710938 544.190429688 191.01953125 497.263671875 175.4609375 429.87109375 c 2
 135.150390625 255.270507812 l 2
 120.360351562 191.206054688 123.692382812 146.5078125 142.34765625 119.588867188 c 0
 161.15625 92.44921875 194.922851562 78.24609375 246.0859375 78.24609375 c 0
462.297851562 883.346679688 m 1
 544.2734375 723.296875 l 1
 458.819335938 723.296875 l 1
 413.732421875 808.845703125 l 1
 328.244140625 723.296875 l 1
 242.83203125 723.296875 l 1
 398.708984375 883.346679688 l 1
 462.297851562 883.346679688 l 1
EndSplineSet
EndChar

StartChar: Otilde
Encoding: 213 213 150
Width: 610
GlyphClass: 2
Flags: MW
HStem: -7.11523 85.3613<220.504 261.653> 614.657 84.3867<352.851 405.594> 731.06 77.6006<463.845 468.483> 767.918 78.5723<350.54 358.341>
VStem: 68.3799 91.1807 461.23 91.1787
LayerCount: 2
Fore
SplineSet
44.8662109375 259.150390625 m 2xcc
 84.951171875 432.780273438 l 2
 105.740234375 522.827148438 142.73046875 590.767578125 197.653320312 634.548828125 c 0
 251.872070312 677.768554688 316.294921875 699.043945312 389.407226562 699.043945312 c 0
 461.895507812 699.043945312 516.021484375 677.748046875 549.94921875 634.520507812 c 0
 584.319335938 590.732421875 589.765625 522.811523438 568.98046875 432.779296875 c 2
 528.89453125 259.149414062 l 2
 508.10546875 169.102539062 471.1171875 101.162109375 416.193359375 57.3798828125 c 0
 362 14.1806640625 297.8984375 -7.115234375 225.408203125 -7.115234375 c 0
 152.297851562 -7.115234375 97.83984375 14.1611328125 63.8955078125 57.408203125 c 0
 29.52734375 101.196289062 24.080078125 169.1171875 44.8662109375 259.150390625 c 2xcc
246.0859375 78.24609375 m 0
 320.58984375 78.24609375 402.9375 108.504882812 436.8203125 255.270507812 c 2
 477.130859375 429.872070312 l 2
 513.172851562 585.98828125 441.260742188 614.657226562 369.926757812 614.657226562 c 0
 318.154296875 614.657226562 277.674804688 600.013671875 246.465820312 572.025390625 c 0
 215.428710938 544.190429688 191.01953125 497.263671875 175.4609375 429.87109375 c 2
 135.150390625 255.270507812 l 2
 120.360351562 191.206054688 123.692382812 146.5078125 142.34765625 119.588867188 c 0
 161.15625 92.44921875 194.922851562 78.24609375 246.0859375 78.24609375 c 0
369.127929688 846.490234375 m 0xdc
 387.651367188 846.490234375 400.735351562 842.8671875 427.62109375 825.732421875 c 0
 450.505859375 809.79296875 458.654296875 808.66015625 469.036132812 808.66015625 c 0
 492.588867188 808.66015625 504.262695312 818.5078125 555.491210938 861.721679688 c 1
 535.087890625 773.34375 l 1
 521.78125 761.201171875 488.755859375 731.059570312 448.209960938 731.059570312 c 0xec
 427.345703125 731.059570312 414.169921875 735.299804688 387.75390625 752.954101562 c 0
 387.439453125 753.202148438 367.631835938 767.91796875 349.049804688 767.91796875 c 0
 322.953125 767.91796875 310.951171875 757.389648438 261.411132812 713.9296875 c 1
 282.016601562 803.182617188 l 1
 305.692382812 825.087890625 331.952148438 846.490234375 369.127929688 846.490234375 c 0xdc
EndSplineSet
EndChar

StartChar: Odieresis
Encoding: 214 214 151
Width: 610
GlyphClass: 2
Flags: MW
HStem: -7.11523 85.3613<220.504 261.653> 614.657 84.3867<352.851 405.594> 738.817 103.789<291.118 361.246 267.156 385.208 291.118 433.025 456.987 527.116>
VStem: 68.3799 91.1807 179.931 94.0898 345.8 94.0908 461.23 91.1787
LayerCount: 2
Fore
SplineSet
44.8662109375 259.150390625 m 2
 84.951171875 432.780273438 l 2
 105.740234375 522.827148438 142.73046875 590.767578125 197.653320312 634.548828125 c 0
 251.872070312 677.768554688 316.294921875 699.043945312 389.407226562 699.043945312 c 0
 461.895507812 699.043945312 516.021484375 677.748046875 549.94921875 634.520507812 c 0
 584.319335938 590.732421875 589.765625 522.811523438 568.98046875 432.779296875 c 2
 528.89453125 259.149414062 l 2
 508.10546875 169.102539062 471.1171875 101.162109375 416.193359375 57.3798828125 c 0
 362 14.1806640625 297.8984375 -7.115234375 225.408203125 -7.115234375 c 0
 152.297851562 -7.115234375 97.83984375 14.1611328125 63.8955078125 57.408203125 c 0
 29.52734375 101.196289062 24.080078125 169.1171875 44.8662109375 259.150390625 c 2
246.0859375 78.24609375 m 0
 320.58984375 78.24609375 402.9375 108.504882812 436.8203125 255.270507812 c 2
 477.130859375 429.872070312 l 2
 513.172851562 585.98828125 441.260742188 614.657226562 369.926757812 614.657226562 c 0
 318.154296875 614.657226562 277.674804688 600.013671875 246.465820312 572.025390625 c 0
 215.428710938 544.190429688 191.01953125 497.263671875 175.4609375 429.87109375 c 2
 135.150390625 255.270507812 l 2
 120.360351562 191.206054688 123.692382812 146.5078125 142.34765625 119.588867188 c 0
 161.15625 92.44921875 194.922851562 78.24609375 246.0859375 78.24609375 c 0
291.118164062 842.606445312 m 1
 385.208007812 842.606445312 l 1
 361.24609375 738.817382812 l 1
 267.15625 738.817382812 l 1
 291.118164062 842.606445312 l 1
456.987304688 842.606445312 m 1
 551.078125 842.606445312 l 1
 527.116210938 738.817382812 l 1
 433.025390625 738.817382812 l 1
 456.987304688 842.606445312 l 1
EndSplineSet
EndChar

StartChar: multiply
Encoding: 215 215 152
Width: 515
GlyphClass: 2
Flags: W
LayerCount: 2
Fore
SplineSet
230.650390625 221.46875 m 1
 83.7958984375 102.159179688 l 1
 39.9150390625 159.2109375 l 1
 186.994140625 279.491210938 l 1
 95.20703125 398.830078125 l 1
 165.466796875 455.911132812 l 1
 257.231445312 336.600585938 l 1
 403.986328125 455.830078125 l 1
 449.05859375 398.911132812 l 1
 302.067382812 279.491210938 l 1
 393.670898438 159.129882812 l 1
 322.353515625 102.239257812 l 1
 230.650390625 221.46875 l 1
EndSplineSet
EndChar

StartChar: Oslash
Encoding: 216 216 153
Width: 610
GlyphClass: 2
Flags: MW
HStem: -7.11426 85.3604<224.607 261.653> 614.656 84.3887<352.851 390.831>
VStem: 68.3789 91.1807 461.229 91.1797
LayerCount: 2
Fore
SplineSet
560.62890625 709.71484375 m 1
 640.37890625 709.71484375 l 1
 562.16796875 612.99609375 l 1
 584.549804688 568.384765625 586.345703125 507.998046875 568.98046875 432.780273438 c 2
 528.895507812 259.150390625 l 2
 508.106445312 169.103515625 471.1171875 101.163085938 416.193359375 57.380859375 c 0
 362 14.181640625 297.8984375 -7.1142578125 225.408203125 -7.1142578125 c 0
 169.060546875 -7.1142578125 124.196289062 4.783203125 91.654296875 29.20703125 c 1
 53.048828125 -18.75390625 l 1
 -26.755859375 -18.75390625 l 1
 51.455078125 77.9658203125 l 1
 29.0693359375 122.618164062 27.359375 183.326171875 44.865234375 259.151367188 c 2
 84.951171875 432.78125 l 2
 105.739257812 522.828125 142.729492188 590.768554688 197.65234375 634.549804688 c 0
 251.87109375 677.76953125 316.294921875 699.044921875 389.407226562 699.044921875 c 0
 445.209960938 699.044921875 489.771484375 687.120117188 522.2578125 662.678710938 c 1
 560.62890625 709.71484375 l 1
175.458984375 429.870117188 m 2
 135.149414062 255.270507812 l 2
 127.514648438 222.19921875 124.82421875 194.185546875 126.758789062 171.203125 c 1
 459.775390625 584.98046875 l 1
 441.162109375 604.461914062 411.737304688 614.65625 369.924804688 614.65625 c 0
 318.15234375 614.65625 277.673828125 600.012695312 246.46484375 572.024414062 c 0
 215.426757812 544.189453125 191.018554688 497.262695312 175.458984375 429.870117188 c 2
246.084960938 78.24609375 m 0
 320.588867188 78.24609375 402.936523438 108.504882812 436.819335938 255.270507812 c 2
 477.129882812 429.87109375 l 2
 485.173828125 464.715820312 488.15234375 494.25390625 486.373046875 518.48828125 c 1
 154.025390625 106.19140625 l 1
 172.9375 87.9287109375 203.12890625 78.24609375 246.084960938 78.24609375 c 0
EndSplineSet
EndChar

StartChar: Ugrave
Encoding: 217 217 154
Width: 634
GlyphClass: 2
Flags: MW
HStem: -5.1748 83.4199<234.554 280.552 234.554 307.347> 670.315 20G<157.987 250.138 250.138 250.138 547.928 639.107 639.107 639.107>
VStem: 81.959 92.1504 471.899 91.1797
LayerCount: 2
Fore
SplineSet
238.465820312 -5.1748046875 m 0
 95.4765625 -5.1748046875 20.4814453125 94.7138671875 51.5029296875 229.080078125 c 2
 157.987304688 690.315429688 l 1
 250.137695312 690.315429688 l 1
 144.997070312 234.900390625 l 2
 133.645507812 185.734375 138.639648438 148.043945312 158.854492188 120.204101562 c 0
 179.065429688 92.3720703125 211.3828125 78.2451171875 257.724609375 78.2451171875 c 0
 303.379882812 78.2451171875 342.08984375 92.34375 375.533203125 120.245117188 c 0
 408.911132812 148.092773438 431.442382812 185.760742188 442.787109375 234.900390625 c 2
 547.927734375 690.315429688 l 1
 639.107421875 690.315429688 l 1
 532.623046875 229.080078125 l 2
 500.12109375 88.2978515625 376.228515625 -5.1748046875 238.465820312 -5.1748046875 c 0
294.498046875 874.616210938 m 1
 404.794921875 874.616210938 l 1
 484.262695312 732.99609375 l 1
 397.7578125 732.99609375 l 1
 294.498046875 874.616210938 l 1
EndSplineSet
EndChar

StartChar: Uacute
Encoding: 218 218 155
Width: 634
GlyphClass: 2
Flags: MW
HStem: -5.1748 83.4199<234.554 280.552 234.554 307.347> 670.315 20G<157.987 250.138 250.138 250.138 547.928 639.107 639.107 639.107>
VStem: 81.959 92.1504 471.899 91.1797
LayerCount: 2
Fore
SplineSet
238.465820312 -5.1748046875 m 0
 95.4765625 -5.1748046875 20.4814453125 94.7138671875 51.5029296875 229.080078125 c 2
 157.987304688 690.315429688 l 1
 250.137695312 690.315429688 l 1
 144.997070312 234.900390625 l 2
 133.645507812 185.734375 138.639648438 148.043945312 158.854492188 120.204101562 c 0
 179.065429688 92.3720703125 211.3828125 78.2451171875 257.724609375 78.2451171875 c 0
 303.379882812 78.2451171875 342.08984375 92.34375 375.533203125 120.245117188 c 0
 408.911132812 148.092773438 431.442382812 185.760742188 442.787109375 234.900390625 c 2
 547.927734375 690.315429688 l 1
 639.107421875 690.315429688 l 1
 532.623046875 229.080078125 l 2
 500.12109375 88.2978515625 376.228515625 -5.1748046875 238.465820312 -5.1748046875 c 0
458.967773438 874.616210938 m 1
 569.264648438 874.616210938 l 1
 400.614257812 732.99609375 l 1
 314.109375 732.99609375 l 1
 458.967773438 874.616210938 l 1
EndSplineSet
EndChar

StartChar: Ucircumflex
Encoding: 219 219 156
Width: 634
GlyphClass: 2
Flags: MW
HStem: -5.1748 83.4199<234.554 280.552 234.554 307.347> 670.315 20G<157.987 250.138 250.138 250.138 547.928 639.107 639.107 639.107>
VStem: 81.959 92.1504 471.899 91.1797
LayerCount: 2
Fore
SplineSet
238.465820312 -5.1748046875 m 0
 95.4765625 -5.1748046875 20.4814453125 94.7138671875 51.5029296875 229.080078125 c 2
 157.987304688 690.315429688 l 1
 250.137695312 690.315429688 l 1
 144.997070312 234.900390625 l 2
 133.645507812 185.734375 138.639648438 148.043945312 158.854492188 120.204101562 c 0
 179.065429688 92.3720703125 211.3828125 78.2451171875 257.724609375 78.2451171875 c 0
 303.379882812 78.2451171875 342.08984375 92.34375 375.533203125 120.245117188 c 0
 408.911132812 148.092773438 431.442382812 185.760742188 442.787109375 234.900390625 c 2
 547.927734375 690.315429688 l 1
 639.107421875 690.315429688 l 1
 532.623046875 229.080078125 l 2
 500.12109375 88.2978515625 376.228515625 -5.1748046875 238.465820312 -5.1748046875 c 0
410.34765625 883.345703125 m 1
 473.936523438 883.345703125 l 1
 555.912109375 723.295898438 l 1
 470.458007812 723.295898438 l 1
 425.37109375 808.844726562 l 1
 339.883789062 723.295898438 l 1
 254.471679688 723.295898438 l 1
 410.34765625 883.345703125 l 1
EndSplineSet
EndChar

StartChar: Udieresis
Encoding: 220 220 157
Width: 634
GlyphClass: 2
Flags: MW
HStem: -5.1748 83.4199<234.554 280.552 234.554 307.347> 670.315 20G<157.987 250.138 250.138 250.138 547.928 639.107 639.107 639.107> 738.816 103.79<302.757 372.885 278.795 396.847 302.757 444.665 468.627 538.755>
VStem: 81.959 92.1504 191.569 94.0898 357.439 94.0898 471.899 91.1797
LayerCount: 2
Fore
SplineSet
238.465820312 -5.1748046875 m 0
 95.4765625 -5.1748046875 20.4814453125 94.7138671875 51.5029296875 229.080078125 c 2
 157.987304688 690.315429688 l 1
 250.137695312 690.315429688 l 1
 144.997070312 234.900390625 l 2
 133.645507812 185.734375 138.639648438 148.043945312 158.854492188 120.204101562 c 0
 179.065429688 92.3720703125 211.3828125 78.2451171875 257.724609375 78.2451171875 c 0
 303.379882812 78.2451171875 342.08984375 92.34375 375.533203125 120.245117188 c 0
 408.911132812 148.092773438 431.442382812 185.760742188 442.787109375 234.900390625 c 2
 547.927734375 690.315429688 l 1
 639.107421875 690.315429688 l 1
 532.623046875 229.080078125 l 2
 500.12109375 88.2978515625 376.228515625 -5.1748046875 238.465820312 -5.1748046875 c 0
302.756835938 842.606445312 m 1
 396.846679688 842.606445312 l 1
 372.884765625 738.81640625 l 1
 278.794921875 738.81640625 l 1
 302.756835938 842.606445312 l 1
468.626953125 842.606445312 m 1
 562.716796875 842.606445312 l 1
 538.754882812 738.81640625 l 1
 444.665039062 738.81640625 l 1
 468.626953125 842.606445312 l 1
EndSplineSet
EndChar

StartChar: Yacute
Encoding: 221 221 158
Width: 501
GlyphClass: 2
Flags: MW
HStem: 0.645508 21G<127.775 218.955 127.775 127.775> 670.315 20G<80.6602 180.331 180.331 180.331 484.861 584.496 584.496 584.496>
VStem: 210.97 91.1797
LayerCount: 2
Fore
SplineSet
584.49609375 690.315429688 m 1
 285.456054688 288.6953125 l 1
 218.955078125 0.6455078125 l 1
 127.775390625 0.6455078125 l 1
 194.499023438 289.66015625 l 1
 80.66015625 690.315429688 l 1
 180.331054688 690.315429688 l 1
 260.963867188 382.059570312 l 1
 484.861328125 690.315429688 l 1
 584.49609375 690.315429688 l 1
393.977539062 874.615234375 m 1
 504.275390625 874.615234375 l 1
 335.624023438 732.995117188 l 1
 249.119140625 732.995117188 l 1
 393.977539062 874.615234375 l 1
EndSplineSet
EndChar

StartChar: Thorn
Encoding: 222 222 159
Width: 578
GlyphClass: 2
Flags: MW
HStem: 0.645508 21G<-1.23535 89.9453 -1.23535 -1.23535> 154.875 84.3896<145.034 275.416 125.552 289.079> 484.675 83.4199<220.951 345.737 201.692 370.815> 670.315 20G<157.987 249.168 249.168 249.168>
VStem: 81.959 91.1807 452.499 91.1807
LayerCount: 2
Fore
SplineSet
543.0078125 358.08984375 m 0
 528.618164062 295.763671875 497.116210938 245.3671875 448.47265625 208.920898438 c 0
 399.979492188 172.586914062 341.87109375 154.875 275.416015625 154.875 c 2
 125.551757812 154.875 l 1
 89.9453125 0.6455078125 l 1
 -1.2353515625 0.6455078125 l 1
 157.987304688 690.315429688 l 1
 249.16796875 690.315429688 l 1
 220.951171875 568.094726562 l 1
 370.815429688 568.094726562 l 2
 437.908203125 568.094726562 488.009765625 550.2265625 519.344726562 513.501953125 c 0
 550.8359375 476.592773438 558.24609375 424.094726562 543.0078125 358.08984375 c 0
451.827148438 358.08984375 m 0
 460.038085938 393.657226562 475.932617188 484.674804688 345.737304688 484.674804688 c 2
 201.692382812 484.674804688 l 1
 145.034179688 239.264648438 l 1
 289.079101562 239.264648438 l 2
 334.154296875 239.264648438 369.811523438 249.615234375 397.010742188 268.868164062 c 0
 423.743164062 287.791015625 442.26953125 316.693359375 451.827148438 358.08984375 c 0
EndSplineSet
EndChar

StartChar: germandbls
Encoding: 223 223 160
Width: 508
GlyphClass: 2
Flags: MW
HStem: -3.23535 80.5098<182.325 202.054 163.738 217.729> 381.856 80.5098<270.261 282.228 251.673 306.636> 616.596 80.5107<310.275 366.5>
VStem: 77.1084 86.3301 362.288 87.3008 370.048 87.3018
LayerCount: 2
Fore
SplineSet
411.793945312 425.426757812 m 1xf8
 456.200195312 392.834960938 452.850585938 341.513671875 426.893554688 229.080078125 c 0
 413.64453125 171.6953125 399.505859375 127.091796875 383.922851562 94.685546875 c 0
 344.100585938 11.873046875 273.430664062 -3.2353515625 202.053710938 -3.2353515625 c 2
 163.73828125 -3.2353515625 l 1
 182.325195312 77.2744140625 l 1
 217.729492188 77.2744140625 l 2
 268.662109375 77.2744140625 295.00390625 91.958984375 311.516601562 131.971679688 c 0
 319.846679688 152.153320312 329.365234375 184.78515625 339.591796875 229.081054688 c 0xf4
 349.518554688 272.079101562 354.95703125 304.200195312 356.021484375 324.76171875 c 0
 358.239257812 367.598632812 334.061523438 381.856445312 282.227539062 381.856445312 c 2
 251.672851562 381.856445312 l 1
 270.260742188 462.366210938 l 1
 306.635742188 462.366210938 l 2
 337.040039062 462.366210938 358.359375 469.198242188 371.9453125 480.236328125 c 0
 385.774414062 491.471679688 396.669921875 509.926757812 403.045898438 537.541015625 c 0
 411.794921875 575.438476562 408.21875 616.595703125 324.782226562 616.595703125 c 0
 287.442382812 616.595703125 260.026367188 607.673828125 241.0078125 592 c 0
 222.052734375 576.376953125 207.025390625 549.795898438 197.92578125 510.380859375 c 2
 80.244140625 0.6455078125 l 1
 -6.0859375 0.6455078125 l 1
 109.580078125 501.651367188 l 2
 123.950195312 563.89453125 149.413085938 612.704101562 187.323242188 646.627929688 c 0
 225.799804688 681.059570312 278.149414062 697.106445312 342.400390625 697.106445312 c 0
 400.143554688 697.106445312 442.911132812 683.85546875 469.005859375 655.844726562 c 0
 495.151367188 627.780273438 501.978515625 587.926757812 490.5703125 538.509765625 c 0
 479.541992188 490.744140625 457.184570312 452.299804688 411.793945312 425.426757812 c 1xf8
EndSplineSet
EndChar

StartChar: agrave
Encoding: 224 224 161
Width: 499
GlyphClass: 2
Flags: MW
HStem: -5.17578 73.7207<124.67 170.528> 231.505 68.8691<162.34 333.743 211.038 317.844> 443.935 75.6602<254.719 298.317 254.719 314.555> 677.106 20G<184.647 294.945 294.945 294.945>
VStem: 49.9502 86.3301 64.499 84.3906 347.74 86.3301
LayerCount: 2
Fore
SplineSet
282.018554688 519.594726562 m 0xf6
 314.616210938 519.594726562 470.518554688 518.876953125 430.487304688 345.48046875 c 2
 350.875976562 0.6455078125 l 1
 265.515625 0.6455078125 l 1
 273.791992188 36.4970703125 l 1
 243.407226562 13.134765625 202.499023438 -5.17578125 138.556640625 -5.17578125 c 0
 85.2705078125 -5.17578125 45.4296875 7.4892578125 20.705078125 34.158203125 c 0
 -4.2236328125 61.0498046875 -10.240234375 100.288085938 1.1298828125 149.5390625 c 0xfa
 11.8125 195.806640625 35.96875 233.51953125 73.4501953125 260.548828125 c 0
 110.890625 287.547851562 157.104492188 300.374023438 211.038085938 300.374023438 c 2
 333.743164062 300.374023438 l 1
 344.380859375 346.44921875 l 2
 350.264648438 371.93359375 363.587890625 443.934570312 265.521484375 443.934570312 c 0
 233.376953125 443.934570312 207.829101562 436.661132812 188.053710938 423.354492188 c 0
 168.422851562 410.146484375 156.204101562 392.684570312 150.680664062 368.759765625 c 2
 147.658203125 355.665039062 l 1
 63.267578125 355.665039062 l 1
 66.73828125 370.700195312 l 2
 77.0439453125 415.33984375 102.103515625 452.252929688 141.116210938 479.420898438 c 0
 180.127929688 506.588867188 227.418945312 519.594726562 282.018554688 519.594726562 c 0xf6
166.247070312 68.544921875 m 0
 238.29296875 68.544921875 286.403320312 95.3203125 305.415039062 177.669921875 c 2
 317.84375 231.504882812 l 1
 204.838867188 231.504882812 l 2
 119.841796875 231.504882812 96.3701171875 188.130859375 87.6845703125 150.509765625 c 0
 78.6298828125 111.290039062 83.0927734375 68.544921875 166.247070312 68.544921875 c 0
184.647460938 697.106445312 m 1
 294.9453125 697.106445312 l 1
 374.413085938 555.486328125 l 1
 287.907226562 555.486328125 l 1
 184.647460938 697.106445312 l 1
EndSplineSet
EndChar

StartChar: aacute
Encoding: 225 225 162
Width: 499
GlyphClass: 2
Flags: MW
HStem: -5.17578 73.7207<124.67 170.528> 231.505 68.8691<162.34 333.743 211.038 317.844> 443.935 75.6602<254.719 298.317 254.719 314.555> 677.106 20G<349.117 459.414 459.414 459.414>
VStem: 49.9502 86.3301 64.499 84.3906 347.74 86.3301
LayerCount: 2
Fore
SplineSet
282.018554688 519.594726562 m 0xf6
 314.616210938 519.594726562 470.518554688 518.876953125 430.487304688 345.48046875 c 2
 350.875976562 0.6455078125 l 1
 265.515625 0.6455078125 l 1
 273.791992188 36.4970703125 l 1
 243.407226562 13.134765625 202.499023438 -5.17578125 138.556640625 -5.17578125 c 0
 85.2705078125 -5.17578125 45.4296875 7.4892578125 20.705078125 34.158203125 c 0
 -4.2236328125 61.0498046875 -10.240234375 100.288085938 1.1298828125 149.5390625 c 0xfa
 11.8125 195.806640625 35.96875 233.51953125 73.4501953125 260.548828125 c 0
 110.890625 287.547851562 157.104492188 300.374023438 211.038085938 300.374023438 c 2
 333.743164062 300.374023438 l 1
 344.380859375 346.44921875 l 2
 350.264648438 371.93359375 363.587890625 443.934570312 265.521484375 443.934570312 c 0
 233.376953125 443.934570312 207.829101562 436.661132812 188.053710938 423.354492188 c 0
 168.422851562 410.146484375 156.204101562 392.684570312 150.680664062 368.759765625 c 2
 147.658203125 355.665039062 l 1
 63.267578125 355.665039062 l 1
 66.73828125 370.700195312 l 2
 77.0439453125 415.33984375 102.103515625 452.252929688 141.116210938 479.420898438 c 0
 180.127929688 506.588867188 227.418945312 519.594726562 282.018554688 519.594726562 c 0xf6
166.247070312 68.544921875 m 0
 238.29296875 68.544921875 286.403320312 95.3203125 305.415039062 177.669921875 c 2
 317.84375 231.504882812 l 1
 204.838867188 231.504882812 l 2
 119.841796875 231.504882812 96.3701171875 188.130859375 87.6845703125 150.509765625 c 0
 78.6298828125 111.290039062 83.0927734375 68.544921875 166.247070312 68.544921875 c 0
349.1171875 697.106445312 m 1
 459.4140625 697.106445312 l 1
 290.763671875 555.486328125 l 1
 204.258789062 555.486328125 l 1
 349.1171875 697.106445312 l 1
EndSplineSet
EndChar

StartChar: acircumflex
Encoding: 226 226 163
Width: 499
GlyphClass: 2
Flags: MW
HStem: -5.17578 73.7207<124.67 170.528> 231.505 68.8691<162.34 333.743 211.038 317.844> 443.935 75.6602<254.719 298.317 254.719 314.555>
VStem: 49.9502 86.3301 64.499 84.3906 347.74 86.3301
LayerCount: 2
Fore
SplineSet
282.018554688 519.594726562 m 0xec
 314.616210938 519.594726562 470.518554688 518.876953125 430.487304688 345.48046875 c 2
 350.875976562 0.6455078125 l 1
 265.515625 0.6455078125 l 1
 273.791992188 36.4970703125 l 1
 243.407226562 13.134765625 202.499023438 -5.17578125 138.556640625 -5.17578125 c 0
 85.2705078125 -5.17578125 45.4296875 7.4892578125 20.705078125 34.158203125 c 0
 -4.2236328125 61.0498046875 -10.240234375 100.288085938 1.1298828125 149.5390625 c 0xf4
 11.8125 195.806640625 35.96875 233.51953125 73.4501953125 260.548828125 c 0
 110.890625 287.547851562 157.104492188 300.374023438 211.038085938 300.374023438 c 2
 333.743164062 300.374023438 l 1
 344.380859375 346.44921875 l 2
 350.264648438 371.93359375 363.587890625 443.934570312 265.521484375 443.934570312 c 0
 233.376953125 443.934570312 207.829101562 436.661132812 188.053710938 423.354492188 c 0
 168.422851562 410.146484375 156.204101562 392.684570312 150.680664062 368.759765625 c 2
 147.658203125 355.665039062 l 1
 63.267578125 355.665039062 l 1
 66.73828125 370.700195312 l 2
 77.0439453125 415.33984375 102.103515625 452.252929688 141.116210938 479.420898438 c 0
 180.127929688 506.588867188 227.418945312 519.594726562 282.018554688 519.594726562 c 0xec
166.247070312 68.544921875 m 0
 238.29296875 68.544921875 286.403320312 95.3203125 305.415039062 177.669921875 c 2
 317.84375 231.504882812 l 1
 204.838867188 231.504882812 l 2
 119.841796875 231.504882812 96.3701171875 188.130859375 87.6845703125 150.509765625 c 0
 78.6298828125 111.290039062 83.0927734375 68.544921875 166.247070312 68.544921875 c 0
300.497070312 705.8359375 m 1
 364.0859375 705.8359375 l 1
 446.061523438 545.786132812 l 1
 360.607421875 545.786132812 l 1
 315.520507812 631.334960938 l 1
 230.033203125 545.786132812 l 1
 144.62109375 545.786132812 l 1
 300.497070312 705.8359375 l 1
EndSplineSet
EndChar

StartChar: atilde
Encoding: 227 227 164
Width: 499
GlyphClass: 2
Flags: MW
HStem: -5.17578 73.7207<124.67 170.528> 231.505 68.8691<162.34 333.743 211.038 317.844> 443.935 75.6602<254.719 298.317 254.719 314.555> 553.549 77.5996<365.633 370.272> 590.407 78.5713<252.332 260.129>
VStem: 49.9502 86.3301 64.499 84.3906 347.74 86.3301
LayerCount: 2
Fore
SplineSet
282.018554688 519.594726562 m 0xe3
 314.616210938 519.594726562 470.518554688 518.876953125 430.487304688 345.48046875 c 2
 350.875976562 0.6455078125 l 1
 265.515625 0.6455078125 l 1
 273.791992188 36.4970703125 l 1
 243.407226562 13.134765625 202.499023438 -5.17578125 138.556640625 -5.17578125 c 0
 85.2705078125 -5.17578125 45.4296875 7.4892578125 20.705078125 34.158203125 c 0
 -4.2236328125 61.0498046875 -10.240234375 100.288085938 1.1298828125 149.5390625 c 0xe5
 11.8125 195.806640625 35.96875 233.51953125 73.4501953125 260.548828125 c 0
 110.890625 287.547851562 157.104492188 300.374023438 211.038085938 300.374023438 c 2
 333.743164062 300.374023438 l 1
 344.380859375 346.44921875 l 2
 350.264648438 371.93359375 363.587890625 443.934570312 265.521484375 443.934570312 c 0
 233.376953125 443.934570312 207.829101562 436.661132812 188.053710938 423.354492188 c 0
 168.422851562 410.146484375 156.204101562 392.684570312 150.680664062 368.759765625 c 2
 147.658203125 355.665039062 l 1
 63.267578125 355.665039062 l 1
 66.73828125 370.700195312 l 2
 77.0439453125 415.33984375 102.103515625 452.252929688 141.116210938 479.420898438 c 0
 180.127929688 506.588867188 227.418945312 519.594726562 282.018554688 519.594726562 c 0xe3
166.247070312 68.544921875 m 0
 238.29296875 68.544921875 286.403320312 95.3203125 305.415039062 177.669921875 c 2
 317.84375 231.504882812 l 1
 204.838867188 231.504882812 l 2
 119.841796875 231.504882812 96.3701171875 188.130859375 87.6845703125 150.509765625 c 0
 78.6298828125 111.290039062 83.0927734375 68.544921875 166.247070312 68.544921875 c 0
270.918945312 668.978515625 m 0xe9
 289.44140625 668.978515625 302.5234375 665.356445312 329.409179688 648.220703125 c 0
 352.294921875 632.282226562 360.442382812 631.1484375 370.82421875 631.1484375 c 0
 394.373046875 631.1484375 406.0390625 640.98828125 457.279296875 684.208007812 c 1
 436.875976562 595.833007812 l 1
 423.571289062 583.689453125 390.544921875 553.548828125 349.999023438 553.548828125 c 0xf1
 329.01953125 553.548828125 315.834960938 557.875 289.54296875 575.443359375 c 0
 289.228515625 575.69140625 269.419921875 590.407226562 250.837890625 590.407226562 c 0
 224.741210938 590.407226562 212.740234375 579.87890625 163.198242188 536.41796875 c 1
 183.8046875 625.671875 l 1
 207.482421875 647.579101562 233.745117188 668.978515625 270.918945312 668.978515625 c 0xe9
EndSplineSet
EndChar

StartChar: adieresis
Encoding: 228 228 165
Width: 499
GlyphClass: 2
Flags: MW
HStem: -5.17578 73.7207<124.67 170.528> 231.505 68.8691<162.34 333.743 211.038 317.844> 443.935 75.6602<254.719 298.317 254.719 314.555> 561.306 103.79<192.906 263.034 168.944 286.996 192.906 334.814 358.776 428.904>
VStem: 49.9502 86.3301 64.499 84.3906 122.7 94.0898 288.57 94.0898 347.74 86.3301
LayerCount: 2
Fore
SplineSet
282.018554688 519.594726562 m 0xf480
 314.616210938 519.594726562 470.518554688 518.876953125 430.487304688 345.48046875 c 2
 350.875976562 0.6455078125 l 1
 265.515625 0.6455078125 l 1
 273.791992188 36.4970703125 l 1
 243.407226562 13.134765625 202.499023438 -5.17578125 138.556640625 -5.17578125 c 0
 85.2705078125 -5.17578125 45.4296875 7.4892578125 20.705078125 34.158203125 c 0
 -4.2236328125 61.0498046875 -10.240234375 100.288085938 1.1298828125 149.5390625 c 0xf880
 11.8125 195.806640625 35.96875 233.51953125 73.4501953125 260.548828125 c 0
 110.890625 287.547851562 157.104492188 300.374023438 211.038085938 300.374023438 c 2
 333.743164062 300.374023438 l 1
 344.380859375 346.44921875 l 2
 350.264648438 371.93359375 363.587890625 443.934570312 265.521484375 443.934570312 c 0
 233.376953125 443.934570312 207.829101562 436.661132812 188.053710938 423.354492188 c 0
 168.422851562 410.146484375 156.204101562 392.684570312 150.680664062 368.759765625 c 2
 147.658203125 355.665039062 l 1
 63.267578125 355.665039062 l 1
 66.73828125 370.700195312 l 2
 77.0439453125 415.33984375 102.103515625 452.252929688 141.116210938 479.420898438 c 0
 180.127929688 506.588867188 227.418945312 519.594726562 282.018554688 519.594726562 c 0xf480
166.247070312 68.544921875 m 0
 238.29296875 68.544921875 286.403320312 95.3203125 305.415039062 177.669921875 c 2
 317.84375 231.504882812 l 1
 204.838867188 231.504882812 l 2
 119.841796875 231.504882812 96.3701171875 188.130859375 87.6845703125 150.509765625 c 0
 78.6298828125 111.290039062 83.0927734375 68.544921875 166.247070312 68.544921875 c 0
192.90625 665.095703125 m 1xf2
 286.99609375 665.095703125 l 1
 263.034179688 561.305664062 l 1
 168.944335938 561.305664062 l 1
 192.90625 665.095703125 l 1xf2
358.776367188 665.095703125 m 1xf1
 452.866210938 665.095703125 l 1
 428.904296875 561.305664062 l 1
 334.814453125 561.305664062 l 1
 358.776367188 665.095703125 l 1xf1
EndSplineSet
EndChar

